<svg width="45" height="51" viewBox="0 0 45 51" fill="none" xmlns="http://www.w3.org/2000/svg">
<path d="M28.8598 0.114651C28.643 0.298502 28.643 0.482353 28.8164 1.00327C28.9682 1.34033 29.12 1.64674 29.185 1.64674C29.2501 1.64674 29.2284 1.49354 29.1634 1.34033C28.9032 0.75813 29.4235 1.03391 29.8355 1.70803C30.1174 2.1983 30.1391 2.29023 29.8789 2.01445C29.6187 1.70803 29.4886 1.70803 29.3585 1.98381C29.2718 2.1983 29.2934 2.29023 29.4019 2.1983C29.5103 2.10637 29.9439 2.566 30.3993 3.20948C30.8329 3.8836 31.1148 4.40451 31.0498 4.40451C30.9847 4.40451 31.2883 4.95607 31.7653 5.63019C32.329 6.42688 32.676 6.7333 32.8494 6.54945C33.1313 6.24303 33.63 6.64137 35.3429 8.63309C35.9501 9.33786 36.5572 9.85877 36.6656 9.7362C36.774 9.64428 36.8607 9.7362 36.8607 9.92005C36.8607 10.1652 36.7306 10.1958 36.4921 10.0426C36.0585 9.79749 35.7116 9.79749 34.3239 10.1039C33.8035 10.1958 33.3915 10.4103 33.3915 10.5635C33.3915 10.6861 33.2614 10.7474 33.1313 10.6861C32.8061 10.5329 30.074 10.2571 28.5129 10.2265C27.6889 10.2265 27.5155 10.1345 27.754 9.88941C27.9925 9.67492 27.819 9.61364 27.1035 9.70556C26.5614 9.79749 25.9109 9.92005 25.6507 10.012C25.3255 10.1345 25.2171 10.0733 25.2821 9.79749C25.5206 8.90887 19.341 8.97016 18.5605 9.88941C18.0184 10.5329 18.1485 10.7474 19.1893 10.778C19.7964 10.8393 20.165 10.7167 20.165 10.5022C20.165 10.2878 20.2734 10.2571 20.4469 10.441C20.6637 10.6555 21.8563 10.7167 22.9404 10.5635C23.0705 10.5635 23.2006 10.3184 23.2006 10.0733C23.2006 9.82813 23.2873 9.61364 23.3957 9.61364C23.5041 9.61364 23.5475 9.85877 23.5041 10.1345C23.4174 10.5635 23.5475 10.6861 24.1546 10.7474C24.7834 10.778 24.8918 10.6861 24.7834 10.2878C24.6967 9.88941 24.7184 9.88941 24.9786 10.349C25.2388 10.8393 25.4556 10.9006 26.1494 10.7167C27.2336 10.4103 27.2119 10.4103 28.6213 10.7167C29.2718 10.87 30.7679 10.9925 31.9171 10.9925C33.8902 10.9925 34.0203 11.0232 33.9119 11.5747C33.7167 12.4633 34.3239 12.0037 34.6708 11.0232C34.931 10.2571 35.0394 10.1652 35.7549 10.349C36.1886 10.441 37.7497 10.5635 39.2458 10.6248C40.742 10.6861 41.6093 10.6555 41.1973 10.5942C40.7853 10.5329 40.3517 10.3797 40.2649 10.2265C40.0698 9.98134 42.3248 10.0733 43.8426 10.3797C44.5581 10.5329 44.6449 10.4716 44.8617 9.55235C44.9918 9.03144 45.0352 8.51053 44.9701 8.4186C44.8834 8.32668 44.775 8.38796 44.7316 8.60245C44.6665 8.87823 44.0377 8.90887 42.3682 8.7863C41.0889 8.69438 40.1132 8.72502 40.1132 8.87823C40.1132 9.03144 40.5902 9.09272 41.1973 9.06208C41.8695 8.97016 42.2814 9.06208 42.2814 9.27657C42.2814 9.64428 38.8989 9.64428 38.2701 9.24593C37.9666 9.06208 38.0967 9.03144 38.7471 9.12337C39.2675 9.18465 39.7446 9.12337 39.8096 8.97016C39.8747 8.81695 39.3109 8.69438 38.552 8.69438C37.598 8.69438 37.2727 8.7863 37.5112 9.0008C37.7497 9.21529 37.6413 9.30722 37.0776 9.27657C36.4488 9.27657 36.4054 9.21529 36.7523 9.0008C37.1209 8.7863 37.0993 8.72502 36.5572 8.72502C36.1452 8.69438 35.5598 8.26539 34.8876 7.4687C34.3239 6.79458 33.7384 6.24303 33.5866 6.24303C33.4349 6.24303 33.3915 6.1511 33.4565 6.02853C33.6517 5.75276 32.5242 4.0981 32.1556 4.0981C31.9821 4.0981 31.9171 3.94489 32.0038 3.73039C32.0905 3.54654 32.0688 3.48526 31.9387 3.57718C31.8087 3.69975 31.6569 3.48526 31.5918 3.1482C31.5268 2.74985 31.375 2.59664 31.2232 2.71921C31.0498 2.87242 31.2015 3.30141 31.7002 4.03681C32.0905 4.64965 32.2423 4.95607 32.0472 4.74158C31.852 4.52708 31.5485 4.4658 31.4184 4.58837C31.2666 4.71093 31.2232 4.68029 31.3099 4.4658C31.375 4.31259 31.1798 3.73039 30.8763 3.20948C30.5727 2.68857 30.4426 2.25958 30.5944 2.25958C30.7245 2.25958 30.551 1.86124 30.1824 1.37097C29.8355 0.880698 29.5753 0.390428 29.6187 0.329144C29.8138 0.0533676 29.12 -0.130485 28.8598 0.114651ZM33.153 5.4157C33.3481 5.75276 33.2614 5.84468 32.741 5.87533C32.3941 5.87533 32.0255 5.75276 31.9604 5.56891C31.852 5.35441 31.9604 5.29313 32.264 5.38506C32.5242 5.50762 32.741 5.44634 32.741 5.29313C32.741 4.89478 32.8711 4.95607 33.153 5.4157ZM44.5581 9.61364C44.6449 9.79749 44.2546 9.92005 43.539 9.88941C42.4766 9.82813 42.4549 9.82813 43.1488 9.61364C44.2763 9.27657 44.4064 9.27657 44.5581 9.61364Z" fill="#E4B94B"/>
<path d="M6.50484 1.79996C5.68089 2.96435 5.26892 3.36269 5.07377 3.17884C4.90031 2.96435 4.74853 3.02563 4.55339 3.33205C4.40161 3.57719 4.11973 3.79168 3.94627 3.79168C3.62103 3.79168 3.62103 3.82232 3.94627 4.28195C4.27151 4.74158 4.18478 4.89479 3.05727 6.18175C0.628801 8.97016 0 9.73621 0 9.9507C0 10.441 2.47184 12.923 2.7754 12.7391C2.99223 12.6472 3.05727 12.7085 2.94886 12.923C2.86213 13.1375 2.90549 13.2907 3.03559 13.2907C3.16569 13.2907 3.23074 13.4132 3.16569 13.5358C3.10064 13.689 3.49093 14.1793 4.01132 14.6389C4.5317 15.0985 5.1605 15.8339 5.44238 16.2323C5.94109 16.9983 6.43979 17.2435 6.15791 16.6C6.0495 16.3855 6.09286 16.3549 6.26633 16.4774C6.41811 16.6306 6.48316 16.8145 6.41811 16.9064C6.24464 17.1209 7.15532 18.4998 7.45888 18.4998C7.58898 18.4998 7.82749 18.7756 7.97927 19.1126C8.13105 19.4497 8.45629 19.7255 8.6948 19.7255C9.06341 19.7255 9.10677 19.6335 8.91163 19.3271C8.78153 19.082 8.73817 18.8062 8.8249 18.7143C8.88995 18.5917 8.84658 18.4998 8.71648 18.4998C8.5647 18.4998 8.45629 18.653 8.45629 18.8368C8.45629 19.082 8.34788 19.082 8.13105 18.8062C7.74076 18.3466 7.69739 17.7337 8.066 18.0708C8.21778 18.1934 8.23946 18.1627 8.15273 17.9482C7.89254 17.3354 8.30451 17.5499 8.99836 18.3772C9.4537 18.8981 9.51875 19.082 9.21519 18.9288C8.75985 18.6836 8.75985 18.7449 9.41033 19.419C9.64884 19.6642 9.77894 19.7255 9.71389 19.5723C9.62716 19.3884 9.75726 19.082 9.99577 18.8675C10.2343 18.653 10.4077 18.6224 10.4077 18.8062C10.4077 18.9594 10.321 19.1126 10.2343 19.1126C10.1259 19.1126 10.0391 19.3271 10.0391 19.5723C10.0391 19.8174 10.1042 20.0319 10.1909 20.0319C10.3644 20.0319 10.8414 19.3578 10.8414 19.1126C10.8414 18.8675 4.64012 12.0037 4.46666 12.0343C4.40161 12.065 4.1631 11.8199 3.94627 11.5134C3.59934 11.0232 3.62103 10.9925 4.6618 10.8087C5.24724 10.7167 5.94109 10.5329 6.15791 10.3797C6.43979 10.1958 6.52652 10.2265 6.43979 10.441C6.33138 10.6861 7.63234 10.7474 10.8848 10.6861C13.4216 10.6248 15.6767 10.5329 15.8718 10.4716C16.0886 10.4103 16.4789 10.0426 16.7608 9.67492C17.0427 9.30722 17.3462 9.06209 17.4113 9.15401C17.498 9.24594 17.5197 9.21529 17.4763 9.12337C17.4113 9.03144 17.7582 8.38796 18.2352 7.71384C18.6906 7.03972 19.0809 6.39624 19.0809 6.27367C19.0809 6.15111 19.2977 5.7834 19.5362 5.44634C19.8831 5.01736 20.0349 4.95607 20.0999 5.26249C20.1867 5.56891 20.2734 5.56891 20.5119 5.29313C20.6854 5.10928 20.7504 4.80286 20.6637 4.58837C20.5987 4.40452 20.6203 4.34324 20.7071 4.49644C20.8155 4.61901 21.1624 4.34324 21.4876 3.91425C21.943 3.30141 22.0297 3.02563 21.8346 2.74986C21.6611 2.47408 20.9889 3.24013 19.0592 6.02854C17.5631 8.20411 16.4789 9.55235 16.3922 9.33786C16.1537 8.81695 10.1692 8.87823 9.64884 9.42979C9.30192 9.76685 9.62716 9.82813 11.8605 9.67492C14.6142 9.52171 16.1103 9.76685 15.2864 10.2265C14.6793 10.5942 14.354 10.5942 14.7443 10.2265C14.9611 10.012 14.0071 9.92006 11.7087 9.92006C9.86567 9.9507 7.78412 9.92006 7.09027 9.88942C6.35306 9.82813 5.74594 9.9507 5.59416 10.1652C5.22555 10.6861 4.74853 10.6248 4.90031 10.1039C5.05209 9.52171 4.55339 9.12337 4.33656 9.64428C4.22814 9.85877 4.20646 10.1652 4.24983 10.2878C4.31488 10.4103 4.05468 10.5329 3.70776 10.5329C2.81876 10.5329 2.86213 10.87 3.92459 12.0956C5.37733 13.7503 6.50484 14.884 6.50484 14.6695C6.50484 14.5776 7.28542 15.3437 8.23946 16.3855C9.1935 17.4273 9.97408 18.3159 9.97408 18.3772C9.97408 18.7143 9.49706 18.3772 8.60807 17.4273C7.5673 16.2936 6.72167 15.8952 7.61066 16.9677C8.52134 18.0095 7.69739 17.6112 6.63493 16.4774C6.09286 15.8952 5.5508 15.4662 5.44238 15.5582C5.33397 15.6501 5.20387 15.4356 5.13882 15.0985C5.07377 14.7308 4.90031 14.5163 4.72685 14.6083C4.33656 14.7921 3.55598 14.2099 3.85954 13.9341C4.01132 13.8116 3.77281 13.2907 3.25242 12.5859C2.7754 11.9424 2.40679 11.5441 2.42847 11.6666C2.49352 11.9118 2.32006 12.065 1.92977 12.065C1.82135 12.065 1.77799 11.9118 1.84304 11.7586C1.90809 11.5747 1.84304 11.4522 1.69126 11.4522C1.53948 11.4522 1.21424 11.2377 0.997409 10.9925C0.563753 10.5329 0.563753 10.5329 0.997409 10.0426C1.3877 9.583 1.3877 9.583 0.758898 9.76685L0.108414 9.98134L0.758898 9.24594C1.10582 8.84759 1.47443 8.57181 1.56116 8.60246C1.66958 8.66374 1.71294 8.51053 1.66958 8.29604C1.64789 8.08154 1.86472 7.92834 2.25501 7.92834C2.60194 7.92834 2.92718 7.74448 2.97054 7.52999C3.03559 7.28486 2.94886 7.22357 2.66698 7.34614C2.45016 7.46871 2.66698 7.03972 3.14401 6.45753C3.62103 5.84469 4.033 5.47698 4.07636 5.63019C4.11973 5.7834 4.29319 5.81404 4.46666 5.72212C4.96536 5.44634 4.81358 6.54945 4.24983 7.19293C3.77281 7.74448 3.36083 8.97016 3.64271 9.03144C5.07377 9.18465 7.15532 9.15401 7.15532 8.93952C7.15532 8.81695 6.98186 8.72502 6.78671 8.75567C6.56989 8.78631 5.83267 8.75567 5.13882 8.75567C3.94627 8.69438 3.9029 8.66374 4.11973 8.08154C4.24983 7.74448 4.44497 7.52999 4.57507 7.62192C4.68348 7.74448 4.74853 7.65256 4.72685 7.43807C4.68348 7.22357 4.7919 7.00908 4.94368 6.97844C5.07377 6.94779 5.26892 6.88651 5.37733 6.85587C5.46406 6.82523 5.63753 6.79459 5.74594 6.85587C5.87604 6.88651 5.57248 6.30432 5.07377 5.56891C4.20646 4.28195 4.18478 4.25131 4.59675 3.69975C5.00873 3.1482 5.03041 3.1482 5.13882 3.76104C5.20387 4.12874 5.35565 4.31259 5.57248 4.19003C5.74594 4.0981 6.24464 4.49644 6.78671 5.20121C7.28542 5.87533 7.50225 6.05918 7.26374 5.66084C7.02523 5.26249 6.87345 4.86415 6.89513 4.74158C7.09027 4.28195 7.4372 3.79168 7.63234 3.79168C7.74076 3.79168 7.76244 3.97553 7.67571 4.15938C7.5673 4.43516 7.61066 4.43516 7.87085 4.12874C8.23946 3.7304 8.17441 3.17884 7.78412 3.17884C7.65403 3.17884 7.37215 3.48526 7.15532 3.85296C6.93849 4.25131 6.6783 4.4658 6.59157 4.34324C6.50484 4.19003 6.61325 3.79168 6.85176 3.45462L7.26374 2.7805L6.63493 3.36269L6.00613 3.91425L6.26633 3.24013C6.39642 2.87243 6.43979 2.56601 6.35306 2.56601C6.26633 2.56601 6.33138 2.38215 6.50484 2.16766C6.96018 1.64675 7.89254 0.114655 7.78412 0.114655C7.71907 0.114655 7.15532 0.880703 6.50484 1.79996Z" fill="#E4B94B"/>
<path d="M22.2682 4.09812C22.2031 4.43518 22.2899 4.92545 22.485 5.17059C22.962 5.87535 23.3306 5.72214 22.8753 5.01738C22.2682 4.09812 22.6802 3.88363 23.374 4.77224C23.6992 5.20123 24.1112 5.63022 24.2847 5.72214C24.4581 5.81407 24.328 5.90599 23.9594 5.93663C23.5258 5.99792 23.4391 6.0592 23.6992 6.15113C23.9378 6.24305 24.328 6.54947 24.5666 6.85589C24.8268 7.16231 25.2821 7.71386 25.5856 8.05092C26.3229 8.87826 25.8675 8.84761 24.9568 7.98964C24.5449 7.62194 23.8944 7.07038 23.5475 6.76397L22.8753 6.18177L23.5041 7.13167C23.8727 7.65258 24.4798 8.23478 24.8701 8.44927C25.2604 8.66376 25.5856 8.9089 25.5856 9.03146C25.5856 9.15403 25.7808 9.18467 26.0193 9.09275C26.5831 8.87826 26.5614 8.60248 25.9326 7.89772C25.629 7.5913 25.4339 7.28488 25.4772 7.16231C25.5206 7.07038 25.4122 6.73332 25.2387 6.39626C25.0653 6.08984 24.9352 5.99792 24.9352 6.18177C24.9352 6.39626 24.8268 6.54947 24.6967 6.54947C24.5666 6.54947 24.5015 6.33498 24.5666 6.08984C24.6533 5.81407 24.3497 5.26251 23.7643 4.55775C22.6802 3.33207 22.42 3.24015 22.2682 4.09812Z" fill="#E4B94B"/>
<path d="M20.1 6.91717C19.276 8.1122 18.734 8.97017 18.8424 8.84761C18.9725 8.75568 19.0809 8.78632 19.0809 8.97017C19.0809 9.30724 20.165 7.89771 20.165 7.53001C20.165 7.40744 20.6204 6.85588 21.1408 6.27369C21.6828 5.72213 22.0514 5.13994 21.9864 4.98673C21.7912 4.5271 21.6395 4.71095 20.1 6.91717Z" fill="#E4B94B"/>
<path d="M29.597 9.00078C31.1365 9.18463 31.2232 9.21528 30.2475 9.3072L29.1633 9.39913L30.1174 9.5217C30.6594 9.61362 31.2882 9.5217 31.5268 9.33784C31.787 9.15399 32.4158 8.97014 32.9578 8.90886C33.4999 8.84757 32.5675 8.81693 30.898 8.81693C28.3611 8.81693 28.1442 8.84757 29.597 9.00078Z" fill="#E4B94B"/>
<path d="M17.1511 11.2683C16.3705 12.0956 15.7851 13.1068 15.9585 13.352C16.0019 13.4439 15.9152 13.689 15.72 13.9035C15.4598 14.2099 15.3948 14.1793 15.3948 13.7197C15.3948 13.2907 15.1996 13.4439 14.5492 14.4551C14.0938 15.1598 13.6602 15.742 13.6168 15.742C13.4 15.742 13.5951 14.4551 13.8987 13.9342C14.3974 13.0762 14.4191 12.4327 13.9204 13.0762C13.4433 13.689 12.5543 13.7809 12.6411 13.1988C12.6628 13.0149 12.576 12.8617 12.4676 12.8923C12.3375 12.923 12.034 12.5246 11.8171 12.0344C11.5786 11.5441 11.1883 11.1457 10.9498 11.1457C10.6029 11.1764 10.733 11.4522 11.5569 12.4633C12.511 13.689 12.923 14.5164 12.3158 14.0261C12.1641 13.9035 12.2508 14.1486 12.5327 14.5776C13.053 15.405 13.1615 15.8952 12.7495 15.5582C12.576 15.4356 12.5327 15.4662 12.6411 15.6195C12.7495 15.7727 12.9013 15.8952 12.9663 15.9259C13.053 15.9259 13.3132 16.0484 13.5301 16.2017C13.8553 16.3855 14.0938 16.2323 14.6142 15.405C14.9611 14.8228 15.3297 14.3631 15.4165 14.3631C15.5899 14.3631 17.9967 10.87 17.9967 10.6555C17.9967 10.441 17.8666 10.5329 17.1511 11.2683Z" fill="#E4B94B"/>
<path d="M27.2119 11.4215C27.5805 11.7586 28.4044 12.8004 29.0332 13.7196C29.6837 14.6389 30.2692 15.3437 30.3125 15.2824C30.4643 15.0985 28.5996 12.2182 28.3828 12.2795C28.296 12.3408 28.2527 12.1569 28.3177 11.9118C28.4044 11.6666 28.6213 11.4215 28.8164 11.4215C29.3151 11.3602 27.9925 10.9312 27.2119 10.8699L26.5614 10.8393L27.2119 11.4215Z" fill="#E4B94B"/>
<path d="M29.532 12.6472C29.8138 13.1068 30.0957 13.4745 30.1825 13.4132C30.2692 13.3213 30.4643 13.5664 30.6595 13.9341C30.8329 14.3018 31.0714 14.5163 31.1799 14.3938C31.2883 14.3018 31.5918 14.547 31.852 14.9147L32.3074 15.6194L31.3967 15.5275C30.6595 15.4662 30.5511 15.5275 30.8546 15.7726C31.0498 15.9259 31.31 16.0178 31.3967 15.9259C31.4834 15.8646 31.7002 15.9259 31.8737 16.1097C32.1339 16.3548 32.1122 16.3548 31.7653 16.2016C31.4617 16.0791 31.3967 16.1097 31.5702 16.3548C31.852 16.7532 32.5242 16.4468 32.5242 15.9259C32.5242 15.742 32.9145 15.0372 33.3915 14.3631C34.2805 13.0762 34.6057 12.1875 33.7818 13.2907C33.1313 14.1486 32.7627 14.0567 33.3481 13.1987C33.6083 12.8004 33.7601 12.3714 33.6734 12.2488C33.5867 12.1263 33.153 12.6165 32.7193 13.3519L31.9171 14.6695L31.0714 13.7196C30.6161 13.1987 30.074 12.7085 29.8789 12.5859C29.6621 12.494 29.4886 12.2488 29.4886 12.065C29.4886 11.9118 29.3802 11.7586 29.2501 11.7586C29.12 11.7586 29.2501 12.1569 29.532 12.6472Z" fill="#E4B94B"/>
<path d="M30.486 16.6306C30.2909 16.937 30.1391 17.366 30.1824 17.5805C30.2258 17.795 30.1174 18.0402 29.9439 18.1321C29.7705 18.1934 29.7054 18.1321 29.7922 17.9482C30.009 17.4273 29.5536 17.2435 29.2718 17.7337C29.0549 18.1014 29.0766 18.1934 29.3585 18.1934C29.7922 18.1934 29.8138 18.9288 29.3802 19.419C29.0549 19.7867 28.9465 19.5416 29.0333 18.7143C29.0766 18.3772 28.8381 18.4691 28.4912 18.9288C28.1009 19.511 28.1009 19.848 28.5346 19.6029C28.708 19.511 28.7947 19.5416 28.7297 19.7255C28.6646 19.9093 28.7731 20.0319 28.9899 20.0319C29.3802 20.0319 31.44 17.2435 31.44 16.6919C31.44 16.1404 30.8329 16.1097 30.486 16.6306Z" fill="#E4B94B"/>
<path d="M28.8598 15.1147C28.643 15.2985 28.643 15.4824 28.8164 16.0033C28.9682 16.3403 29.12 16.6467 29.185 16.6467C29.2501 16.6467 29.2284 16.4935 29.1634 16.3403C28.9032 15.7581 29.4235 16.0339 29.8355 16.708C30.1174 17.1983 30.1391 17.2902 29.8789 17.0144C29.6187 16.708 29.4886 16.708 29.3585 16.9838C29.2718 17.1983 29.2934 17.2902 29.4019 17.1983C29.5103 17.1064 29.9439 17.566 30.3993 18.2095C30.8329 18.8836 31.1148 19.4045 31.0498 19.4045C30.9847 19.4045 31.2883 19.9561 31.7653 20.6302C32.329 21.4269 32.676 21.7333 32.8494 21.5494C33.1313 21.243 33.63 21.6414 35.3429 23.6331C35.9501 24.3379 36.5572 24.8588 36.6656 24.7362C36.774 24.6443 36.8607 24.7362 36.8607 24.9201C36.8607 25.1652 36.7306 25.1958 36.4921 25.0426C36.0585 24.7975 35.7116 24.7975 34.3239 25.1039C33.8035 25.1958 33.3915 25.4103 33.3915 25.5635C33.3915 25.6861 33.2614 25.7474 33.1313 25.6861C32.8061 25.5329 30.074 25.2571 28.5129 25.2265C27.6889 25.2265 27.5155 25.1345 27.754 24.8894C27.9925 24.6749 27.819 24.6136 27.1035 24.7056C26.5614 24.7975 25.9109 24.9201 25.6507 25.012C25.3255 25.1345 25.2171 25.0733 25.2821 24.7975C25.5206 23.9089 19.341 23.9702 18.5605 24.8894C18.0184 25.5329 18.1485 25.7474 19.1893 25.778C19.7964 25.8393 20.165 25.7167 20.165 25.5023C20.165 25.2878 20.2734 25.2571 20.4469 25.441C20.6637 25.6555 21.8563 25.7167 22.9404 25.5635C23.0705 25.5635 23.2006 25.3184 23.2006 25.0733C23.2006 24.8281 23.2873 24.6136 23.3957 24.6136C23.5041 24.6136 23.5475 24.8588 23.5041 25.1345C23.4174 25.5635 23.5475 25.6861 24.1546 25.7474C24.7834 25.778 24.8918 25.6861 24.7834 25.2878C24.6967 24.8894 24.7184 24.8894 24.9786 25.349C25.2388 25.8393 25.4556 25.9006 26.1494 25.7167C27.2336 25.4103 27.2119 25.4103 28.6213 25.7167C29.2718 25.87 30.7679 25.9925 31.9171 25.9925C33.8902 25.9925 34.0203 26.0232 33.9119 26.5747C33.7167 27.4633 34.3239 27.0037 34.6708 26.0232C34.931 25.2571 35.0394 25.1652 35.7549 25.349C36.1886 25.441 37.7497 25.5635 39.2458 25.6248C40.742 25.6861 41.6093 25.6555 41.1973 25.5942C40.7853 25.5329 40.3517 25.3797 40.2649 25.2265C40.0698 24.9813 42.3248 25.0733 43.8426 25.3797C44.5581 25.5329 44.6449 25.4716 44.8617 24.5524C44.9918 24.0314 45.0352 23.5105 44.9701 23.4186C44.8834 23.3267 44.775 23.388 44.7316 23.6025C44.6665 23.8782 44.0377 23.9089 42.3682 23.7863C41.0889 23.6944 40.1132 23.725 40.1132 23.8782C40.1132 24.0314 40.5902 24.0927 41.1973 24.0621C41.8695 23.9702 42.2814 24.0621 42.2814 24.2766C42.2814 24.6443 38.8989 24.6443 38.2701 24.2459C37.9666 24.0621 38.0967 24.0314 38.7471 24.1234C39.2675 24.1846 39.7446 24.1234 39.8096 23.9702C39.8747 23.8169 39.3109 23.6944 38.552 23.6944C37.598 23.6944 37.2727 23.7863 37.5112 24.0008C37.7497 24.2153 37.6413 24.3072 37.0776 24.2766C36.4488 24.2766 36.4054 24.2153 36.7523 24.0008C37.1209 23.7863 37.0993 23.725 36.5572 23.725C36.1452 23.6944 35.5598 23.2654 34.8876 22.4687C34.3239 21.7946 33.7384 21.243 33.5866 21.243C33.4349 21.243 33.3915 21.1511 33.4565 21.0285C33.6517 20.7528 32.5242 19.0981 32.1556 19.0981C31.9821 19.0981 31.9171 18.9449 32.0038 18.7304C32.0905 18.5465 32.0688 18.4853 31.9387 18.5772C31.8087 18.6998 31.6569 18.4853 31.5918 18.1482C31.5268 17.7499 31.375 17.5966 31.2232 17.7192C31.0498 17.8724 31.2015 18.3014 31.7002 19.0368C32.0905 19.6497 32.2423 19.9561 32.0472 19.7416C31.852 19.5271 31.5485 19.4658 31.4184 19.5884C31.2666 19.7109 31.2232 19.6803 31.3099 19.4658C31.375 19.3126 31.1798 18.7304 30.8763 18.2095C30.5727 17.6886 30.4426 17.2596 30.5944 17.2596C30.7245 17.2596 30.551 16.8612 30.1824 16.371C29.8355 15.8807 29.5753 15.3904 29.6187 15.3291C29.8138 15.0534 29.12 14.8695 28.8598 15.1147ZM33.153 20.4157C33.3481 20.7528 33.2614 20.8447 32.741 20.8753C32.3941 20.8753 32.0255 20.7528 31.9604 20.5689C31.852 20.3544 31.9604 20.2931 32.264 20.3851C32.5242 20.5076 32.741 20.4463 32.741 20.2931C32.741 19.8948 32.8711 19.9561 33.153 20.4157ZM44.5581 24.6136C44.6449 24.7975 44.2546 24.9201 43.539 24.8894C42.4766 24.8281 42.4549 24.8281 43.1488 24.6136C44.2763 24.2766 44.4064 24.2766 44.5581 24.6136Z" fill="#E4B94B"/>
<path d="M6.50484 16.8C5.68089 17.9643 5.26892 18.3627 5.07377 18.1788C4.90031 17.9643 4.74853 18.0256 4.55339 18.3321C4.40161 18.5772 4.11973 18.7917 3.94627 18.7917C3.62103 18.7917 3.62103 18.8223 3.94627 19.2819C4.27151 19.7416 4.18478 19.8948 3.05727 21.1817C0.628801 23.9702 0 24.7362 0 24.9507C0 25.441 2.47184 27.923 2.7754 27.7391C2.99223 27.6472 3.05727 27.7085 2.94886 27.923C2.86213 28.1375 2.90549 28.2907 3.03559 28.2907C3.16569 28.2907 3.23074 28.4132 3.16569 28.5358C3.10064 28.689 3.49093 29.1793 4.01132 29.6389C4.5317 30.0985 5.1605 30.8339 5.44238 31.2323C5.94109 31.9983 6.43979 32.2435 6.15791 31.6C6.0495 31.3855 6.09286 31.3549 6.26633 31.4774C6.41811 31.6306 6.48316 31.8145 6.41811 31.9064C6.24464 32.1209 7.15532 33.4998 7.45888 33.4998C7.58898 33.4998 7.82749 33.7756 7.97927 34.1126C8.13105 34.4497 8.45629 34.7255 8.6948 34.7255C9.06341 34.7255 9.10677 34.6335 8.91163 34.3271C8.78153 34.082 8.73817 33.8062 8.8249 33.7143C8.88995 33.5917 8.84658 33.4998 8.71648 33.4998C8.5647 33.4998 8.45629 33.653 8.45629 33.8368C8.45629 34.082 8.34788 34.082 8.13105 33.8062C7.74076 33.3466 7.69739 32.7337 8.066 33.0708C8.21778 33.1934 8.23946 33.1627 8.15273 32.9482C7.89254 32.3354 8.30451 32.5499 8.99836 33.3772C9.4537 33.8981 9.51875 34.082 9.21519 33.9288C8.75985 33.6836 8.75985 33.7449 9.41033 34.419C9.64884 34.6642 9.77894 34.7255 9.71389 34.5723C9.62716 34.3884 9.75726 34.082 9.99577 33.8675C10.2343 33.653 10.4077 33.6224 10.4077 33.8062C10.4077 33.9594 10.321 34.1126 10.2343 34.1126C10.1259 34.1126 10.0391 34.3271 10.0391 34.5723C10.0391 34.8174 10.1042 35.0319 10.1909 35.0319C10.3644 35.0319 10.8414 34.3578 10.8414 34.1126C10.8414 33.8675 4.64012 27.0037 4.46666 27.0343C4.40161 27.065 4.1631 26.8199 3.94627 26.5134C3.59934 26.0232 3.62103 25.9925 4.6618 25.8087C5.24724 25.7167 5.94109 25.5329 6.15791 25.3797C6.43979 25.1958 6.52652 25.2265 6.43979 25.441C6.33138 25.6861 7.63234 25.7474 10.8848 25.6861C13.4216 25.6248 15.6767 25.5329 15.8718 25.4716C16.0886 25.4103 16.4789 25.0426 16.7608 24.6749C17.0427 24.3072 17.3462 24.0621 17.4113 24.154C17.498 24.2459 17.5197 24.2153 17.4763 24.1234C17.4113 24.0314 17.7582 23.388 18.2352 22.7138C18.6906 22.0397 19.0809 21.3962 19.0809 21.2737C19.0809 21.1511 19.2977 20.7834 19.5362 20.4463C19.8831 20.0174 20.0349 19.9561 20.0999 20.2625C20.1867 20.5689 20.2734 20.5689 20.5119 20.2931C20.6854 20.1093 20.7504 19.8029 20.6637 19.5884C20.5987 19.4045 20.6203 19.3432 20.7071 19.4964C20.8155 19.619 21.1624 19.3432 21.4876 18.9142C21.943 18.3014 22.0297 18.0256 21.8346 17.7499C21.6611 17.4741 20.9889 18.2401 19.0592 21.0285C17.5631 23.2041 16.4789 24.5524 16.3922 24.3379C16.1537 23.8169 10.1692 23.8782 9.64884 24.4298C9.30192 24.7668 9.62716 24.8281 11.8605 24.6749C14.6142 24.5217 16.1103 24.7668 15.2864 25.2265C14.6793 25.5942 14.354 25.5942 14.7443 25.2265C14.9611 25.012 14.0071 24.9201 11.7087 24.9201C9.86567 24.9507 7.78412 24.9201 7.09027 24.8894C6.35306 24.8281 5.74594 24.9507 5.59416 25.1652C5.22555 25.6861 4.74853 25.6248 4.90031 25.1039C5.05209 24.5217 4.55339 24.1234 4.33656 24.6443C4.22814 24.8588 4.20646 25.1652 4.24983 25.2878C4.31488 25.4103 4.05468 25.5329 3.70776 25.5329C2.81876 25.5329 2.86213 25.87 3.92459 27.0956C5.37733 28.7503 6.50484 29.884 6.50484 29.6695C6.50484 29.5776 7.28542 30.3437 8.23946 31.3855C9.1935 32.4273 9.97408 33.3159 9.97408 33.3772C9.97408 33.7143 9.49706 33.3772 8.60807 32.4273C7.5673 31.2936 6.72167 30.8952 7.61066 31.9677C8.52134 33.0095 7.69739 32.6112 6.63493 31.4774C6.09286 30.8952 5.5508 30.4662 5.44238 30.5582C5.33397 30.6501 5.20387 30.4356 5.13882 30.0985C5.07377 29.7308 4.90031 29.5163 4.72685 29.6083C4.33656 29.7921 3.55598 29.2099 3.85954 28.9341C4.01132 28.8116 3.77281 28.2907 3.25242 27.5859C2.7754 26.9424 2.40679 26.5441 2.42847 26.6666C2.49352 26.9118 2.32006 27.065 1.92977 27.065C1.82135 27.065 1.77799 26.9118 1.84304 26.7586C1.90809 26.5747 1.84304 26.4522 1.69126 26.4522C1.53948 26.4522 1.21424 26.2377 0.997409 25.9925C0.563753 25.5329 0.563753 25.5329 0.997409 25.0426C1.3877 24.583 1.3877 24.583 0.758898 24.7668L0.108414 24.9813L0.758898 24.2459C1.10582 23.8476 1.47443 23.5718 1.56116 23.6025C1.66958 23.6637 1.71294 23.5105 1.66958 23.296C1.64789 23.0815 1.86472 22.9283 2.25501 22.9283C2.60194 22.9283 2.92718 22.7445 2.97054 22.53C3.03559 22.2849 2.94886 22.2236 2.66698 22.3461C2.45016 22.4687 2.66698 22.0397 3.14401 21.4575C3.62103 20.8447 4.033 20.477 4.07636 20.6302C4.11973 20.7834 4.29319 20.814 4.46666 20.7221C4.96536 20.4463 4.81358 21.5495 4.24983 22.1929C3.77281 22.7445 3.36083 23.9702 3.64271 24.0314C5.07377 24.1847 7.15532 24.154 7.15532 23.9395C7.15532 23.8169 6.98186 23.725 6.78671 23.7557C6.56989 23.7863 5.83267 23.7557 5.13882 23.7557C3.94627 23.6944 3.9029 23.6637 4.11973 23.0815C4.24983 22.7445 4.44497 22.53 4.57507 22.6219C4.68348 22.7445 4.74853 22.6526 4.72685 22.4381C4.68348 22.2236 4.7919 22.0091 4.94368 21.9784C5.07377 21.9478 5.26892 21.8865 5.37733 21.8559C5.46406 21.8252 5.63753 21.7946 5.74594 21.8559C5.87604 21.8865 5.57248 21.3043 5.07377 20.5689C4.20646 19.282 4.18478 19.2513 4.59675 18.6998C5.00873 18.1482 5.03041 18.1482 5.13882 18.761C5.20387 19.1287 5.35565 19.3126 5.57248 19.19C5.74594 19.0981 6.24464 19.4964 6.78671 20.2012C7.28542 20.8753 7.50225 21.0592 7.26374 20.6608C7.02523 20.2625 6.87345 19.8641 6.89513 19.7416C7.09027 19.282 7.4372 18.7917 7.63234 18.7917C7.74076 18.7917 7.76244 18.9755 7.67571 19.1594C7.5673 19.4352 7.61066 19.4352 7.87085 19.1287C8.23946 18.7304 8.17441 18.1788 7.78412 18.1788C7.65403 18.1788 7.37215 18.4853 7.15532 18.853C6.93849 19.2513 6.6783 19.4658 6.59157 19.3432C6.50484 19.19 6.61325 18.7917 6.85176 18.4546L7.26374 17.7805L6.63493 18.3627L6.00613 18.9142L6.26633 18.2401C6.39642 17.8724 6.43979 17.566 6.35306 17.566C6.26633 17.566 6.33138 17.3822 6.50484 17.1677C6.96018 16.6467 7.89254 15.1147 7.78412 15.1147C7.71907 15.1147 7.15532 15.8807 6.50484 16.8Z" fill="#E4B94B"/>
<path d="M22.2682 19.0981C22.2031 19.4352 22.2899 19.9255 22.485 20.1706C22.962 20.8754 23.3306 20.7221 22.8753 20.0174C22.2682 19.0981 22.6802 18.8836 23.374 19.7722C23.6992 20.2012 24.1112 20.6302 24.2847 20.7221C24.4581 20.8141 24.328 20.906 23.9594 20.9366C23.5258 20.9979 23.4391 21.0592 23.6992 21.1511C23.9378 21.2431 24.328 21.5495 24.5666 21.8559C24.8268 22.1623 25.2821 22.7139 25.5856 23.0509C26.3229 23.8783 25.8675 23.8476 24.9568 22.9896C24.5449 22.6219 23.8944 22.0704 23.5475 21.764L22.8753 21.1818L23.5041 22.1317C23.8727 22.6526 24.4798 23.2348 24.8701 23.4493C25.2604 23.6638 25.5856 23.9089 25.5856 24.0315C25.5856 24.154 25.7808 24.1847 26.0193 24.0927C26.5831 23.8783 26.5614 23.6025 25.9326 22.8977C25.629 22.5913 25.4339 22.2849 25.4772 22.1623C25.5206 22.0704 25.4122 21.7333 25.2387 21.3963C25.0653 21.0898 24.9352 20.9979 24.9352 21.1818C24.9352 21.3963 24.8268 21.5495 24.6967 21.5495C24.5666 21.5495 24.5015 21.335 24.5666 21.0898C24.6533 20.8141 24.3497 20.2625 23.7643 19.5577C22.6802 18.3321 22.42 18.2401 22.2682 19.0981Z" fill="#E4B94B"/>
<path d="M20.1 21.9172C19.276 23.1122 18.734 23.9702 18.8424 23.8476C18.9725 23.7557 19.0809 23.7863 19.0809 23.9702C19.0809 24.3072 20.165 22.8977 20.165 22.53C20.165 22.4074 20.6204 21.8559 21.1408 21.2737C21.6828 20.7221 22.0514 20.1399 21.9864 19.9867C21.7912 19.5271 21.6395 19.711 20.1 21.9172Z" fill="#E4B94B"/>
<path d="M29.597 24.0008C31.1365 24.1846 31.2232 24.2153 30.2475 24.3072L29.1633 24.3991L30.1174 24.5217C30.6594 24.6136 31.2882 24.5217 31.5268 24.3378C31.787 24.154 32.4158 23.9701 32.9578 23.9089C33.4999 23.8476 32.5675 23.8169 30.898 23.8169C28.3611 23.8169 28.1442 23.8476 29.597 24.0008Z" fill="#E4B94B"/>
<path d="M17.1511 26.2683C16.3705 27.0956 15.7851 28.1068 15.9585 28.352C16.0019 28.4439 15.9152 28.689 15.72 28.9035C15.4598 29.2099 15.3948 29.1793 15.3948 28.7197C15.3948 28.2907 15.1996 28.4439 14.5492 29.4551C14.0938 30.1598 13.6602 30.742 13.6168 30.742C13.4 30.742 13.5951 29.4551 13.8987 28.9342C14.3974 28.0762 14.4191 27.4327 13.9204 28.0762C13.4433 28.689 12.5543 28.7809 12.6411 28.1988C12.6628 28.0149 12.576 27.8617 12.4676 27.8923C12.3375 27.923 12.034 27.5246 11.8171 27.0344C11.5786 26.5441 11.1883 26.1457 10.9498 26.1457C10.6029 26.1764 10.733 26.4522 11.5569 27.4633C12.511 28.689 12.923 29.5164 12.3158 29.0261C12.1641 28.9035 12.2508 29.1486 12.5327 29.5776C13.053 30.405 13.1615 30.8952 12.7495 30.5582C12.576 30.4356 12.5327 30.4662 12.6411 30.6195C12.7495 30.7727 12.9013 30.8952 12.9663 30.9259C13.053 30.9259 13.3132 31.0484 13.5301 31.2017C13.8553 31.3855 14.0938 31.2323 14.6142 30.405C14.9611 29.8228 15.3297 29.3631 15.4165 29.3631C15.5899 29.3631 17.9967 25.87 17.9967 25.6555C17.9967 25.441 17.8666 25.5329 17.1511 26.2683Z" fill="#E4B94B"/>
<path d="M27.2119 26.4215C27.5805 26.7586 28.4044 27.8004 29.0332 28.7196C29.6837 29.6389 30.2692 30.3437 30.3125 30.2824C30.4643 30.0985 28.5996 27.2182 28.3828 27.2795C28.296 27.3408 28.2527 27.1569 28.3177 26.9118C28.4044 26.6666 28.6213 26.4215 28.8164 26.4215C29.3151 26.3602 27.9925 25.9312 27.2119 25.8699L26.5614 25.8393L27.2119 26.4215Z" fill="#E4B94B"/>
<path d="M29.532 27.6472C29.8138 28.1068 30.0957 28.4745 30.1825 28.4132C30.2692 28.3213 30.4643 28.5664 30.6595 28.9341C30.8329 29.3018 31.0714 29.5163 31.1799 29.3938C31.2883 29.3018 31.5918 29.547 31.852 29.9147L32.3074 30.6194L31.3967 30.5275C30.6595 30.4662 30.5511 30.5275 30.8546 30.7726C31.0498 30.9259 31.31 31.0178 31.3967 30.9259C31.4834 30.8646 31.7002 30.9259 31.8737 31.1097C32.1339 31.3548 32.1122 31.3548 31.7653 31.2016C31.4617 31.0791 31.3967 31.1097 31.5702 31.3548C31.852 31.7532 32.5242 31.4468 32.5242 30.9259C32.5242 30.742 32.9145 30.0372 33.3915 29.3631C34.2805 28.0762 34.6057 27.1875 33.7818 28.2907C33.1313 29.1486 32.7627 29.0567 33.3481 28.1987C33.6083 27.8004 33.7601 27.3714 33.6734 27.2488C33.5867 27.1263 33.153 27.6165 32.7193 28.3519L31.9171 29.6695L31.0714 28.7196C30.6161 28.1987 30.074 27.7085 29.8789 27.5859C29.6621 27.494 29.4886 27.2488 29.4886 27.065C29.4886 26.9118 29.3802 26.7586 29.2501 26.7586C29.12 26.7586 29.2501 27.1569 29.532 27.6472Z" fill="#E4B94B"/>
<path d="M30.486 31.6306C30.2909 31.937 30.1391 32.366 30.1824 32.5805C30.2258 32.795 30.1174 33.0402 29.9439 33.1321C29.7705 33.1934 29.7054 33.1321 29.7922 32.9482C30.009 32.4273 29.5536 32.2435 29.2718 32.7337C29.0549 33.1014 29.0766 33.1934 29.3585 33.1934C29.7922 33.1934 29.8138 33.9288 29.3802 34.419C29.0549 34.7867 28.9465 34.5416 29.0333 33.7143C29.0766 33.3772 28.8381 33.4691 28.4912 33.9288C28.1009 34.511 28.1009 34.848 28.5346 34.6029C28.708 34.511 28.7947 34.5416 28.7297 34.7255C28.6646 34.9093 28.7731 35.0319 28.9899 35.0319C29.3802 35.0319 31.44 32.2435 31.44 31.6919C31.44 31.1404 30.8329 31.1097 30.486 31.6306Z" fill="#E4B94B"/>
<path d="M28.8598 30.1147C28.643 30.2985 28.643 30.4824 28.8164 31.0033C28.9682 31.3403 29.12 31.6467 29.185 31.6467C29.2501 31.6467 29.2284 31.4935 29.1634 31.3403C28.9032 30.7581 29.4235 31.0339 29.8355 31.708C30.1174 32.1983 30.1391 32.2902 29.8789 32.0144C29.6187 31.708 29.4886 31.708 29.3585 31.9838C29.2718 32.1983 29.2934 32.2902 29.4019 32.1983C29.5103 32.1064 29.9439 32.566 30.3993 33.2095C30.8329 33.8836 31.1148 34.4045 31.0498 34.4045C30.9847 34.4045 31.2883 34.9561 31.7653 35.6302C32.329 36.4269 32.676 36.7333 32.8494 36.5494C33.1313 36.243 33.63 36.6414 35.3429 38.6331C35.9501 39.3379 36.5572 39.8588 36.6656 39.7362C36.774 39.6443 36.8607 39.7362 36.8607 39.9201C36.8607 40.1652 36.7306 40.1958 36.4921 40.0426C36.0585 39.7975 35.7116 39.7975 34.3239 40.1039C33.8035 40.1958 33.3915 40.4103 33.3915 40.5635C33.3915 40.6861 33.2614 40.7474 33.1313 40.6861C32.8061 40.5329 30.074 40.2571 28.5129 40.2265C27.6889 40.2265 27.5155 40.1345 27.754 39.8894C27.9925 39.6749 27.819 39.6136 27.1035 39.7056C26.5614 39.7975 25.9109 39.9201 25.6507 40.012C25.3255 40.1345 25.2171 40.0733 25.2821 39.7975C25.5206 38.9089 19.341 38.9702 18.5605 39.8894C18.0184 40.5329 18.1485 40.7474 19.1893 40.778C19.7964 40.8393 20.165 40.7167 20.165 40.5023C20.165 40.2878 20.2734 40.2571 20.4469 40.441C20.6637 40.6555 21.8563 40.7167 22.9404 40.5635C23.0705 40.5635 23.2006 40.3184 23.2006 40.0733C23.2006 39.8281 23.2873 39.6136 23.3957 39.6136C23.5041 39.6136 23.5475 39.8588 23.5041 40.1345C23.4174 40.5635 23.5475 40.6861 24.1546 40.7474C24.7834 40.778 24.8918 40.6861 24.7834 40.2878C24.6967 39.8894 24.7184 39.8894 24.9786 40.349C25.2388 40.8393 25.4556 40.9006 26.1494 40.7167C27.2336 40.4103 27.2119 40.4103 28.6213 40.7167C29.2718 40.87 30.7679 40.9925 31.9171 40.9925C33.8902 40.9925 34.0203 41.0232 33.9119 41.5747C33.7167 42.4633 34.3239 42.0037 34.6708 41.0232C34.931 40.2571 35.0394 40.1652 35.7549 40.349C36.1886 40.441 37.7497 40.5635 39.2458 40.6248C40.742 40.6861 41.6093 40.6555 41.1973 40.5942C40.7853 40.5329 40.3517 40.3797 40.2649 40.2265C40.0698 39.9813 42.3248 40.0733 43.8426 40.3797C44.5581 40.5329 44.6449 40.4716 44.8617 39.5524C44.9918 39.0314 45.0352 38.5105 44.9701 38.4186C44.8834 38.3267 44.775 38.388 44.7316 38.6025C44.6665 38.8782 44.0377 38.9089 42.3682 38.7863C41.0889 38.6944 40.1132 38.725 40.1132 38.8782C40.1132 39.0314 40.5902 39.0927 41.1973 39.0621C41.8695 38.9702 42.2814 39.0621 42.2814 39.2766C42.2814 39.6443 38.8989 39.6443 38.2701 39.2459C37.9666 39.0621 38.0967 39.0314 38.7471 39.1234C39.2675 39.1846 39.7446 39.1234 39.8096 38.9702C39.8747 38.8169 39.3109 38.6944 38.552 38.6944C37.598 38.6944 37.2727 38.7863 37.5112 39.0008C37.7497 39.2153 37.6413 39.3072 37.0776 39.2766C36.4488 39.2766 36.4054 39.2153 36.7523 39.0008C37.1209 38.7863 37.0993 38.725 36.5572 38.725C36.1452 38.6944 35.5598 38.2654 34.8876 37.4687C34.3239 36.7946 33.7384 36.243 33.5866 36.243C33.4349 36.243 33.3915 36.1511 33.4565 36.0285C33.6517 35.7528 32.5242 34.0981 32.1556 34.0981C31.9821 34.0981 31.9171 33.9449 32.0038 33.7304C32.0905 33.5465 32.0688 33.4853 31.9387 33.5772C31.8087 33.6998 31.6569 33.4853 31.5918 33.1482C31.5268 32.7499 31.375 32.5966 31.2232 32.7192C31.0498 32.8724 31.2015 33.3014 31.7002 34.0368C32.0905 34.6497 32.2423 34.9561 32.0472 34.7416C31.852 34.5271 31.5485 34.4658 31.4184 34.5884C31.2666 34.7109 31.2232 34.6803 31.3099 34.4658C31.375 34.3126 31.1798 33.7304 30.8763 33.2095C30.5727 32.6886 30.4426 32.2596 30.5944 32.2596C30.7245 32.2596 30.551 31.8612 30.1824 31.371C29.8355 30.8807 29.5753 30.3904 29.6187 30.3291C29.8138 30.0534 29.12 29.8695 28.8598 30.1147ZM33.153 35.4157C33.3481 35.7528 33.2614 35.8447 32.741 35.8753C32.3941 35.8753 32.0255 35.7528 31.9604 35.5689C31.852 35.3544 31.9604 35.2931 32.264 35.3851C32.5242 35.5076 32.741 35.4463 32.741 35.2931C32.741 34.8948 32.8711 34.9561 33.153 35.4157ZM44.5581 39.6136C44.6449 39.7975 44.2546 39.9201 43.539 39.8894C42.4766 39.8281 42.4549 39.8281 43.1488 39.6136C44.2763 39.2766 44.4064 39.2766 44.5581 39.6136Z" fill="#E4B94B"/>
<path d="M6.50484 31.8C5.68089 32.9643 5.26892 33.3627 5.07377 33.1788C4.90031 32.9643 4.74853 33.0256 4.55339 33.3321C4.40161 33.5772 4.11973 33.7917 3.94627 33.7917C3.62103 33.7917 3.62103 33.8223 3.94627 34.282C4.27151 34.7416 4.18478 34.8948 3.05727 36.1817C0.628801 38.9702 0 39.7362 0 39.9507C0 40.441 2.47184 42.923 2.7754 42.7391C2.99223 42.6472 3.05727 42.7085 2.94886 42.923C2.86213 43.1375 2.90549 43.2907 3.03559 43.2907C3.16569 43.2907 3.23074 43.4132 3.16569 43.5358C3.10064 43.689 3.49093 44.1793 4.01132 44.6389C4.5317 45.0985 5.1605 45.8339 5.44238 46.2323C5.94109 46.9983 6.43979 47.2435 6.15791 46.6C6.0495 46.3855 6.09286 46.3549 6.26633 46.4774C6.41811 46.6306 6.48316 46.8145 6.41811 46.9064C6.24464 47.1209 7.15532 48.4998 7.45888 48.4998C7.58898 48.4998 7.82749 48.7756 7.97927 49.1126C8.13105 49.4497 8.45629 49.7255 8.6948 49.7255C9.06341 49.7255 9.10677 49.6335 8.91163 49.3271C8.78153 49.082 8.73817 48.8062 8.8249 48.7143C8.88995 48.5917 8.84658 48.4998 8.71648 48.4998C8.5647 48.4998 8.45629 48.653 8.45629 48.8368C8.45629 49.082 8.34788 49.082 8.13105 48.8062C7.74076 48.3466 7.69739 47.7337 8.066 48.0708C8.21778 48.1934 8.23946 48.1627 8.15273 47.9482C7.89254 47.3354 8.30451 47.5499 8.99836 48.3772C9.4537 48.8981 9.51875 49.082 9.21519 48.9288C8.75985 48.6836 8.75985 48.7449 9.41033 49.419C9.64884 49.6642 9.77894 49.7255 9.71389 49.5723C9.62716 49.3884 9.75726 49.082 9.99577 48.8675C10.2343 48.653 10.4077 48.6224 10.4077 48.8062C10.4077 48.9594 10.321 49.1126 10.2343 49.1126C10.1259 49.1126 10.0391 49.3271 10.0391 49.5723C10.0391 49.8174 10.1042 50.0319 10.1909 50.0319C10.3644 50.0319 10.8414 49.3578 10.8414 49.1126C10.8414 48.8675 4.64012 42.0037 4.46666 42.0343C4.40161 42.065 4.1631 41.8199 3.94627 41.5134C3.59934 41.0232 3.62103 40.9925 4.6618 40.8087C5.24724 40.7167 5.94109 40.5329 6.15791 40.3797C6.43979 40.1958 6.52652 40.2265 6.43979 40.441C6.33138 40.6861 7.63234 40.7474 10.8848 40.6861C13.4216 40.6248 15.6767 40.5329 15.8718 40.4716C16.0886 40.4103 16.4789 40.0426 16.7608 39.6749C17.0427 39.3072 17.3462 39.0621 17.4113 39.154C17.498 39.2459 17.5197 39.2153 17.4763 39.1234C17.4113 39.0314 17.7582 38.388 18.2352 37.7138C18.6906 37.0397 19.0809 36.3962 19.0809 36.2737C19.0809 36.1511 19.2977 35.7834 19.5362 35.4463C19.8831 35.0174 20.0349 34.9561 20.0999 35.2625C20.1867 35.5689 20.2734 35.5689 20.5119 35.2931C20.6854 35.1093 20.7504 34.8029 20.6637 34.5884C20.5987 34.4045 20.6203 34.3432 20.7071 34.4964C20.8155 34.619 21.1624 34.3432 21.4876 33.9142C21.943 33.3014 22.0297 33.0256 21.8346 32.7499C21.6611 32.4741 20.9889 33.2401 19.0592 36.0285C17.5631 38.2041 16.4789 39.5524 16.3922 39.3379C16.1537 38.8169 10.1692 38.8782 9.64884 39.4298C9.30192 39.7668 9.62716 39.8281 11.8605 39.6749C14.6142 39.5217 16.1103 39.7668 15.2864 40.2265C14.6793 40.5942 14.354 40.5942 14.7443 40.2265C14.9611 40.012 14.0071 39.9201 11.7087 39.9201C9.86567 39.9507 7.78412 39.9201 7.09027 39.8894C6.35306 39.8281 5.74594 39.9507 5.59416 40.1652C5.22555 40.6861 4.74853 40.6248 4.90031 40.1039C5.05209 39.5217 4.55339 39.1234 4.33656 39.6443C4.22814 39.8588 4.20646 40.1652 4.24983 40.2878C4.31488 40.4103 4.05468 40.5329 3.70776 40.5329C2.81876 40.5329 2.86213 40.87 3.92459 42.0956C5.37733 43.7503 6.50484 44.884 6.50484 44.6695C6.50484 44.5776 7.28542 45.3437 8.23946 46.3855C9.1935 47.4273 9.97408 48.3159 9.97408 48.3772C9.97408 48.7143 9.49706 48.3772 8.60807 47.4273C7.5673 46.2936 6.72167 45.8952 7.61066 46.9677C8.52134 48.0095 7.69739 47.6112 6.63493 46.4774C6.09286 45.8952 5.5508 45.4662 5.44238 45.5582C5.33397 45.6501 5.20387 45.4356 5.13882 45.0985C5.07377 44.7308 4.90031 44.5163 4.72685 44.6083C4.33656 44.7921 3.55598 44.2099 3.85954 43.9341C4.01132 43.8116 3.77281 43.2907 3.25242 42.5859C2.7754 41.9424 2.40679 41.5441 2.42847 41.6666C2.49352 41.9118 2.32006 42.065 1.92977 42.065C1.82135 42.065 1.77799 41.9118 1.84304 41.7586C1.90809 41.5747 1.84304 41.4522 1.69126 41.4522C1.53948 41.4522 1.21424 41.2377 0.997409 40.9925C0.563753 40.5329 0.563753 40.5329 0.997409 40.0426C1.3877 39.583 1.3877 39.583 0.758898 39.7668L0.108414 39.9813L0.758898 39.2459C1.10582 38.8476 1.47443 38.5718 1.56116 38.6025C1.66958 38.6637 1.71294 38.5105 1.66958 38.296C1.64789 38.0815 1.86472 37.9283 2.25501 37.9283C2.60194 37.9283 2.92718 37.7445 2.97054 37.53C3.03559 37.2849 2.94886 37.2236 2.66698 37.3461C2.45016 37.4687 2.66698 37.0397 3.14401 36.4575C3.62103 35.8447 4.033 35.477 4.07636 35.6302C4.11973 35.7834 4.29319 35.814 4.46666 35.7221C4.96536 35.4463 4.81358 36.5494 4.24983 37.1929C3.77281 37.7445 3.36083 38.9702 3.64271 39.0314C5.07377 39.1847 7.15532 39.154 7.15532 38.9395C7.15532 38.8169 6.98186 38.725 6.78671 38.7557C6.56989 38.7863 5.83267 38.7557 5.13882 38.7557C3.94627 38.6944 3.9029 38.6637 4.11973 38.0815C4.24983 37.7445 4.44497 37.53 4.57507 37.6219C4.68348 37.7445 4.74853 37.6526 4.72685 37.4381C4.68348 37.2236 4.7919 37.0091 4.94368 36.9784C5.07377 36.9478 5.26892 36.8865 5.37733 36.8559C5.46406 36.8252 5.63753 36.7946 5.74594 36.8559C5.87604 36.8865 5.57248 36.3043 5.07377 35.5689C4.20646 34.2819 4.18478 34.2513 4.59675 33.6998C5.00873 33.1482 5.03041 33.1482 5.13882 33.761C5.20387 34.1287 5.35565 34.3126 5.57248 34.19C5.74594 34.0981 6.24464 34.4964 6.78671 35.2012C7.28542 35.8753 7.50225 36.0592 7.26374 35.6608C7.02523 35.2625 6.87345 34.8641 6.89513 34.7416C7.09027 34.2819 7.4372 33.7917 7.63234 33.7917C7.74076 33.7917 7.76244 33.9755 7.67571 34.1594C7.5673 34.4352 7.61066 34.4352 7.87085 34.1287C8.23946 33.7304 8.17441 33.1788 7.78412 33.1788C7.65403 33.1788 7.37215 33.4853 7.15532 33.853C6.93849 34.2513 6.6783 34.4658 6.59157 34.3432C6.50484 34.19 6.61325 33.7917 6.85176 33.4546L7.26374 32.7805L6.63493 33.3627L6.00613 33.9142L6.26633 33.2401C6.39642 32.8724 6.43979 32.566 6.35306 32.566C6.26633 32.566 6.33138 32.3822 6.50484 32.1677C6.96018 31.6467 7.89254 30.1147 7.78412 30.1147C7.71907 30.1147 7.15532 30.8807 6.50484 31.8Z" fill="#E4B94B"/>
<path d="M22.2682 34.0981C22.2031 34.4352 22.2899 34.9255 22.485 35.1706C22.962 35.8753 23.3306 35.7221 22.8753 35.0174C22.2682 34.0981 22.6802 33.8836 23.374 34.7722C23.6992 35.2012 24.1112 35.6302 24.2847 35.7221C24.4581 35.8141 24.328 35.906 23.9594 35.9366C23.5258 35.9979 23.4391 36.0592 23.6992 36.1511C23.9378 36.2431 24.328 36.5495 24.5666 36.8559C24.8268 37.1623 25.2821 37.7139 25.5856 38.0509C26.3229 38.8783 25.8675 38.8476 24.9568 37.9896C24.5449 37.6219 23.8944 37.0704 23.5475 36.764L22.8753 36.1818L23.5041 37.1317C23.8727 37.6526 24.4798 38.2348 24.8701 38.4493C25.2604 38.6638 25.5856 38.9089 25.5856 39.0315C25.5856 39.154 25.7808 39.1847 26.0193 39.0927C26.5831 38.8783 26.5614 38.6025 25.9326 37.8977C25.629 37.5913 25.4339 37.2849 25.4772 37.1623C25.5206 37.0704 25.4122 36.7333 25.2387 36.3963C25.0653 36.0898 24.9352 35.9979 24.9352 36.1818C24.9352 36.3963 24.8268 36.5495 24.6967 36.5495C24.5666 36.5495 24.5015 36.335 24.5666 36.0898C24.6533 35.8141 24.3497 35.2625 23.7643 34.5578C22.6802 33.3321 22.42 33.2401 22.2682 34.0981Z" fill="#E4B94B"/>
<path d="M20.1 36.9172C19.276 38.1122 18.734 38.9702 18.8424 38.8476C18.9725 38.7557 19.0809 38.7863 19.0809 38.9702C19.0809 39.3072 20.165 37.8977 20.165 37.53C20.165 37.4074 20.6204 36.8559 21.1408 36.2737C21.6828 35.7221 22.0514 35.1399 21.9864 34.9867C21.7912 34.5271 21.6395 34.711 20.1 36.9172Z" fill="#E4B94B"/>
<path d="M29.597 39.0008C31.1365 39.1846 31.2232 39.2153 30.2475 39.3072L29.1633 39.3991L30.1174 39.5217C30.6594 39.6136 31.2882 39.5217 31.5268 39.3378C31.787 39.154 32.4158 38.9701 32.9578 38.9089C33.4999 38.8476 32.5675 38.8169 30.898 38.8169C28.3611 38.8169 28.1442 38.8476 29.597 39.0008Z" fill="#E4B94B"/>
<path d="M17.1511 41.2683C16.3705 42.0956 15.7851 43.1068 15.9585 43.352C16.0019 43.4439 15.9152 43.689 15.72 43.9035C15.4598 44.2099 15.3948 44.1793 15.3948 43.7197C15.3948 43.2907 15.1996 43.4439 14.5492 44.4551C14.0938 45.1598 13.6602 45.742 13.6168 45.742C13.4 45.742 13.5951 44.4551 13.8987 43.9342C14.3974 43.0762 14.4191 42.4327 13.9204 43.0762C13.4433 43.689 12.5543 43.7809 12.6411 43.1987C12.6628 43.0149 12.576 42.8617 12.4676 42.8923C12.3375 42.923 12.034 42.5246 11.8171 42.0344C11.5786 41.5441 11.1883 41.1457 10.9498 41.1457C10.6029 41.1764 10.733 41.4522 11.5569 42.4633C12.511 43.689 12.923 44.5164 12.3158 44.0261C12.1641 43.9035 12.2508 44.1487 12.5327 44.5776C13.053 45.405 13.1615 45.8952 12.7495 45.5582C12.576 45.4356 12.5327 45.4663 12.6411 45.6195C12.7495 45.7727 12.9013 45.8952 12.9663 45.9259C13.053 45.9259 13.3132 46.0484 13.5301 46.2017C13.8553 46.3855 14.0938 46.2323 14.6142 45.405C14.9611 44.8228 15.3297 44.3631 15.4165 44.3631C15.5899 44.3631 17.9967 40.87 17.9967 40.6555C17.9967 40.441 17.8666 40.5329 17.1511 41.2683Z" fill="#E4B94B"/>
<path d="M27.2119 41.4215C27.5805 41.7586 28.4044 42.8004 29.0332 43.7196C29.6837 44.6389 30.2692 45.3437 30.3125 45.2824C30.4643 45.0985 28.5996 42.2182 28.3828 42.2795C28.296 42.3408 28.2527 42.1569 28.3177 41.9118C28.4044 41.6666 28.6213 41.4215 28.8164 41.4215C29.3151 41.3602 27.9925 40.9312 27.2119 40.8699L26.5614 40.8393L27.2119 41.4215Z" fill="#E4B94B"/>
<path d="M29.532 42.6472C29.8138 43.1068 30.0957 43.4745 30.1825 43.4132C30.2692 43.3213 30.4643 43.5664 30.6595 43.9341C30.8329 44.3018 31.0714 44.5163 31.1799 44.3938C31.2883 44.3018 31.5918 44.547 31.852 44.9147L32.3074 45.6194L31.3967 45.5275C30.6595 45.4662 30.5511 45.5275 30.8546 45.7726C31.0498 45.9259 31.31 46.0178 31.3967 45.9259C31.4834 45.8646 31.7002 45.9259 31.8737 46.1097C32.1339 46.3548 32.1122 46.3548 31.7653 46.2016C31.4617 46.0791 31.3967 46.1097 31.5702 46.3548C31.852 46.7532 32.5242 46.4468 32.5242 45.9259C32.5242 45.742 32.9145 45.0372 33.3915 44.3631C34.2805 43.0762 34.6057 42.1875 33.7818 43.2907C33.1313 44.1486 32.7627 44.0567 33.3481 43.1987C33.6083 42.8004 33.7601 42.3714 33.6734 42.2488C33.5867 42.1263 33.153 42.6165 32.7193 43.3519L31.9171 44.6695L31.0714 43.7196C30.6161 43.1987 30.074 42.7085 29.8789 42.5859C29.6621 42.494 29.4886 42.2488 29.4886 42.065C29.4886 41.9118 29.3802 41.7586 29.2501 41.7586C29.12 41.7586 29.2501 42.1569 29.532 42.6472Z" fill="#E4B94B"/>
<path d="M30.486 46.6306C30.2909 46.937 30.1391 47.366 30.1824 47.5805C30.2258 47.795 30.1174 48.0402 29.9439 48.1321C29.7705 48.1934 29.7054 48.1321 29.7922 47.9482C30.009 47.4273 29.5536 47.2435 29.2718 47.7337C29.0549 48.1014 29.0766 48.1934 29.3585 48.1934C29.7922 48.1934 29.8138 48.9288 29.3802 49.419C29.0549 49.7867 28.9465 49.5416 29.0333 48.7143C29.0766 48.3772 28.8381 48.4691 28.4912 48.9288C28.1009 49.511 28.1009 49.848 28.5346 49.6029C28.708 49.511 28.7947 49.5416 28.7297 49.7255C28.6646 49.9093 28.7731 50.0319 28.9899 50.0319C29.3802 50.0319 31.44 47.2435 31.44 46.6919C31.44 46.1404 30.8329 46.1097 30.486 46.6306Z" fill="#E4B94B"/>
<path d="M28.8598 0.114651C28.643 0.298502 28.643 0.482353 28.8164 1.00327C28.9682 1.34033 29.12 1.64674 29.185 1.64674C29.2501 1.64674 29.2284 1.49354 29.1634 1.34033C28.9032 0.75813 29.4235 1.03391 29.8355 1.70803C30.1174 2.1983 30.1391 2.29023 29.8789 2.01445C29.6187 1.70803 29.4886 1.70803 29.3585 1.98381C29.2718 2.1983 29.2934 2.29023 29.4019 2.1983C29.5103 2.10637 29.9439 2.566 30.3993 3.20948C30.8329 3.8836 31.1148 4.40451 31.0498 4.40451C30.9847 4.40451 31.2883 4.95607 31.7653 5.63019C32.329 6.42688 32.676 6.7333 32.8494 6.54945C33.1313 6.24303 33.63 6.64137 35.3429 8.63309C35.9501 9.33786 36.5572 9.85877 36.6656 9.7362C36.774 9.64428 36.8607 9.7362 36.8607 9.92005C36.8607 10.1652 36.7306 10.1958 36.4921 10.0426C36.0585 9.79749 35.7116 9.79749 34.3239 10.1039C33.8035 10.1958 33.3915 10.4103 33.3915 10.5635C33.3915 10.6861 33.2614 10.7474 33.1313 10.6861C32.8061 10.5329 30.074 10.2571 28.5129 10.2265C27.6889 10.2265 27.5155 10.1345 27.754 9.88941C27.9925 9.67492 27.819 9.61364 27.1035 9.70556C26.5614 9.79749 25.9109 9.92005 25.6507 10.012C25.3255 10.1345 25.2171 10.0733 25.2821 9.79749C25.5206 8.90887 19.341 8.97016 18.5605 9.88941C18.0184 10.5329 18.1485 10.7474 19.1893 10.778C19.7964 10.8393 20.165 10.7167 20.165 10.5022C20.165 10.2878 20.2734 10.2571 20.4469 10.441C20.6637 10.6555 21.8563 10.7167 22.9404 10.5635C23.0705 10.5635 23.2006 10.3184 23.2006 10.0733C23.2006 9.82813 23.2873 9.61364 23.3957 9.61364C23.5041 9.61364 23.5475 9.85877 23.5041 10.1345C23.4174 10.5635 23.5475 10.6861 24.1546 10.7474C24.7834 10.778 24.8918 10.6861 24.7834 10.2878C24.6967 9.88941 24.7184 9.88941 24.9786 10.349C25.2388 10.8393 25.4556 10.9006 26.1494 10.7167C27.2336 10.4103 27.2119 10.4103 28.6213 10.7167C29.2718 10.87 30.7679 10.9925 31.9171 10.9925C33.8902 10.9925 34.0203 11.0232 33.9119 11.5747C33.7167 12.4633 34.3239 12.0037 34.6708 11.0232C34.931 10.2571 35.0394 10.1652 35.7549 10.349C36.1886 10.441 37.7497 10.5635 39.2458 10.6248C40.742 10.6861 41.6093 10.6555 41.1973 10.5942C40.7853 10.5329 40.3517 10.3797 40.2649 10.2265C40.0698 9.98134 42.3248 10.0733 43.8426 10.3797C44.5581 10.5329 44.6449 10.4716 44.8617 9.55235C44.9918 9.03144 45.0352 8.51053 44.9701 8.4186C44.8834 8.32668 44.775 8.38796 44.7316 8.60245C44.6665 8.87823 44.0377 8.90887 42.3682 8.7863C41.0889 8.69438 40.1132 8.72502 40.1132 8.87823C40.1132 9.03144 40.5902 9.09272 41.1973 9.06208C41.8695 8.97016 42.2814 9.06208 42.2814 9.27657C42.2814 9.64428 38.8989 9.64428 38.2701 9.24593C37.9666 9.06208 38.0967 9.03144 38.7471 9.12337C39.2675 9.18465 39.7446 9.12337 39.8096 8.97016C39.8747 8.81695 39.3109 8.69438 38.552 8.69438C37.598 8.69438 37.2727 8.7863 37.5112 9.0008C37.7497 9.21529 37.6413 9.30722 37.0776 9.27657C36.4488 9.27657 36.4054 9.21529 36.7523 9.0008C37.1209 8.7863 37.0993 8.72502 36.5572 8.72502C36.1452 8.69438 35.5598 8.26539 34.8876 7.4687C34.3239 6.79458 33.7384 6.24303 33.5866 6.24303C33.4349 6.24303 33.3915 6.1511 33.4565 6.02853C33.6517 5.75276 32.5242 4.0981 32.1556 4.0981C31.9821 4.0981 31.9171 3.94489 32.0038 3.73039C32.0905 3.54654 32.0688 3.48526 31.9387 3.57718C31.8087 3.69975 31.6569 3.48526 31.5918 3.1482C31.5268 2.74985 31.375 2.59664 31.2232 2.71921C31.0498 2.87242 31.2015 3.30141 31.7002 4.03681C32.0905 4.64965 32.2423 4.95607 32.0472 4.74158C31.852 4.52708 31.5485 4.4658 31.4184 4.58837C31.2666 4.71093 31.2232 4.68029 31.3099 4.4658C31.375 4.31259 31.1798 3.73039 30.8763 3.20948C30.5727 2.68857 30.4426 2.25958 30.5944 2.25958C30.7245 2.25958 30.551 1.86124 30.1824 1.37097C29.8355 0.880698 29.5753 0.390428 29.6187 0.329144C29.8138 0.0533676 29.12 -0.130485 28.8598 0.114651ZM33.153 5.4157C33.3481 5.75276 33.2614 5.84468 32.741 5.87533C32.3941 5.87533 32.0255 5.75276 31.9604 5.56891C31.852 5.35441 31.9604 5.29313 32.264 5.38506C32.5242 5.50762 32.741 5.44634 32.741 5.29313C32.741 4.89478 32.8711 4.95607 33.153 5.4157ZM44.5581 9.61364C44.6449 9.79749 44.2546 9.92005 43.539 9.88941C42.4766 9.82813 42.4549 9.82813 43.1488 9.61364C44.2763 9.27657 44.4064 9.27657 44.5581 9.61364Z" fill="#E4B94B"/>
<path d="M6.50484 1.79996C5.68089 2.96435 5.26892 3.36269 5.07377 3.17884C4.90031 2.96435 4.74853 3.02563 4.55339 3.33205C4.40161 3.57719 4.11973 3.79168 3.94627 3.79168C3.62103 3.79168 3.62103 3.82232 3.94627 4.28195C4.27151 4.74158 4.18478 4.89479 3.05727 6.18175C0.628801 8.97016 0 9.73621 0 9.9507C0 10.441 2.47184 12.923 2.7754 12.7391C2.99223 12.6472 3.05727 12.7085 2.94886 12.923C2.86213 13.1375 2.90549 13.2907 3.03559 13.2907C3.16569 13.2907 3.23074 13.4132 3.16569 13.5358C3.10064 13.689 3.49093 14.1793 4.01132 14.6389C4.5317 15.0985 5.1605 15.8339 5.44238 16.2323C5.94109 16.9983 6.43979 17.2435 6.15791 16.6C6.0495 16.3855 6.09286 16.3549 6.26633 16.4774C6.41811 16.6306 6.48316 16.8145 6.41811 16.9064C6.24464 17.1209 7.15532 18.4998 7.45888 18.4998C7.58898 18.4998 7.82749 18.7756 7.97927 19.1126C8.13105 19.4497 8.45629 19.7255 8.6948 19.7255C9.06341 19.7255 9.10677 19.6335 8.91163 19.3271C8.78153 19.082 8.73817 18.8062 8.8249 18.7143C8.88995 18.5917 8.84658 18.4998 8.71648 18.4998C8.5647 18.4998 8.45629 18.653 8.45629 18.8368C8.45629 19.082 8.34788 19.082 8.13105 18.8062C7.74076 18.3466 7.69739 17.7337 8.066 18.0708C8.21778 18.1934 8.23946 18.1627 8.15273 17.9482C7.89254 17.3354 8.30451 17.5499 8.99836 18.3772C9.4537 18.8981 9.51875 19.082 9.21519 18.9288C8.75985 18.6836 8.75985 18.7449 9.41033 19.419C9.64884 19.6642 9.77894 19.7255 9.71389 19.5723C9.62716 19.3884 9.75726 19.082 9.99577 18.8675C10.2343 18.653 10.4077 18.6224 10.4077 18.8062C10.4077 18.9594 10.321 19.1126 10.2343 19.1126C10.1259 19.1126 10.0391 19.3271 10.0391 19.5723C10.0391 19.8174 10.1042 20.0319 10.1909 20.0319C10.3644 20.0319 10.8414 19.3578 10.8414 19.1126C10.8414 18.8675 4.64012 12.0037 4.46666 12.0343C4.40161 12.065 4.1631 11.8199 3.94627 11.5134C3.59934 11.0232 3.62103 10.9925 4.6618 10.8087C5.24724 10.7167 5.94109 10.5329 6.15791 10.3797C6.43979 10.1958 6.52652 10.2265 6.43979 10.441C6.33138 10.6861 7.63234 10.7474 10.8848 10.6861C13.4216 10.6248 15.6767 10.5329 15.8718 10.4716C16.0886 10.4103 16.4789 10.0426 16.7608 9.67492C17.0427 9.30722 17.3462 9.06209 17.4113 9.15401C17.498 9.24594 17.5197 9.21529 17.4763 9.12337C17.4113 9.03144 17.7582 8.38796 18.2352 7.71384C18.6906 7.03972 19.0809 6.39624 19.0809 6.27367C19.0809 6.15111 19.2977 5.7834 19.5362 5.44634C19.8831 5.01736 20.0349 4.95607 20.0999 5.26249C20.1867 5.56891 20.2734 5.56891 20.5119 5.29313C20.6854 5.10928 20.7504 4.80286 20.6637 4.58837C20.5987 4.40452 20.6203 4.34324 20.7071 4.49644C20.8155 4.61901 21.1624 4.34324 21.4876 3.91425C21.943 3.30141 22.0297 3.02563 21.8346 2.74986C21.6611 2.47408 20.9889 3.24013 19.0592 6.02854C17.5631 8.20411 16.4789 9.55235 16.3922 9.33786C16.1537 8.81695 10.1692 8.87823 9.64884 9.42979C9.30192 9.76685 9.62716 9.82813 11.8605 9.67492C14.6142 9.52171 16.1103 9.76685 15.2864 10.2265C14.6793 10.5942 14.354 10.5942 14.7443 10.2265C14.9611 10.012 14.0071 9.92006 11.7087 9.92006C9.86567 9.9507 7.78412 9.92006 7.09027 9.88942C6.35306 9.82813 5.74594 9.9507 5.59416 10.1652C5.22555 10.6861 4.74853 10.6248 4.90031 10.1039C5.05209 9.52171 4.55339 9.12337 4.33656 9.64428C4.22814 9.85877 4.20646 10.1652 4.24983 10.2878C4.31488 10.4103 4.05468 10.5329 3.70776 10.5329C2.81876 10.5329 2.86213 10.87 3.92459 12.0956C5.37733 13.7503 6.50484 14.884 6.50484 14.6695C6.50484 14.5776 7.28542 15.3437 8.23946 16.3855C9.1935 17.4273 9.97408 18.3159 9.97408 18.3772C9.97408 18.7143 9.49706 18.3772 8.60807 17.4273C7.5673 16.2936 6.72167 15.8952 7.61066 16.9677C8.52134 18.0095 7.69739 17.6112 6.63493 16.4774C6.09286 15.8952 5.5508 15.4662 5.44238 15.5582C5.33397 15.6501 5.20387 15.4356 5.13882 15.0985C5.07377 14.7308 4.90031 14.5163 4.72685 14.6083C4.33656 14.7921 3.55598 14.2099 3.85954 13.9341C4.01132 13.8116 3.77281 13.2907 3.25242 12.5859C2.7754 11.9424 2.40679 11.5441 2.42847 11.6666C2.49352 11.9118 2.32006 12.065 1.92977 12.065C1.82135 12.065 1.77799 11.9118 1.84304 11.7586C1.90809 11.5747 1.84304 11.4522 1.69126 11.4522C1.53948 11.4522 1.21424 11.2377 0.997409 10.9925C0.563753 10.5329 0.563753 10.5329 0.997409 10.0426C1.3877 9.583 1.3877 9.583 0.758898 9.76685L0.108414 9.98134L0.758898 9.24594C1.10582 8.84759 1.47443 8.57181 1.56116 8.60246C1.66958 8.66374 1.71294 8.51053 1.66958 8.29604C1.64789 8.08154 1.86472 7.92834 2.25501 7.92834C2.60194 7.92834 2.92718 7.74448 2.97054 7.52999C3.03559 7.28486 2.94886 7.22357 2.66698 7.34614C2.45016 7.46871 2.66698 7.03972 3.14401 6.45753C3.62103 5.84469 4.033 5.47698 4.07636 5.63019C4.11973 5.7834 4.29319 5.81404 4.46666 5.72212C4.96536 5.44634 4.81358 6.54945 4.24983 7.19293C3.77281 7.74448 3.36083 8.97016 3.64271 9.03144C5.07377 9.18465 7.15532 9.15401 7.15532 8.93952C7.15532 8.81695 6.98186 8.72502 6.78671 8.75567C6.56989 8.78631 5.83267 8.75567 5.13882 8.75567C3.94627 8.69438 3.9029 8.66374 4.11973 8.08154C4.24983 7.74448 4.44497 7.52999 4.57507 7.62192C4.68348 7.74448 4.74853 7.65256 4.72685 7.43807C4.68348 7.22357 4.7919 7.00908 4.94368 6.97844C5.07377 6.94779 5.26892 6.88651 5.37733 6.85587C5.46406 6.82523 5.63753 6.79459 5.74594 6.85587C5.87604 6.88651 5.57248 6.30432 5.07377 5.56891C4.20646 4.28195 4.18478 4.25131 4.59675 3.69975C5.00873 3.1482 5.03041 3.1482 5.13882 3.76104C5.20387 4.12874 5.35565 4.31259 5.57248 4.19003C5.74594 4.0981 6.24464 4.49644 6.78671 5.20121C7.28542 5.87533 7.50225 6.05918 7.26374 5.66084C7.02523 5.26249 6.87345 4.86415 6.89513 4.74158C7.09027 4.28195 7.4372 3.79168 7.63234 3.79168C7.74076 3.79168 7.76244 3.97553 7.67571 4.15938C7.5673 4.43516 7.61066 4.43516 7.87085 4.12874C8.23946 3.7304 8.17441 3.17884 7.78412 3.17884C7.65403 3.17884 7.37215 3.48526 7.15532 3.85296C6.93849 4.25131 6.6783 4.4658 6.59157 4.34324C6.50484 4.19003 6.61325 3.79168 6.85176 3.45462L7.26374 2.7805L6.63493 3.36269L6.00613 3.91425L6.26633 3.24013C6.39642 2.87243 6.43979 2.56601 6.35306 2.56601C6.26633 2.56601 6.33138 2.38215 6.50484 2.16766C6.96018 1.64675 7.89254 0.114655 7.78412 0.114655C7.71907 0.114655 7.15532 0.880703 6.50484 1.79996Z" fill="#E4B94B"/>
<path d="M22.2682 4.09812C22.2031 4.43518 22.2899 4.92545 22.485 5.17059C22.962 5.87535 23.3306 5.72214 22.8753 5.01738C22.2682 4.09812 22.6802 3.88363 23.374 4.77224C23.6992 5.20123 24.1112 5.63022 24.2847 5.72214C24.4581 5.81407 24.328 5.90599 23.9594 5.93663C23.5258 5.99792 23.4391 6.0592 23.6992 6.15113C23.9378 6.24305 24.328 6.54947 24.5666 6.85589C24.8268 7.16231 25.2821 7.71386 25.5856 8.05092C26.3229 8.87826 25.8675 8.84761 24.9568 7.98964C24.5449 7.62194 23.8944 7.07038 23.5475 6.76397L22.8753 6.18177L23.5041 7.13167C23.8727 7.65258 24.4798 8.23478 24.8701 8.44927C25.2604 8.66376 25.5856 8.9089 25.5856 9.03146C25.5856 9.15403 25.7808 9.18467 26.0193 9.09275C26.5831 8.87826 26.5614 8.60248 25.9326 7.89772C25.629 7.5913 25.4339 7.28488 25.4772 7.16231C25.5206 7.07038 25.4122 6.73332 25.2387 6.39626C25.0653 6.08984 24.9352 5.99792 24.9352 6.18177C24.9352 6.39626 24.8268 6.54947 24.6967 6.54947C24.5666 6.54947 24.5015 6.33498 24.5666 6.08984C24.6533 5.81407 24.3497 5.26251 23.7643 4.55775C22.6802 3.33207 22.42 3.24015 22.2682 4.09812Z" fill="#E4B94B"/>
<path d="M20.1 6.91717C19.276 8.1122 18.734 8.97017 18.8424 8.84761C18.9725 8.75568 19.0809 8.78632 19.0809 8.97017C19.0809 9.30724 20.165 7.89771 20.165 7.53001C20.165 7.40744 20.6204 6.85588 21.1408 6.27369C21.6828 5.72213 22.0514 5.13994 21.9864 4.98673C21.7912 4.5271 21.6395 4.71095 20.1 6.91717Z" fill="#E4B94B"/>
<path d="M29.597 9.00078C31.1365 9.18463 31.2232 9.21528 30.2475 9.3072L29.1633 9.39913L30.1174 9.5217C30.6594 9.61362 31.2882 9.5217 31.5268 9.33784C31.787 9.15399 32.4158 8.97014 32.9578 8.90886C33.4999 8.84757 32.5675 8.81693 30.898 8.81693C28.3611 8.81693 28.1442 8.84757 29.597 9.00078Z" fill="#E4B94B"/>
<path d="M17.1511 11.2683C16.3705 12.0956 15.7851 13.1068 15.9585 13.352C16.0019 13.4439 15.9152 13.689 15.72 13.9035C15.4598 14.2099 15.3948 14.1793 15.3948 13.7197C15.3948 13.2907 15.1996 13.4439 14.5492 14.4551C14.0938 15.1598 13.6602 15.742 13.6168 15.742C13.4 15.742 13.5951 14.4551 13.8987 13.9342C14.3974 13.0762 14.4191 12.4327 13.9204 13.0762C13.4433 13.689 12.5543 13.7809 12.6411 13.1988C12.6628 13.0149 12.576 12.8617 12.4676 12.8923C12.3375 12.923 12.034 12.5246 11.8171 12.0344C11.5786 11.5441 11.1883 11.1457 10.9498 11.1457C10.6029 11.1764 10.733 11.4522 11.5569 12.4633C12.511 13.689 12.923 14.5164 12.3158 14.0261C12.1641 13.9035 12.2508 14.1486 12.5327 14.5776C13.053 15.405 13.1615 15.8952 12.7495 15.5582C12.576 15.4356 12.5327 15.4662 12.6411 15.6195C12.7495 15.7727 12.9013 15.8952 12.9663 15.9259C13.053 15.9259 13.3132 16.0484 13.5301 16.2017C13.8553 16.3855 14.0938 16.2323 14.6142 15.405C14.9611 14.8228 15.3297 14.3631 15.4165 14.3631C15.5899 14.3631 17.9967 10.87 17.9967 10.6555C17.9967 10.441 17.8666 10.5329 17.1511 11.2683Z" fill="#E4B94B"/>
<path d="M27.2119 11.4215C27.5805 11.7586 28.4044 12.8004 29.0332 13.7196C29.6837 14.6389 30.2692 15.3437 30.3125 15.2824C30.4643 15.0985 28.5996 12.2182 28.3828 12.2795C28.296 12.3408 28.2527 12.1569 28.3177 11.9118C28.4044 11.6666 28.6213 11.4215 28.8164 11.4215C29.3151 11.3602 27.9925 10.9312 27.2119 10.8699L26.5614 10.8393L27.2119 11.4215Z" fill="#E4B94B"/>
<path d="M29.532 12.6472C29.8138 13.1068 30.0957 13.4745 30.1825 13.4132C30.2692 13.3213 30.4643 13.5664 30.6595 13.9341C30.8329 14.3018 31.0714 14.5163 31.1799 14.3938C31.2883 14.3018 31.5918 14.547 31.852 14.9147L32.3074 15.6194L31.3967 15.5275C30.6595 15.4662 30.5511 15.5275 30.8546 15.7726C31.0498 15.9259 31.31 16.0178 31.3967 15.9259C31.4834 15.8646 31.7002 15.9259 31.8737 16.1097C32.1339 16.3548 32.1122 16.3548 31.7653 16.2016C31.4617 16.0791 31.3967 16.1097 31.5702 16.3548C31.852 16.7532 32.5242 16.4468 32.5242 15.9259C32.5242 15.742 32.9145 15.0372 33.3915 14.3631C34.2805 13.0762 34.6057 12.1875 33.7818 13.2907C33.1313 14.1486 32.7627 14.0567 33.3481 13.1987C33.6083 12.8004 33.7601 12.3714 33.6734 12.2488C33.5867 12.1263 33.153 12.6165 32.7193 13.3519L31.9171 14.6695L31.0714 13.7196C30.6161 13.1987 30.074 12.7085 29.8789 12.5859C29.6621 12.494 29.4886 12.2488 29.4886 12.065C29.4886 11.9118 29.3802 11.7586 29.2501 11.7586C29.12 11.7586 29.2501 12.1569 29.532 12.6472Z" fill="#E4B94B"/>
<path d="M30.486 16.6306C30.2909 16.937 30.1391 17.366 30.1824 17.5805C30.2258 17.795 30.1174 18.0402 29.9439 18.1321C29.7705 18.1934 29.7054 18.1321 29.7922 17.9482C30.009 17.4273 29.5536 17.2435 29.2718 17.7337C29.0549 18.1014 29.0766 18.1934 29.3585 18.1934C29.7922 18.1934 29.8138 18.9288 29.3802 19.419C29.0549 19.7867 28.9465 19.5416 29.0333 18.7143C29.0766 18.3772 28.8381 18.4691 28.4912 18.9288C28.1009 19.511 28.1009 19.848 28.5346 19.6029C28.708 19.511 28.7947 19.5416 28.7297 19.7255C28.6646 19.9093 28.7731 20.0319 28.9899 20.0319C29.3802 20.0319 31.44 17.2435 31.44 16.6919C31.44 16.1404 30.8329 16.1097 30.486 16.6306Z" fill="#E4B94B"/>
<path d="M28.8598 15.1147C28.643 15.2985 28.643 15.4824 28.8164 16.0033C28.9682 16.3403 29.12 16.6467 29.185 16.6467C29.2501 16.6467 29.2284 16.4935 29.1634 16.3403C28.9032 15.7581 29.4235 16.0339 29.8355 16.708C30.1174 17.1983 30.1391 17.2902 29.8789 17.0144C29.6187 16.708 29.4886 16.708 29.3585 16.9838C29.2718 17.1983 29.2934 17.2902 29.4019 17.1983C29.5103 17.1064 29.9439 17.566 30.3993 18.2095C30.8329 18.8836 31.1148 19.4045 31.0498 19.4045C30.9847 19.4045 31.2883 19.9561 31.7653 20.6302C32.329 21.4269 32.676 21.7333 32.8494 21.5494C33.1313 21.243 33.63 21.6414 35.3429 23.6331C35.9501 24.3379 36.5572 24.8588 36.6656 24.7362C36.774 24.6443 36.8607 24.7362 36.8607 24.9201C36.8607 25.1652 36.7306 25.1958 36.4921 25.0426C36.0585 24.7975 35.7116 24.7975 34.3239 25.1039C33.8035 25.1958 33.3915 25.4103 33.3915 25.5635C33.3915 25.6861 33.2614 25.7474 33.1313 25.6861C32.8061 25.5329 30.074 25.2571 28.5129 25.2265C27.6889 25.2265 27.5155 25.1345 27.754 24.8894C27.9925 24.6749 27.819 24.6136 27.1035 24.7056C26.5614 24.7975 25.9109 24.9201 25.6507 25.012C25.3255 25.1345 25.2171 25.0733 25.2821 24.7975C25.5206 23.9089 19.341 23.9702 18.5605 24.8894C18.0184 25.5329 18.1485 25.7474 19.1893 25.778C19.7964 25.8393 20.165 25.7167 20.165 25.5023C20.165 25.2878 20.2734 25.2571 20.4469 25.441C20.6637 25.6555 21.8563 25.7167 22.9404 25.5635C23.0705 25.5635 23.2006 25.3184 23.2006 25.0733C23.2006 24.8281 23.2873 24.6136 23.3957 24.6136C23.5041 24.6136 23.5475 24.8588 23.5041 25.1345C23.4174 25.5635 23.5475 25.6861 24.1546 25.7474C24.7834 25.778 24.8918 25.6861 24.7834 25.2878C24.6967 24.8894 24.7184 24.8894 24.9786 25.349C25.2388 25.8393 25.4556 25.9006 26.1494 25.7167C27.2336 25.4103 27.2119 25.4103 28.6213 25.7167C29.2718 25.87 30.7679 25.9925 31.9171 25.9925C33.8902 25.9925 34.0203 26.0232 33.9119 26.5747C33.7167 27.4633 34.3239 27.0037 34.6708 26.0232C34.931 25.2571 35.0394 25.1652 35.7549 25.349C36.1886 25.441 37.7497 25.5635 39.2458 25.6248C40.742 25.6861 41.6093 25.6555 41.1973 25.5942C40.7853 25.5329 40.3517 25.3797 40.2649 25.2265C40.0698 24.9813 42.3248 25.0733 43.8426 25.3797C44.5581 25.5329 44.6449 25.4716 44.8617 24.5524C44.9918 24.0314 45.0352 23.5105 44.9701 23.4186C44.8834 23.3267 44.775 23.388 44.7316 23.6025C44.6665 23.8782 44.0377 23.9089 42.3682 23.7863C41.0889 23.6944 40.1132 23.725 40.1132 23.8782C40.1132 24.0314 40.5902 24.0927 41.1973 24.0621C41.8695 23.9702 42.2814 24.0621 42.2814 24.2766C42.2814 24.6443 38.8989 24.6443 38.2701 24.2459C37.9666 24.0621 38.0967 24.0314 38.7471 24.1234C39.2675 24.1846 39.7446 24.1234 39.8096 23.9702C39.8747 23.8169 39.3109 23.6944 38.552 23.6944C37.598 23.6944 37.2727 23.7863 37.5112 24.0008C37.7497 24.2153 37.6413 24.3072 37.0776 24.2766C36.4488 24.2766 36.4054 24.2153 36.7523 24.0008C37.1209 23.7863 37.0993 23.725 36.5572 23.725C36.1452 23.6944 35.5598 23.2654 34.8876 22.4687C34.3239 21.7946 33.7384 21.243 33.5866 21.243C33.4349 21.243 33.3915 21.1511 33.4565 21.0285C33.6517 20.7528 32.5242 19.0981 32.1556 19.0981C31.9821 19.0981 31.9171 18.9449 32.0038 18.7304C32.0905 18.5465 32.0688 18.4853 31.9387 18.5772C31.8087 18.6998 31.6569 18.4853 31.5918 18.1482C31.5268 17.7499 31.375 17.5966 31.2232 17.7192C31.0498 17.8724 31.2015 18.3014 31.7002 19.0368C32.0905 19.6497 32.2423 19.9561 32.0472 19.7416C31.852 19.5271 31.5485 19.4658 31.4184 19.5884C31.2666 19.7109 31.2232 19.6803 31.3099 19.4658C31.375 19.3126 31.1798 18.7304 30.8763 18.2095C30.5727 17.6886 30.4426 17.2596 30.5944 17.2596C30.7245 17.2596 30.551 16.8612 30.1824 16.371C29.8355 15.8807 29.5753 15.3904 29.6187 15.3291C29.8138 15.0534 29.12 14.8695 28.8598 15.1147ZM33.153 20.4157C33.3481 20.7528 33.2614 20.8447 32.741 20.8753C32.3941 20.8753 32.0255 20.7528 31.9604 20.5689C31.852 20.3544 31.9604 20.2931 32.264 20.3851C32.5242 20.5076 32.741 20.4463 32.741 20.2931C32.741 19.8948 32.8711 19.9561 33.153 20.4157ZM44.5581 24.6136C44.6449 24.7975 44.2546 24.9201 43.539 24.8894C42.4766 24.8281 42.4549 24.8281 43.1488 24.6136C44.2763 24.2766 44.4064 24.2766 44.5581 24.6136Z" fill="#E4B94B"/>
<path d="M6.50484 16.8C5.68089 17.9643 5.26892 18.3627 5.07377 18.1788C4.90031 17.9643 4.74853 18.0256 4.55339 18.3321C4.40161 18.5772 4.11973 18.7917 3.94627 18.7917C3.62103 18.7917 3.62103 18.8223 3.94627 19.2819C4.27151 19.7416 4.18478 19.8948 3.05727 21.1817C0.628801 23.9702 0 24.7362 0 24.9507C0 25.441 2.47184 27.923 2.7754 27.7391C2.99223 27.6472 3.05727 27.7085 2.94886 27.923C2.86213 28.1375 2.90549 28.2907 3.03559 28.2907C3.16569 28.2907 3.23074 28.4132 3.16569 28.5358C3.10064 28.689 3.49093 29.1793 4.01132 29.6389C4.5317 30.0985 5.1605 30.8339 5.44238 31.2323C5.94109 31.9983 6.43979 32.2435 6.15791 31.6C6.0495 31.3855 6.09286 31.3549 6.26633 31.4774C6.41811 31.6306 6.48316 31.8145 6.41811 31.9064C6.24464 32.1209 7.15532 33.4998 7.45888 33.4998C7.58898 33.4998 7.82749 33.7756 7.97927 34.1126C8.13105 34.4497 8.45629 34.7255 8.6948 34.7255C9.06341 34.7255 9.10677 34.6335 8.91163 34.3271C8.78153 34.082 8.73817 33.8062 8.8249 33.7143C8.88995 33.5917 8.84658 33.4998 8.71648 33.4998C8.5647 33.4998 8.45629 33.653 8.45629 33.8368C8.45629 34.082 8.34788 34.082 8.13105 33.8062C7.74076 33.3466 7.69739 32.7337 8.066 33.0708C8.21778 33.1934 8.23946 33.1627 8.15273 32.9482C7.89254 32.3354 8.30451 32.5499 8.99836 33.3772C9.4537 33.8981 9.51875 34.082 9.21519 33.9288C8.75985 33.6836 8.75985 33.7449 9.41033 34.419C9.64884 34.6642 9.77894 34.7255 9.71389 34.5723C9.62716 34.3884 9.75726 34.082 9.99577 33.8675C10.2343 33.653 10.4077 33.6224 10.4077 33.8062C10.4077 33.9594 10.321 34.1126 10.2343 34.1126C10.1259 34.1126 10.0391 34.3271 10.0391 34.5723C10.0391 34.8174 10.1042 35.0319 10.1909 35.0319C10.3644 35.0319 10.8414 34.3578 10.8414 34.1126C10.8414 33.8675 4.64012 27.0037 4.46666 27.0343C4.40161 27.065 4.1631 26.8199 3.94627 26.5134C3.59934 26.0232 3.62103 25.9925 4.6618 25.8087C5.24724 25.7167 5.94109 25.5329 6.15791 25.3797C6.43979 25.1958 6.52652 25.2265 6.43979 25.441C6.33138 25.6861 7.63234 25.7474 10.8848 25.6861C13.4216 25.6248 15.6767 25.5329 15.8718 25.4716C16.0886 25.4103 16.4789 25.0426 16.7608 24.6749C17.0427 24.3072 17.3462 24.0621 17.4113 24.154C17.498 24.2459 17.5197 24.2153 17.4763 24.1234C17.4113 24.0314 17.7582 23.388 18.2352 22.7138C18.6906 22.0397 19.0809 21.3962 19.0809 21.2737C19.0809 21.1511 19.2977 20.7834 19.5362 20.4463C19.8831 20.0174 20.0349 19.9561 20.0999 20.2625C20.1867 20.5689 20.2734 20.5689 20.5119 20.2931C20.6854 20.1093 20.7504 19.8029 20.6637 19.5884C20.5987 19.4045 20.6203 19.3432 20.7071 19.4964C20.8155 19.619 21.1624 19.3432 21.4876 18.9142C21.943 18.3014 22.0297 18.0256 21.8346 17.7499C21.6611 17.4741 20.9889 18.2401 19.0592 21.0285C17.5631 23.2041 16.4789 24.5524 16.3922 24.3379C16.1537 23.8169 10.1692 23.8782 9.64884 24.4298C9.30192 24.7668 9.62716 24.8281 11.8605 24.6749C14.6142 24.5217 16.1103 24.7668 15.2864 25.2265C14.6793 25.5942 14.354 25.5942 14.7443 25.2265C14.9611 25.012 14.0071 24.9201 11.7087 24.9201C9.86567 24.9507 7.78412 24.9201 7.09027 24.8894C6.35306 24.8281 5.74594 24.9507 5.59416 25.1652C5.22555 25.6861 4.74853 25.6248 4.90031 25.1039C5.05209 24.5217 4.55339 24.1234 4.33656 24.6443C4.22814 24.8588 4.20646 25.1652 4.24983 25.2878C4.31488 25.4103 4.05468 25.5329 3.70776 25.5329C2.81876 25.5329 2.86213 25.87 3.92459 27.0956C5.37733 28.7503 6.50484 29.884 6.50484 29.6695C6.50484 29.5776 7.28542 30.3437 8.23946 31.3855C9.1935 32.4273 9.97408 33.3159 9.97408 33.3772C9.97408 33.7143 9.49706 33.3772 8.60807 32.4273C7.5673 31.2936 6.72167 30.8952 7.61066 31.9677C8.52134 33.0095 7.69739 32.6112 6.63493 31.4774C6.09286 30.8952 5.5508 30.4662 5.44238 30.5582C5.33397 30.6501 5.20387 30.4356 5.13882 30.0985C5.07377 29.7308 4.90031 29.5163 4.72685 29.6083C4.33656 29.7921 3.55598 29.2099 3.85954 28.9341C4.01132 28.8116 3.77281 28.2907 3.25242 27.5859C2.7754 26.9424 2.40679 26.5441 2.42847 26.6666C2.49352 26.9118 2.32006 27.065 1.92977 27.065C1.82135 27.065 1.77799 26.9118 1.84304 26.7586C1.90809 26.5747 1.84304 26.4522 1.69126 26.4522C1.53948 26.4522 1.21424 26.2377 0.997409 25.9925C0.563753 25.5329 0.563753 25.5329 0.997409 25.0426C1.3877 24.583 1.3877 24.583 0.758898 24.7668L0.108414 24.9813L0.758898 24.2459C1.10582 23.8476 1.47443 23.5718 1.56116 23.6025C1.66958 23.6637 1.71294 23.5105 1.66958 23.296C1.64789 23.0815 1.86472 22.9283 2.25501 22.9283C2.60194 22.9283 2.92718 22.7445 2.97054 22.53C3.03559 22.2849 2.94886 22.2236 2.66698 22.3461C2.45016 22.4687 2.66698 22.0397 3.14401 21.4575C3.62103 20.8447 4.033 20.477 4.07636 20.6302C4.11973 20.7834 4.29319 20.814 4.46666 20.7221C4.96536 20.4463 4.81358 21.5495 4.24983 22.1929C3.77281 22.7445 3.36083 23.9702 3.64271 24.0314C5.07377 24.1847 7.15532 24.154 7.15532 23.9395C7.15532 23.8169 6.98186 23.725 6.78671 23.7557C6.56989 23.7863 5.83267 23.7557 5.13882 23.7557C3.94627 23.6944 3.9029 23.6637 4.11973 23.0815C4.24983 22.7445 4.44497 22.53 4.57507 22.6219C4.68348 22.7445 4.74853 22.6526 4.72685 22.4381C4.68348 22.2236 4.7919 22.0091 4.94368 21.9784C5.07377 21.9478 5.26892 21.8865 5.37733 21.8559C5.46406 21.8252 5.63753 21.7946 5.74594 21.8559C5.87604 21.8865 5.57248 21.3043 5.07377 20.5689C4.20646 19.282 4.18478 19.2513 4.59675 18.6998C5.00873 18.1482 5.03041 18.1482 5.13882 18.761C5.20387 19.1287 5.35565 19.3126 5.57248 19.19C5.74594 19.0981 6.24464 19.4964 6.78671 20.2012C7.28542 20.8753 7.50225 21.0592 7.26374 20.6608C7.02523 20.2625 6.87345 19.8641 6.89513 19.7416C7.09027 19.282 7.4372 18.7917 7.63234 18.7917C7.74076 18.7917 7.76244 18.9755 7.67571 19.1594C7.5673 19.4352 7.61066 19.4352 7.87085 19.1287C8.23946 18.7304 8.17441 18.1788 7.78412 18.1788C7.65403 18.1788 7.37215 18.4853 7.15532 18.853C6.93849 19.2513 6.6783 19.4658 6.59157 19.3432C6.50484 19.19 6.61325 18.7917 6.85176 18.4546L7.26374 17.7805L6.63493 18.3627L6.00613 18.9142L6.26633 18.2401C6.39642 17.8724 6.43979 17.566 6.35306 17.566C6.26633 17.566 6.33138 17.3822 6.50484 17.1677C6.96018 16.6467 7.89254 15.1147 7.78412 15.1147C7.71907 15.1147 7.15532 15.8807 6.50484 16.8Z" fill="#E4B94B"/>
<path d="M22.2682 19.0981C22.2031 19.4352 22.2899 19.9255 22.485 20.1706C22.962 20.8754 23.3306 20.7221 22.8753 20.0174C22.2682 19.0981 22.6802 18.8836 23.374 19.7722C23.6992 20.2012 24.1112 20.6302 24.2847 20.7221C24.4581 20.8141 24.328 20.906 23.9594 20.9366C23.5258 20.9979 23.4391 21.0592 23.6992 21.1511C23.9378 21.2431 24.328 21.5495 24.5666 21.8559C24.8268 22.1623 25.2821 22.7139 25.5856 23.0509C26.3229 23.8783 25.8675 23.8476 24.9568 22.9896C24.5449 22.6219 23.8944 22.0704 23.5475 21.764L22.8753 21.1818L23.5041 22.1317C23.8727 22.6526 24.4798 23.2348 24.8701 23.4493C25.2604 23.6638 25.5856 23.9089 25.5856 24.0315C25.5856 24.154 25.7808 24.1847 26.0193 24.0927C26.5831 23.8783 26.5614 23.6025 25.9326 22.8977C25.629 22.5913 25.4339 22.2849 25.4772 22.1623C25.5206 22.0704 25.4122 21.7333 25.2387 21.3963C25.0653 21.0898 24.9352 20.9979 24.9352 21.1818C24.9352 21.3963 24.8268 21.5495 24.6967 21.5495C24.5666 21.5495 24.5015 21.335 24.5666 21.0898C24.6533 20.8141 24.3497 20.2625 23.7643 19.5577C22.6802 18.3321 22.42 18.2401 22.2682 19.0981Z" fill="#E4B94B"/>
<path d="M20.1 21.9172C19.276 23.1122 18.734 23.9702 18.8424 23.8476C18.9725 23.7557 19.0809 23.7863 19.0809 23.9702C19.0809 24.3072 20.165 22.8977 20.165 22.53C20.165 22.4074 20.6204 21.8559 21.1408 21.2737C21.6828 20.7221 22.0514 20.1399 21.9864 19.9867C21.7912 19.5271 21.6395 19.711 20.1 21.9172Z" fill="#E4B94B"/>
<path d="M29.597 24.0008C31.1365 24.1846 31.2232 24.2153 30.2475 24.3072L29.1633 24.3991L30.1174 24.5217C30.6594 24.6136 31.2882 24.5217 31.5268 24.3378C31.787 24.154 32.4158 23.9701 32.9578 23.9089C33.4999 23.8476 32.5675 23.8169 30.898 23.8169C28.3611 23.8169 28.1442 23.8476 29.597 24.0008Z" fill="#E4B94B"/>
<path d="M17.1511 26.2683C16.3705 27.0956 15.7851 28.1068 15.9585 28.352C16.0019 28.4439 15.9152 28.689 15.72 28.9035C15.4598 29.2099 15.3948 29.1793 15.3948 28.7197C15.3948 28.2907 15.1996 28.4439 14.5492 29.4551C14.0938 30.1598 13.6602 30.742 13.6168 30.742C13.4 30.742 13.5951 29.4551 13.8987 28.9342C14.3974 28.0762 14.4191 27.4327 13.9204 28.0762C13.4433 28.689 12.5543 28.7809 12.6411 28.1988C12.6628 28.0149 12.576 27.8617 12.4676 27.8923C12.3375 27.923 12.034 27.5246 11.8171 27.0344C11.5786 26.5441 11.1883 26.1457 10.9498 26.1457C10.6029 26.1764 10.733 26.4522 11.5569 27.4633C12.511 28.689 12.923 29.5164 12.3158 29.0261C12.1641 28.9035 12.2508 29.1486 12.5327 29.5776C13.053 30.405 13.1615 30.8952 12.7495 30.5582C12.576 30.4356 12.5327 30.4662 12.6411 30.6195C12.7495 30.7727 12.9013 30.8952 12.9663 30.9259C13.053 30.9259 13.3132 31.0484 13.5301 31.2017C13.8553 31.3855 14.0938 31.2323 14.6142 30.405C14.9611 29.8228 15.3297 29.3631 15.4165 29.3631C15.5899 29.3631 17.9967 25.87 17.9967 25.6555C17.9967 25.441 17.8666 25.5329 17.1511 26.2683Z" fill="#E4B94B"/>
<path d="M27.2119 26.4215C27.5805 26.7586 28.4044 27.8004 29.0332 28.7196C29.6837 29.6389 30.2692 30.3437 30.3125 30.2824C30.4643 30.0985 28.5996 27.2182 28.3828 27.2795C28.296 27.3408 28.2527 27.1569 28.3177 26.9118C28.4044 26.6666 28.6213 26.4215 28.8164 26.4215C29.3151 26.3602 27.9925 25.9312 27.2119 25.8699L26.5614 25.8393L27.2119 26.4215Z" fill="#E4B94B"/>
<path d="M29.532 27.6472C29.8138 28.1068 30.0957 28.4745 30.1825 28.4132C30.2692 28.3213 30.4643 28.5664 30.6595 28.9341C30.8329 29.3018 31.0714 29.5163 31.1799 29.3938C31.2883 29.3018 31.5918 29.547 31.852 29.9147L32.3074 30.6194L31.3967 30.5275C30.6595 30.4662 30.5511 30.5275 30.8546 30.7726C31.0498 30.9259 31.31 31.0178 31.3967 30.9259C31.4834 30.8646 31.7002 30.9259 31.8737 31.1097C32.1339 31.3548 32.1122 31.3548 31.7653 31.2016C31.4617 31.0791 31.3967 31.1097 31.5702 31.3548C31.852 31.7532 32.5242 31.4468 32.5242 30.9259C32.5242 30.742 32.9145 30.0372 33.3915 29.3631C34.2805 28.0762 34.6057 27.1875 33.7818 28.2907C33.1313 29.1486 32.7627 29.0567 33.3481 28.1987C33.6083 27.8004 33.7601 27.3714 33.6734 27.2488C33.5867 27.1263 33.153 27.6165 32.7193 28.3519L31.9171 29.6695L31.0714 28.7196C30.6161 28.1987 30.074 27.7085 29.8789 27.5859C29.6621 27.494 29.4886 27.2488 29.4886 27.065C29.4886 26.9118 29.3802 26.7586 29.2501 26.7586C29.12 26.7586 29.2501 27.1569 29.532 27.6472Z" fill="#E4B94B"/>
<path d="M30.486 31.6306C30.2909 31.937 30.1391 32.366 30.1824 32.5805C30.2258 32.795 30.1174 33.0402 29.9439 33.1321C29.7705 33.1934 29.7054 33.1321 29.7922 32.9482C30.009 32.4273 29.5536 32.2435 29.2718 32.7337C29.0549 33.1014 29.0766 33.1934 29.3585 33.1934C29.7922 33.1934 29.8138 33.9288 29.3802 34.419C29.0549 34.7867 28.9465 34.5416 29.0333 33.7143C29.0766 33.3772 28.8381 33.4691 28.4912 33.9288C28.1009 34.511 28.1009 34.848 28.5346 34.6029C28.708 34.511 28.7947 34.5416 28.7297 34.7255C28.6646 34.9093 28.7731 35.0319 28.9899 35.0319C29.3802 35.0319 31.44 32.2435 31.44 31.6919C31.44 31.1404 30.8329 31.1097 30.486 31.6306Z" fill="#E4B94B"/>
<path d="M28.8598 30.1147C28.643 30.2985 28.643 30.4824 28.8164 31.0033C28.9682 31.3403 29.12 31.6467 29.185 31.6467C29.2501 31.6467 29.2284 31.4935 29.1634 31.3403C28.9032 30.7581 29.4235 31.0339 29.8355 31.708C30.1174 32.1983 30.1391 32.2902 29.8789 32.0144C29.6187 31.708 29.4886 31.708 29.3585 31.9838C29.2718 32.1983 29.2934 32.2902 29.4019 32.1983C29.5103 32.1064 29.9439 32.566 30.3993 33.2095C30.8329 33.8836 31.1148 34.4045 31.0498 34.4045C30.9847 34.4045 31.2883 34.9561 31.7653 35.6302C32.329 36.4269 32.676 36.7333 32.8494 36.5494C33.1313 36.243 33.63 36.6414 35.3429 38.6331C35.9501 39.3379 36.5572 39.8588 36.6656 39.7362C36.774 39.6443 36.8607 39.7362 36.8607 39.9201C36.8607 40.1652 36.7306 40.1958 36.4921 40.0426C36.0585 39.7975 35.7116 39.7975 34.3239 40.1039C33.8035 40.1958 33.3915 40.4103 33.3915 40.5635C33.3915 40.6861 33.2614 40.7474 33.1313 40.6861C32.8061 40.5329 30.074 40.2571 28.5129 40.2265C27.6889 40.2265 27.5155 40.1345 27.754 39.8894C27.9925 39.6749 27.819 39.6136 27.1035 39.7056C26.5614 39.7975 25.9109 39.9201 25.6507 40.012C25.3255 40.1345 25.2171 40.0733 25.2821 39.7975C25.5206 38.9089 19.341 38.9702 18.5605 39.8894C18.0184 40.5329 18.1485 40.7474 19.1893 40.778C19.7964 40.8393 20.165 40.7167 20.165 40.5023C20.165 40.2878 20.2734 40.2571 20.4469 40.441C20.6637 40.6555 21.8563 40.7167 22.9404 40.5635C23.0705 40.5635 23.2006 40.3184 23.2006 40.0733C23.2006 39.8281 23.2873 39.6136 23.3957 39.6136C23.5041 39.6136 23.5475 39.8588 23.5041 40.1345C23.4174 40.5635 23.5475 40.6861 24.1546 40.7474C24.7834 40.778 24.8918 40.6861 24.7834 40.2878C24.6967 39.8894 24.7184 39.8894 24.9786 40.349C25.2388 40.8393 25.4556 40.9006 26.1494 40.7167C27.2336 40.4103 27.2119 40.4103 28.6213 40.7167C29.2718 40.87 30.7679 40.9925 31.9171 40.9925C33.8902 40.9925 34.0203 41.0232 33.9119 41.5747C33.7167 42.4633 34.3239 42.0037 34.6708 41.0232C34.931 40.2571 35.0394 40.1652 35.7549 40.349C36.1886 40.441 37.7497 40.5635 39.2458 40.6248C40.742 40.6861 41.6093 40.6555 41.1973 40.5942C40.7853 40.5329 40.3517 40.3797 40.2649 40.2265C40.0698 39.9813 42.3248 40.0733 43.8426 40.3797C44.5581 40.5329 44.6449 40.4716 44.8617 39.5524C44.9918 39.0314 45.0352 38.5105 44.9701 38.4186C44.8834 38.3267 44.775 38.388 44.7316 38.6025C44.6665 38.8782 44.0377 38.9089 42.3682 38.7863C41.0889 38.6944 40.1132 38.725 40.1132 38.8782C40.1132 39.0314 40.5902 39.0927 41.1973 39.0621C41.8695 38.9702 42.2814 39.0621 42.2814 39.2766C42.2814 39.6443 38.8989 39.6443 38.2701 39.2459C37.9666 39.0621 38.0967 39.0314 38.7471 39.1234C39.2675 39.1846 39.7446 39.1234 39.8096 38.9702C39.8747 38.8169 39.3109 38.6944 38.552 38.6944C37.598 38.6944 37.2727 38.7863 37.5112 39.0008C37.7497 39.2153 37.6413 39.3072 37.0776 39.2766C36.4488 39.2766 36.4054 39.2153 36.7523 39.0008C37.1209 38.7863 37.0993 38.725 36.5572 38.725C36.1452 38.6944 35.5598 38.2654 34.8876 37.4687C34.3239 36.7946 33.7384 36.243 33.5866 36.243C33.4349 36.243 33.3915 36.1511 33.4565 36.0285C33.6517 35.7528 32.5242 34.0981 32.1556 34.0981C31.9821 34.0981 31.9171 33.9449 32.0038 33.7304C32.0905 33.5465 32.0688 33.4853 31.9387 33.5772C31.8087 33.6998 31.6569 33.4853 31.5918 33.1482C31.5268 32.7499 31.375 32.5966 31.2232 32.7192C31.0498 32.8724 31.2015 33.3014 31.7002 34.0368C32.0905 34.6497 32.2423 34.9561 32.0472 34.7416C31.852 34.5271 31.5485 34.4658 31.4184 34.5884C31.2666 34.7109 31.2232 34.6803 31.3099 34.4658C31.375 34.3126 31.1798 33.7304 30.8763 33.2095C30.5727 32.6886 30.4426 32.2596 30.5944 32.2596C30.7245 32.2596 30.551 31.8612 30.1824 31.371C29.8355 30.8807 29.5753 30.3904 29.6187 30.3291C29.8138 30.0534 29.12 29.8695 28.8598 30.1147ZM33.153 35.4157C33.3481 35.7528 33.2614 35.8447 32.741 35.8753C32.3941 35.8753 32.0255 35.7528 31.9604 35.5689C31.852 35.3544 31.9604 35.2931 32.264 35.3851C32.5242 35.5076 32.741 35.4463 32.741 35.2931C32.741 34.8948 32.8711 34.9561 33.153 35.4157ZM44.5581 39.6136C44.6449 39.7975 44.2546 39.9201 43.539 39.8894C42.4766 39.8281 42.4549 39.8281 43.1488 39.6136C44.2763 39.2766 44.4064 39.2766 44.5581 39.6136Z" fill="#E4B94B"/>
<path d="M6.50484 31.8C5.68089 32.9643 5.26892 33.3627 5.07377 33.1788C4.90031 32.9643 4.74853 33.0256 4.55339 33.3321C4.40161 33.5772 4.11973 33.7917 3.94627 33.7917C3.62103 33.7917 3.62103 33.8223 3.94627 34.282C4.27151 34.7416 4.18478 34.8948 3.05727 36.1817C0.628801 38.9702 0 39.7362 0 39.9507C0 40.441 2.47184 42.923 2.7754 42.7391C2.99223 42.6472 3.05727 42.7085 2.94886 42.923C2.86213 43.1375 2.90549 43.2907 3.03559 43.2907C3.16569 43.2907 3.23074 43.4132 3.16569 43.5358C3.10064 43.689 3.49093 44.1793 4.01132 44.6389C4.5317 45.0985 5.1605 45.8339 5.44238 46.2323C5.94109 46.9983 6.43979 47.2435 6.15791 46.6C6.0495 46.3855 6.09286 46.3549 6.26633 46.4774C6.41811 46.6306 6.48316 46.8145 6.41811 46.9064C6.24464 47.1209 7.15532 48.4998 7.45888 48.4998C7.58898 48.4998 7.82749 48.7756 7.97927 49.1126C8.13105 49.4497 8.45629 49.7255 8.6948 49.7255C9.06341 49.7255 9.10677 49.6335 8.91163 49.3271C8.78153 49.082 8.73817 48.8062 8.8249 48.7143C8.88995 48.5917 8.84658 48.4998 8.71648 48.4998C8.5647 48.4998 8.45629 48.653 8.45629 48.8368C8.45629 49.082 8.34788 49.082 8.13105 48.8062C7.74076 48.3466 7.69739 47.7337 8.066 48.0708C8.21778 48.1934 8.23946 48.1627 8.15273 47.9482C7.89254 47.3354 8.30451 47.5499 8.99836 48.3772C9.4537 48.8981 9.51875 49.082 9.21519 48.9288C8.75985 48.6836 8.75985 48.7449 9.41033 49.419C9.64884 49.6642 9.77894 49.7255 9.71389 49.5723C9.62716 49.3884 9.75726 49.082 9.99577 48.8675C10.2343 48.653 10.4077 48.6224 10.4077 48.8062C10.4077 48.9594 10.321 49.1126 10.2343 49.1126C10.1259 49.1126 10.0391 49.3271 10.0391 49.5723C10.0391 49.8174 10.1042 50.0319 10.1909 50.0319C10.3644 50.0319 10.8414 49.3578 10.8414 49.1126C10.8414 48.8675 4.64012 42.0037 4.46666 42.0343C4.40161 42.065 4.1631 41.8199 3.94627 41.5134C3.59934 41.0232 3.62103 40.9925 4.6618 40.8087C5.24724 40.7167 5.94109 40.5329 6.15791 40.3797C6.43979 40.1958 6.52652 40.2265 6.43979 40.441C6.33138 40.6861 7.63234 40.7474 10.8848 40.6861C13.4216 40.6248 15.6767 40.5329 15.8718 40.4716C16.0886 40.4103 16.4789 40.0426 16.7608 39.6749C17.0427 39.3072 17.3462 39.0621 17.4113 39.154C17.498 39.2459 17.5197 39.2153 17.4763 39.1234C17.4113 39.0314 17.7582 38.388 18.2352 37.7138C18.6906 37.0397 19.0809 36.3962 19.0809 36.2737C19.0809 36.1511 19.2977 35.7834 19.5362 35.4463C19.8831 35.0174 20.0349 34.9561 20.0999 35.2625C20.1867 35.5689 20.2734 35.5689 20.5119 35.2931C20.6854 35.1093 20.7504 34.8029 20.6637 34.5884C20.5987 34.4045 20.6203 34.3432 20.7071 34.4964C20.8155 34.619 21.1624 34.3432 21.4876 33.9142C21.943 33.3014 22.0297 33.0256 21.8346 32.7499C21.6611 32.4741 20.9889 33.2401 19.0592 36.0285C17.5631 38.2041 16.4789 39.5524 16.3922 39.3379C16.1537 38.8169 10.1692 38.8782 9.64884 39.4298C9.30192 39.7668 9.62716 39.8281 11.8605 39.6749C14.6142 39.5217 16.1103 39.7668 15.2864 40.2265C14.6793 40.5942 14.354 40.5942 14.7443 40.2265C14.9611 40.012 14.0071 39.9201 11.7087 39.9201C9.86567 39.9507 7.78412 39.9201 7.09027 39.8894C6.35306 39.8281 5.74594 39.9507 5.59416 40.1652C5.22555 40.6861 4.74853 40.6248 4.90031 40.1039C5.05209 39.5217 4.55339 39.1234 4.33656 39.6443C4.22814 39.8588 4.20646 40.1652 4.24983 40.2878C4.31488 40.4103 4.05468 40.5329 3.70776 40.5329C2.81876 40.5329 2.86213 40.87 3.92459 42.0956C5.37733 43.7503 6.50484 44.884 6.50484 44.6695C6.50484 44.5776 7.28542 45.3437 8.23946 46.3855C9.1935 47.4273 9.97408 48.3159 9.97408 48.3772C9.97408 48.7143 9.49706 48.3772 8.60807 47.4273C7.5673 46.2936 6.72167 45.8952 7.61066 46.9677C8.52134 48.0095 7.69739 47.6112 6.63493 46.4774C6.09286 45.8952 5.5508 45.4662 5.44238 45.5582C5.33397 45.6501 5.20387 45.4356 5.13882 45.0985C5.07377 44.7308 4.90031 44.5163 4.72685 44.6083C4.33656 44.7921 3.55598 44.2099 3.85954 43.9341C4.01132 43.8116 3.77281 43.2907 3.25242 42.5859C2.7754 41.9424 2.40679 41.5441 2.42847 41.6666C2.49352 41.9118 2.32006 42.065 1.92977 42.065C1.82135 42.065 1.77799 41.9118 1.84304 41.7586C1.90809 41.5747 1.84304 41.4522 1.69126 41.4522C1.53948 41.4522 1.21424 41.2377 0.997409 40.9925C0.563753 40.5329 0.563753 40.5329 0.997409 40.0426C1.3877 39.583 1.3877 39.583 0.758898 39.7668L0.108414 39.9813L0.758898 39.2459C1.10582 38.8476 1.47443 38.5718 1.56116 38.6025C1.66958 38.6637 1.71294 38.5105 1.66958 38.296C1.64789 38.0815 1.86472 37.9283 2.25501 37.9283C2.60194 37.9283 2.92718 37.7445 2.97054 37.53C3.03559 37.2849 2.94886 37.2236 2.66698 37.3461C2.45016 37.4687 2.66698 37.0397 3.14401 36.4575C3.62103 35.8447 4.033 35.477 4.07636 35.6302C4.11973 35.7834 4.29319 35.814 4.46666 35.7221C4.96536 35.4463 4.81358 36.5494 4.24983 37.1929C3.77281 37.7445 3.36083 38.9702 3.64271 39.0314C5.07377 39.1847 7.15532 39.154 7.15532 38.9395C7.15532 38.8169 6.98186 38.725 6.78671 38.7557C6.56989 38.7863 5.83267 38.7557 5.13882 38.7557C3.94627 38.6944 3.9029 38.6637 4.11973 38.0815C4.24983 37.7445 4.44497 37.53 4.57507 37.6219C4.68348 37.7445 4.74853 37.6526 4.72685 37.4381C4.68348 37.2236 4.7919 37.0091 4.94368 36.9784C5.07377 36.9478 5.26892 36.8865 5.37733 36.8559C5.46406 36.8252 5.63753 36.7946 5.74594 36.8559C5.87604 36.8865 5.57248 36.3043 5.07377 35.5689C4.20646 34.2819 4.18478 34.2513 4.59675 33.6998C5.00873 33.1482 5.03041 33.1482 5.13882 33.761C5.20387 34.1287 5.35565 34.3126 5.57248 34.19C5.74594 34.0981 6.24464 34.4964 6.78671 35.2012C7.28542 35.8753 7.50225 36.0592 7.26374 35.6608C7.02523 35.2625 6.87345 34.8641 6.89513 34.7416C7.09027 34.2819 7.4372 33.7917 7.63234 33.7917C7.74076 33.7917 7.76244 33.9755 7.67571 34.1594C7.5673 34.4352 7.61066 34.4352 7.87085 34.1287C8.23946 33.7304 8.17441 33.1788 7.78412 33.1788C7.65403 33.1788 7.37215 33.4853 7.15532 33.853C6.93849 34.2513 6.6783 34.4658 6.59157 34.3432C6.50484 34.19 6.61325 33.7917 6.85176 33.4546L7.26374 32.7805L6.63493 33.3627L6.00613 33.9142L6.26633 33.2401C6.39642 32.8724 6.43979 32.566 6.35306 32.566C6.26633 32.566 6.33138 32.3822 6.50484 32.1677C6.96018 31.6467 7.89254 30.1147 7.78412 30.1147C7.71907 30.1147 7.15532 30.8807 6.50484 31.8Z" fill="#E4B94B"/>
<path d="M22.2682 34.0981C22.2031 34.4352 22.2899 34.9255 22.485 35.1706C22.962 35.8753 23.3306 35.7221 22.8753 35.0174C22.2682 34.0981 22.6802 33.8836 23.374 34.7722C23.6992 35.2012 24.1112 35.6302 24.2847 35.7221C24.4581 35.8141 24.328 35.906 23.9594 35.9366C23.5258 35.9979 23.4391 36.0592 23.6992 36.1511C23.9378 36.2431 24.328 36.5495 24.5666 36.8559C24.8268 37.1623 25.2821 37.7139 25.5856 38.0509C26.3229 38.8783 25.8675 38.8476 24.9568 37.9896C24.5449 37.6219 23.8944 37.0704 23.5475 36.764L22.8753 36.1818L23.5041 37.1317C23.8727 37.6526 24.4798 38.2348 24.8701 38.4493C25.2604 38.6638 25.5856 38.9089 25.5856 39.0315C25.5856 39.154 25.7808 39.1847 26.0193 39.0927C26.5831 38.8783 26.5614 38.6025 25.9326 37.8977C25.629 37.5913 25.4339 37.2849 25.4772 37.1623C25.5206 37.0704 25.4122 36.7333 25.2387 36.3963C25.0653 36.0898 24.9352 35.9979 24.9352 36.1818C24.9352 36.3963 24.8268 36.5495 24.6967 36.5495C24.5666 36.5495 24.5015 36.335 24.5666 36.0898C24.6533 35.8141 24.3497 35.2625 23.7643 34.5578C22.6802 33.3321 22.42 33.2401 22.2682 34.0981Z" fill="#E4B94B"/>
<path d="M20.1 36.9172C19.276 38.1122 18.734 38.9702 18.8424 38.8476C18.9725 38.7557 19.0809 38.7863 19.0809 38.9702C19.0809 39.3072 20.165 37.8977 20.165 37.53C20.165 37.4074 20.6204 36.8559 21.1408 36.2737C21.6828 35.7221 22.0514 35.1399 21.9864 34.9867C21.7912 34.5271 21.6395 34.711 20.1 36.9172Z" fill="#E4B94B"/>
<path d="M29.597 39.0008C31.1365 39.1846 31.2232 39.2153 30.2475 39.3072L29.1633 39.3991L30.1174 39.5217C30.6594 39.6136 31.2882 39.5217 31.5268 39.3378C31.787 39.154 32.4158 38.9701 32.9578 38.9089C33.4999 38.8476 32.5675 38.8169 30.898 38.8169C28.3611 38.8169 28.1442 38.8476 29.597 39.0008Z" fill="#E4B94B"/>
<path d="M17.1511 41.2683C16.3705 42.0956 15.7851 43.1068 15.9585 43.352C16.0019 43.4439 15.9152 43.689 15.72 43.9035C15.4598 44.2099 15.3948 44.1793 15.3948 43.7197C15.3948 43.2907 15.1996 43.4439 14.5492 44.4551C14.0938 45.1598 13.6602 45.742 13.6168 45.742C13.4 45.742 13.5951 44.4551 13.8987 43.9342C14.3974 43.0762 14.4191 42.4327 13.9204 43.0762C13.4433 43.689 12.5543 43.7809 12.6411 43.1987C12.6628 43.0149 12.576 42.8617 12.4676 42.8923C12.3375 42.923 12.034 42.5246 11.8171 42.0344C11.5786 41.5441 11.1883 41.1457 10.9498 41.1457C10.6029 41.1764 10.733 41.4522 11.5569 42.4633C12.511 43.689 12.923 44.5164 12.3158 44.0261C12.1641 43.9035 12.2508 44.1487 12.5327 44.5776C13.053 45.405 13.1615 45.8952 12.7495 45.5582C12.576 45.4356 12.5327 45.4663 12.6411 45.6195C12.7495 45.7727 12.9013 45.8952 12.9663 45.9259C13.053 45.9259 13.3132 46.0484 13.5301 46.2017C13.8553 46.3855 14.0938 46.2323 14.6142 45.405C14.9611 44.8228 15.3297 44.3631 15.4165 44.3631C15.5899 44.3631 17.9967 40.87 17.9967 40.6555C17.9967 40.441 17.8666 40.5329 17.1511 41.2683Z" fill="#E4B94B"/>
<path d="M27.2119 41.4215C27.5805 41.7586 28.4044 42.8004 29.0332 43.7196C29.6837 44.6389 30.2692 45.3437 30.3125 45.2824C30.4643 45.0985 28.5996 42.2182 28.3828 42.2795C28.296 42.3408 28.2527 42.1569 28.3177 41.9118C28.4044 41.6666 28.6213 41.4215 28.8164 41.4215C29.3151 41.3602 27.9925 40.9312 27.2119 40.8699L26.5614 40.8393L27.2119 41.4215Z" fill="#E4B94B"/>
<path d="M29.532 42.6472C29.8138 43.1068 30.0957 43.4745 30.1825 43.4132C30.2692 43.3213 30.4643 43.5664 30.6595 43.9341C30.8329 44.3018 31.0714 44.5163 31.1799 44.3938C31.2883 44.3018 31.5918 44.547 31.852 44.9147L32.3074 45.6194L31.3967 45.5275C30.6595 45.4662 30.5511 45.5275 30.8546 45.7726C31.0498 45.9259 31.31 46.0178 31.3967 45.9259C31.4834 45.8646 31.7002 45.9259 31.8737 46.1097C32.1339 46.3548 32.1122 46.3548 31.7653 46.2016C31.4617 46.0791 31.3967 46.1097 31.5702 46.3548C31.852 46.7532 32.5242 46.4468 32.5242 45.9259C32.5242 45.742 32.9145 45.0372 33.3915 44.3631C34.2805 43.0762 34.6057 42.1875 33.7818 43.2907C33.1313 44.1486 32.7627 44.0567 33.3481 43.1987C33.6083 42.8004 33.7601 42.3714 33.6734 42.2488C33.5867 42.1263 33.153 42.6165 32.7193 43.3519L31.9171 44.6695L31.0714 43.7196C30.6161 43.1987 30.074 42.7085 29.8789 42.5859C29.6621 42.494 29.4886 42.2488 29.4886 42.065C29.4886 41.9118 29.3802 41.7586 29.2501 41.7586C29.12 41.7586 29.2501 42.1569 29.532 42.6472Z" fill="#E4B94B"/>
<path d="M30.486 46.6306C30.2909 46.937 30.1391 47.366 30.1824 47.5805C30.2258 47.795 30.1174 48.0402 29.9439 48.1321C29.7705 48.1934 29.7054 48.1321 29.7922 47.9482C30.009 47.4273 29.5536 47.2435 29.2718 47.7337C29.0549 48.1014 29.0766 48.1934 29.3585 48.1934C29.7922 48.1934 29.8138 48.9288 29.3802 49.419C29.0549 49.7867 28.9465 49.5416 29.0333 48.7143C29.0766 48.3772 28.8381 48.4691 28.4912 48.9288C28.1009 49.511 28.1009 49.848 28.5346 49.6029C28.708 49.511 28.7947 49.5416 28.7297 49.7255C28.6646 49.9093 28.7731 50.0319 28.9899 50.0319C29.3802 50.0319 31.44 47.2435 31.44 46.6919C31.44 46.1404 30.8329 46.1097 30.486 46.6306Z" fill="#E4B94B"/>
</svg>
