<svg width="74" height="74" viewBox="0 0 74 74" fill="none" xmlns="http://www.w3.org/2000/svg">
<g clip-path="url(#clip0_106_102)">
<path d="M33.9563 1.16012L1.16072 33.9557C-0.393567 35.51 -0.393567 38.03 1.16072 39.5843L33.9563 72.3799C35.5106 73.9342 38.0306 73.9342 39.5849 72.3799L72.3805 39.5843C73.9348 38.03 73.9348 35.51 72.3805 33.9557L39.5849 1.16012C38.0306 -0.394162 35.5106 -0.394165 33.9563 1.16012Z" fill="#415759"/>
<path d="M36.7699 59.48C49.3123 59.48 59.4799 49.3124 59.4799 36.77C59.4799 24.2276 49.3123 14.06 36.7699 14.06C24.2275 14.06 14.0599 24.2276 14.0599 36.77C14.0599 49.3124 24.2275 59.48 36.7699 59.48Z" fill="black"/>
<path d="M62.53 35.23C62.53 34.85 62.53 34.46 62.53 34.08C62.53 33.59 62.31 33.49 61.32 33.49H40.07V11.68C40.07 11.1 39.99 11.02 39.42 11.02C38.94 11.02 38.47 11.02 37.99 11.02C37.91 11.02 37.84 11.02 37.76 11.02H36.95C36.42 11.02 35.89 11.02 35.36 11.02H34.48C34.48 11.02 34.48 11.02 34.47 11.02C34.34 11.02 34.22 11.02 34.09 11.02C33.6 11.02 33.5 11.24 33.5 12.23V33.48H11.68C11.1 33.48 11.02 33.56 11.02 34.13C11.02 34.95 11.02 35.78 11.02 36.6C11.02 37.42 11.02 38.25 11.02 39.07C11.02 39.64 11.1 39.72 11.68 39.72H32.26C32.26 39.72 32.28 39.86 32.28 39.72H33.48V61.86C33.48 62.44 33.56 62.52 34.13 62.52C34.61 62.52 35.08 62.52 35.56 62.52C35.64 62.52 35.71 62.52 35.79 62.52H36.6C37.13 62.52 37.66 62.52 38.19 62.52H39.07C39.07 62.52 39.07 62.52 39.08 62.52C39.21 62.52 39.33 62.52 39.46 62.52C39.95 62.52 40.05 62.3 40.05 61.31V39.72H61.3C62.29 39.72 62.51 39.61 62.51 39.13C62.51 38.75 62.51 38.36 62.51 37.98C62.51 37.52 62.51 37.06 62.51 36.6C62.51 36.14 62.51 35.68 62.51 35.22L62.53 35.23Z" fill="white"/>
</g>
<defs>
<clipPath id="clip0_106_102">
<rect width="73.55" height="73.55" fill="white"/>
</clipPath>
</defs>
</svg>
