<svg width="77" height="80" viewBox="0 0 77 80" fill="none" xmlns="http://www.w3.org/2000/svg">
<path d="M35.44 1.16653L2.64436 33.9621C1.09008 35.5164 1.09008 38.0364 2.64436 39.5907L35.44 72.3863C36.9943 73.9406 39.5143 73.9406 41.0685 72.3863L73.8642 39.5907C75.4184 38.0364 75.4184 35.5164 73.8642 33.9621L41.0685 1.16653C39.5143 -0.387756 36.9943 -0.387756 35.44 1.16653Z" fill="#415759"/>
<path d="M38.26 59.48C50.8024 59.48 60.9701 49.3124 60.9701 36.77C60.9701 24.2276 50.8024 14.06 38.26 14.06C25.7177 14.06 15.55 24.2276 15.55 36.77C15.55 49.3124 25.7177 59.48 38.26 59.48Z" fill="black"/>
<path d="M8.07955 70.6H7.02273C6.96023 70.296 6.85085 70.029 6.6946 69.7988C6.54119 69.5687 6.35369 69.3755 6.1321 69.2193C5.91335 69.0602 5.67045 68.9409 5.40341 68.8613C5.13636 68.7818 4.85795 68.742 4.56818 68.742C4.03977 68.742 3.56108 68.8755 3.1321 69.1426C2.70597 69.4096 2.36648 69.8031 2.11364 70.323C1.86364 70.8429 1.73864 71.4807 1.73864 72.2363C1.73864 72.992 1.86364 73.6298 2.11364 74.1497C2.36648 74.6696 2.70597 75.063 3.1321 75.3301C3.56108 75.5971 4.03977 75.7307 4.56818 75.7307C4.85795 75.7307 5.13636 75.6909 5.40341 75.6113C5.67045 75.5318 5.91335 75.4139 6.1321 75.2576C6.35369 75.0986 6.54119 74.904 6.6946 74.6738C6.85085 74.4409 6.96023 74.1738 7.02273 73.8727H8.07955C8 74.3187 7.85511 74.7179 7.64489 75.0701C7.43466 75.4224 7.1733 75.7221 6.8608 75.9693C6.5483 76.2136 6.19744 76.3997 5.80824 76.5275C5.42188 76.6554 5.00852 76.7193 4.56818 76.7193C3.82386 76.7193 3.16193 76.5375 2.58239 76.1738C2.00284 75.8102 1.54688 75.2932 1.21449 74.6227C0.882102 73.9522 0.715909 73.1568 0.715909 72.2363C0.715909 71.3159 0.882102 70.5204 1.21449 69.85C1.54688 69.1795 2.00284 68.6625 2.58239 68.2988C3.16193 67.9352 3.82386 67.7534 4.56818 67.7534C5.00852 67.7534 5.42188 67.8173 5.80824 67.9451C6.19744 68.073 6.5483 68.2605 6.8608 68.5076C7.1733 68.752 7.43466 69.0503 7.64489 69.4025C7.85511 69.752 8 70.1511 8.07955 70.6ZM9.78729 76.6V67.8727H12.7362C13.418 67.8727 13.9776 67.9892 14.4151 68.2221C14.8526 68.4522 15.1765 68.769 15.3867 69.1724C15.5969 69.5758 15.7021 70.0346 15.7021 70.5488C15.7021 71.063 15.5969 71.519 15.3867 71.9167C15.1765 72.3145 14.854 72.627 14.4194 72.8542C13.9847 73.0787 13.4293 73.1909 12.7532 73.1909H10.3668V72.2363H12.7191C13.185 72.2363 13.56 72.1682 13.8441 72.0318C14.131 71.8954 14.3384 71.7022 14.4663 71.4522C14.5969 71.1994 14.6623 70.8983 14.6623 70.5488C14.6623 70.1994 14.5969 69.894 14.4663 69.6326C14.3356 69.3713 14.1268 69.1696 13.8398 69.0275C13.5529 68.8826 13.1737 68.8102 12.7021 68.8102H10.8441V76.6H9.78729ZM13.8952 72.6795L16.043 76.6H14.8157L12.7021 72.6795H13.8952ZM17.4631 76.6V67.8727H22.7301V68.8102H18.5199V71.7591H22.4574V72.6966H18.5199V75.6625H22.7983V76.6H17.4631ZM24.9929 76.6H23.8849L27.0895 67.8727H28.1804L31.3849 76.6H30.277L27.669 69.2534H27.6009L24.9929 76.6ZM25.402 73.1909H29.8679V74.1284H25.402V73.1909ZM31.2475 68.8102V67.8727H37.793V68.8102H35.0487V76.6H33.9918V68.8102H31.2475ZM45.1513 67.8727H46.2081V73.6511C46.2081 74.2477 46.0675 74.7804 45.7862 75.2491C45.5078 75.715 45.1143 76.0829 44.6058 76.3528C44.0973 76.6199 43.5007 76.7534 42.8161 76.7534C42.1314 76.7534 41.5348 76.6199 41.0263 76.3528C40.5178 76.0829 40.1229 75.715 39.8416 75.2491C39.5632 74.7804 39.424 74.2477 39.424 73.6511V67.8727H40.4808V73.5659C40.4808 73.992 40.5746 74.3713 40.7621 74.7037C40.9496 75.0332 41.2166 75.2932 41.5632 75.4835C41.9126 75.671 42.3303 75.7647 42.8161 75.7647C43.3018 75.7647 43.7195 75.671 44.0689 75.4835C44.4183 75.2932 44.6854 75.0332 44.87 74.7037C45.0575 74.3713 45.1513 73.992 45.1513 73.5659V67.8727ZM48.3185 76.6V67.8727H51.2674C51.9492 67.8727 52.5089 67.9892 52.9464 68.2221C53.3839 68.4522 53.7077 68.769 53.918 69.1724C54.1282 69.5758 54.2333 70.0346 54.2333 70.5488C54.2333 71.063 54.1282 71.519 53.918 71.9167C53.7077 72.3145 53.3853 72.627 52.9506 72.8542C52.516 73.0787 51.9606 73.1909 51.2844 73.1909H48.8981V72.2363H51.2504C51.7163 72.2363 52.0913 72.1682 52.3754 72.0318C52.6623 71.8954 52.8697 71.7022 52.9975 71.4522C53.1282 71.1994 53.1935 70.8983 53.1935 70.5488C53.1935 70.1994 53.1282 69.894 52.9975 69.6326C52.8668 69.3713 52.658 69.1696 52.3711 69.0275C52.0842 68.8826 51.7049 68.8102 51.2333 68.8102H49.3754V76.6H48.3185ZM52.4265 72.6795L54.5742 76.6H53.3469L51.2333 72.6795H52.4265ZM55.9943 76.6V67.8727H61.2614V68.8102H57.0511V71.7591H60.9886V72.6966H57.0511V75.6625H61.3295V76.6H55.9943ZM67.9389 70.0545C67.8878 69.6227 67.6804 69.2875 67.3168 69.0488C66.9531 68.8102 66.5071 68.6909 65.9787 68.6909C65.5923 68.6909 65.2543 68.7534 64.9645 68.8784C64.6776 69.0034 64.4531 69.1753 64.2912 69.394C64.1321 69.6128 64.0526 69.8613 64.0526 70.1397C64.0526 70.3727 64.108 70.573 64.2188 70.7406C64.3324 70.9054 64.4773 71.0432 64.6534 71.154C64.8295 71.2619 65.0142 71.3514 65.2074 71.4224C65.4006 71.4906 65.5781 71.546 65.7401 71.5886L66.6264 71.8272C66.8537 71.8869 67.1065 71.9693 67.3849 72.0744C67.6662 72.1795 67.9347 72.323 68.1903 72.5048C68.4489 72.6838 68.6619 72.9139 68.8295 73.1951C68.9972 73.4764 69.081 73.8216 69.081 74.2307C69.081 74.7022 68.9574 75.1284 68.7102 75.5091C68.4659 75.8897 68.108 76.1923 67.6364 76.4167C67.1676 76.6412 66.598 76.7534 65.9276 76.7534C65.3026 76.7534 64.7614 76.6525 64.304 76.4508C63.8494 76.2491 63.4915 75.9679 63.2301 75.6071C62.9716 75.2463 62.8253 74.8272 62.7912 74.35H63.8821C63.9105 74.6795 64.0213 74.9522 64.2145 75.1682C64.4105 75.3812 64.6577 75.5403 64.956 75.6454C65.2571 75.7477 65.581 75.7988 65.9276 75.7988C66.331 75.7988 66.6932 75.7335 67.0142 75.6028C67.3352 75.4693 67.5895 75.2846 67.777 75.0488C67.9645 74.8102 68.0582 74.5318 68.0582 74.2136C68.0582 73.9238 67.9773 73.688 67.8153 73.5062C67.6534 73.3244 67.4403 73.1767 67.1761 73.063C66.9119 72.9494 66.6264 72.85 66.3196 72.7647L65.2457 72.4579C64.5639 72.2619 64.0241 71.9821 63.6264 71.6184C63.2287 71.2548 63.0298 70.779 63.0298 70.1909C63.0298 69.7022 63.1619 69.2761 63.4261 68.9125C63.6932 68.546 64.0511 68.2619 64.5 68.0602C64.9517 67.8557 65.456 67.7534 66.0128 67.7534C66.5753 67.7534 67.0753 67.8542 67.5128 68.0559C67.9503 68.2548 68.2969 68.5275 68.5526 68.8741C68.8111 69.2207 68.9474 69.6142 68.9616 70.0545H67.9389Z" fill="white"/>
<path d="M20.72 16.04C17.64 22.22 16.64 28.01 17.51 32.35C18.38 36.7 20.95 39.61 25.33 40.47C25.35 41.17 25.45 41.86 25.61 42.52C23.11 44.97 21.8 47.97 21.75 51.13C26.04 52.32 29.07 51.48 31.2 49.45C31.77 49.72 32.37 49.95 33 50.12C33.63 50.29 34.27 50.4 34.9 50.44C34.91 50.52 34.93 50.61 34.94 50.69C35.56 53.95 37.5 56.46 41.52 57.49C43.04 54.87 43.41 51.81 42.49 47.92C42.95 47.52 43.37 47.08 43.76 46.6C45.75 47.87 47.6 48.33 49.28 48.16C51 47.99 52.58 47.15 54 45.65C56.77 42.73 58.81 37.24 59.32 29.96C57.16 28.94 55.05 28.47 53.02 28.48C50.84 28.48 48.76 29.03 46.81 29.95C45.38 30.63 44.03 31.52 42.79 32.56C41.58 31.42 40.09 30.55 38.37 30.09C37.34 29.81 36.29 29.7 35.28 29.74C34.67 29.76 34.08 29.84 33.49 29.97C31.4 23.7 27.06 18.02 20.72 16.01V16.04ZM22.84 21.96C24.5 21.96 25.82 23.28 25.82 24.94C25.82 26.6 24.5 27.92 22.84 27.92C21.18 27.92 19.86 26.6 19.86 24.94C19.86 23.28 21.19 21.96 22.84 21.96ZM20.68 29.28C21.59 29.28 22.3 30 22.3 30.91C22.3 31.82 21.58 32.53 20.68 32.53C19.78 32.53 19.06 31.81 19.06 30.91C19.06 30.01 19.78 29.28 20.68 29.28ZM34.54 31.49C31.65 32.56 29.59 35.34 29.59 38.6C29.59 42.79 32.98 46.19 37.17 46.19C40.49 46.19 43.31 44.06 44.34 41.08C44.29 41.51 44.21 41.94 44.1 42.37C42.85 47.02 38.09 49.77 33.44 48.53C28.79 47.28 26.04 42.52 27.28 37.87C28.22 34.36 31.16 31.94 34.54 31.49ZM53.7 32.95C55.36 32.95 56.68 34.28 56.68 35.93C56.68 37.58 55.36 38.91 53.7 38.91C52.04 38.91 50.72 37.59 50.72 35.93C50.72 34.27 52.05 32.95 53.7 32.95ZM22.22 34.12C23.01 34.12 23.63 34.74 23.63 35.53C23.63 36.32 23.01 36.94 22.22 36.94C21.43 36.94 20.81 36.32 20.81 35.53C20.81 34.74 21.43 34.12 22.22 34.12ZM52.48 40.5C53.39 40.5 54.1 41.22 54.1 42.12C54.1 43.02 53.38 43.75 52.48 43.75C51.58 43.75 50.86 43.03 50.86 42.12C50.86 41.21 51.58 40.5 52.48 40.5ZM48.81 43.8C49.6 43.8 50.22 44.42 50.22 45.21C50.22 46 49.6 46.62 48.81 46.62C48.02 46.62 47.4 46 47.4 45.21C47.4 44.42 48.02 43.8 48.81 43.8ZM25.25 47.14C26.04 47.14 26.66 47.76 26.66 48.55C26.66 49.34 26.04 49.96 25.25 49.96C24.46 49.96 23.84 49.34 23.84 48.55C23.84 47.76 24.46 47.14 25.25 47.14ZM39.76 51.76C40.55 51.76 41.17 52.38 41.17 53.17C41.17 53.96 40.55 54.58 39.76 54.58C38.97 54.58 38.35 53.96 38.35 53.17C38.35 52.38 38.97 51.76 39.76 51.76Z" fill="white"/>
</svg>
