<svg width="78" height="80" viewBox="0 0 78 80" fill="none" xmlns="http://www.w3.org/2000/svg">
<path d="M35.8357 1.16073L3.04012 33.9563C1.48583 35.5106 1.48583 38.0306 3.04011 39.5849L35.8357 72.3805C37.39 73.9348 39.91 73.9348 41.4643 72.3805L74.2599 39.5849C75.8142 38.0306 75.8142 35.5106 74.2599 33.9563L41.4643 1.16073C39.91 -0.393554 37.39 -0.393554 35.8357 1.16073Z" fill="#415759"/>
<path d="M38.6499 59.48C51.1923 59.48 61.3599 49.3124 61.3599 36.77C61.3599 24.2276 51.1923 14.06 38.6499 14.06C26.1076 14.06 15.9399 24.2276 15.9399 36.77C15.9399 49.3124 26.1076 59.48 38.6499 59.48Z" fill="black"/>
<path d="M1.05682 76.6V67.8727H6.32386V68.8102H2.11364V71.7591H6.05114V72.6966H2.11364V75.6625H6.39205V76.6H1.05682ZM11.3991 73.8727H12.5582L13.5298 75.1511L13.7855 75.492L15.2344 77.4182H14.0753L13.1207 76.1397L12.8821 75.8159L11.3991 73.8727ZM15.5923 72.2363C15.5923 73.1568 15.4261 73.9522 15.0938 74.6227C14.7614 75.2932 14.3054 75.8102 13.7259 76.1738C13.1463 76.5375 12.4844 76.7193 11.7401 76.7193C10.9957 76.7193 10.3338 76.5375 9.75426 76.1738C9.17472 75.8102 8.71875 75.2932 8.38636 74.6227C8.05398 73.9522 7.88778 73.1568 7.88778 72.2363C7.88778 71.3159 8.05398 70.5204 8.38636 69.85C8.71875 69.1795 9.17472 68.6625 9.75426 68.2988C10.3338 67.9352 10.9957 67.7534 11.7401 67.7534C12.4844 67.7534 13.1463 67.9352 13.7259 68.2988C14.3054 68.6625 14.7614 69.1795 15.0938 69.85C15.4261 70.5204 15.5923 71.3159 15.5923 72.2363ZM14.5696 72.2363C14.5696 71.4807 14.4432 70.8429 14.1903 70.323C13.9403 69.8031 13.6009 69.4096 13.1719 69.1426C12.7457 68.8755 12.2685 68.742 11.7401 68.742C11.2116 68.742 10.733 68.8755 10.304 69.1426C9.87784 69.4096 9.53835 69.8031 9.28551 70.323C9.03551 70.8429 8.91051 71.4807 8.91051 72.2363C8.91051 72.992 9.03551 73.6298 9.28551 74.1497C9.53835 74.6696 9.87784 75.063 10.304 75.3301C10.733 75.5971 11.2116 75.7307 11.7401 75.7307C12.2685 75.7307 12.7457 75.5971 13.1719 75.3301C13.6009 75.063 13.9403 74.6696 14.1903 74.1497C14.4432 73.6298 14.5696 72.992 14.5696 72.2363ZM23.0966 67.8727H24.1534V73.6511C24.1534 74.2477 24.0128 74.7804 23.7315 75.2491C23.4531 75.715 23.0597 76.0829 22.5511 76.3528C22.0426 76.6199 21.446 76.7534 20.7614 76.7534C20.0767 76.7534 19.4801 76.6199 18.9716 76.3528C18.4631 76.0829 18.0682 75.715 17.7869 75.2491C17.5085 74.7804 17.3693 74.2477 17.3693 73.6511V67.8727H18.4261V73.5659C18.4261 73.992 18.5199 74.3713 18.7074 74.7037C18.8949 75.0332 19.1619 75.2932 19.5085 75.4835C19.858 75.671 20.2756 75.7647 20.7614 75.7647C21.2472 75.7647 21.6648 75.671 22.0142 75.4835C22.3636 75.2932 22.6307 75.0332 22.8153 74.7037C23.0028 74.3713 23.0966 73.992 23.0966 73.5659V67.8727ZM27.3207 67.8727V76.6H26.2638V67.8727H27.3207ZM29.4396 76.6V67.8727H32.3885C33.0732 67.8727 33.6328 67.9963 34.0675 68.2434C34.505 68.4878 34.8288 68.8187 35.0391 69.2363C35.2493 69.654 35.3544 70.1199 35.3544 70.6341C35.3544 71.1483 35.2493 71.6156 35.0391 72.0361C34.8317 72.4565 34.5107 72.7917 34.076 73.0417C33.6413 73.2889 33.0845 73.4125 32.4055 73.4125H30.2919V72.475H32.3714C32.8402 72.475 33.2166 72.394 33.5007 72.2321C33.7848 72.0701 33.9908 71.8514 34.1186 71.5758C34.2493 71.2974 34.3146 70.9835 34.3146 70.6341C34.3146 70.2846 34.2493 69.9721 34.1186 69.6966C33.9908 69.421 33.7834 69.2051 33.4964 69.0488C33.2095 68.8897 32.8288 68.8102 32.3544 68.8102H30.4964V76.6H29.4396ZM37.0568 67.8727H38.3182L41.2841 75.117H41.3864L44.3523 67.8727H45.6136V76.6H44.625V69.9693H44.5398L41.8125 76.6H40.858L38.1307 69.9693H38.0455V76.6H37.0568V67.8727ZM47.7326 76.6V67.8727H52.9996V68.8102H48.7894V71.7591H52.7269V72.6966H48.7894V75.6625H53.0678V76.6H47.7326ZM61.8249 67.8727V76.6H60.8022L56.0465 69.7477H55.9613V76.6H54.9045V67.8727H55.9272L60.6999 74.742H60.7852V67.8727H61.8249ZM63.4624 68.8102V67.8727H70.0078V68.8102H67.2635V76.6H66.2067V68.8102H63.4624Z" fill="white"/>
<path d="M59.54 15.89L52.14 17.21L33.34 36.01C33.63 36.44 33.82 36.96 33.82 37.51C33.82 38.03 33.67 38.52 33.41 38.93C32.96 38.79 32.48 38.71 31.99 38.71C30.59 38.71 29.34 39.32 28.47 40.29L27.66 39.48L29.19 37.95C28.79 37.44 28.4 36.92 28.02 36.39L26.29 38.11L25.12 36.94L27.06 35C26.67 34.42 26.29 33.82 25.93 33.22L22.31 36.84L27.48 42.01C27.34 42.46 27.26 42.94 27.26 43.44C27.26 44.12 27.41 44.77 27.67 45.35L21.27 51.75L19.98 50.46L17.78 52.66L19.07 53.95L18.31 54.71L20.73 57.13L21.49 56.37L22.78 57.66L24.98 55.46L23.69 54.17L30.09 47.77C30.67 48.03 31.32 48.17 32 48.17C32.5 48.17 32.97 48.09 33.43 47.95L38.61 53.13L42.23 49.51C41.63 49.14 41.03 48.77 40.45 48.37L38.51 50.31L37.34 49.14L39.07 47.42C38.54 47.04 38.02 46.65 37.51 46.25L35.98 47.78L35.17 46.97C36.14 46.1 36.75 44.84 36.75 43.45C36.75 42.98 36.68 42.52 36.55 42.08C36.97 41.81 37.46 41.65 37.99 41.65C38.54 41.65 39.03 41.81 39.46 42.09L58.26 23.29L59.58 15.89H59.54ZM53.66 20.59L54.83 21.76L37.82 38.77L36.65 37.6L53.66 20.59ZM31.98 40.36C33.69 40.36 35.06 41.73 35.06 43.44C35.06 45.15 33.69 46.52 31.98 46.52C30.27 46.52 28.9 45.15 28.9 43.44C28.9 41.73 30.27 40.36 31.98 40.36Z" fill="white"/>
</svg>
