<svg width="74" height="80" viewBox="0 0 74 80" fill="none" xmlns="http://www.w3.org/2000/svg">
<path d="M33.9563 1.16012L1.16072 33.9557C-0.393567 35.51 -0.393567 38.03 1.16072 39.5843L33.9563 72.3799C35.5106 73.9342 38.0306 73.9342 39.5849 72.3799L72.3805 39.5843C73.9348 38.03 73.9348 35.51 72.3805 33.9557L39.5849 1.16012C38.0306 -0.394162 35.5106 -0.394165 33.9563 1.16012Z" fill="#415759"/>
<path d="M36.7701 59.48C49.3124 59.48 59.4801 49.3124 59.4801 36.77C59.4801 24.2276 49.3124 14.06 36.7701 14.06C24.2277 14.06 14.0601 24.2276 14.0601 36.77C14.0601 49.3124 24.2277 59.48 36.7701 59.48Z" fill="black"/>
<path d="M2.81683 76.6V67.8727H8.04978V68.8102H3.87365V71.7591H7.65774V72.6966H3.87365V76.6H2.81683ZM9.12791 76.6H8.01995L11.2245 67.8727H12.3154L15.52 76.6H14.412L11.804 69.2534H11.7359L9.12791 76.6ZM9.537 73.1909H14.0029V74.1284H9.537V73.1909ZM16.417 67.8727L19.0079 75.2193H19.1102L21.7011 67.8727H22.809L19.6045 76.6H18.5136L15.309 67.8727H16.417ZM31.1219 72.2363C31.1219 73.1568 30.9557 73.9522 30.6233 74.6227C30.2909 75.2932 29.8349 75.8102 29.2554 76.1738C28.6758 76.5375 28.0139 76.7193 27.2696 76.7193C26.5253 76.7193 25.8633 76.5375 25.2838 76.1738C24.7043 75.8102 24.2483 75.2932 23.9159 74.6227C23.5835 73.9522 23.4173 73.1568 23.4173 72.2363C23.4173 71.3159 23.5835 70.5204 23.9159 69.85C24.2483 69.1795 24.7043 68.6625 25.2838 68.2988C25.8633 67.9352 26.5253 67.7534 27.2696 67.7534C28.0139 67.7534 28.6758 67.9352 29.2554 68.2988C29.8349 68.6625 30.2909 69.1795 30.6233 69.85C30.9557 70.5204 31.1219 71.3159 31.1219 72.2363ZM30.0991 72.2363C30.0991 71.4807 29.9727 70.8429 29.7199 70.323C29.4699 69.8031 29.1304 69.4096 28.7014 69.1426C28.2753 68.8755 27.798 68.742 27.2696 68.742C26.7412 68.742 26.2625 68.8755 25.8335 69.1426C25.4074 69.4096 25.0679 69.8031 24.8151 70.323C24.5651 70.8429 24.4401 71.4807 24.4401 72.2363C24.4401 72.992 24.5651 73.6298 24.8151 74.1497C25.0679 74.6696 25.4074 75.063 25.8335 75.3301C26.2625 75.5971 26.7412 75.7307 27.2696 75.7307C27.798 75.7307 28.2753 75.5971 28.7014 75.3301C29.1304 75.063 29.4699 74.6696 29.7199 74.1497C29.9727 73.6298 30.0991 72.992 30.0991 72.2363ZM32.8989 76.6V67.8727H35.8477C36.5295 67.8727 37.0892 67.9892 37.5267 68.2221C37.9642 68.4522 38.2881 68.769 38.4983 69.1724C38.7085 69.5758 38.8136 70.0346 38.8136 70.5488C38.8136 71.063 38.7085 71.519 38.4983 71.9167C38.2881 72.3145 37.9656 72.627 37.531 72.8542C37.0963 73.0787 36.5409 73.1909 35.8648 73.1909H33.4784V72.2363H35.8307C36.2966 72.2363 36.6716 72.1682 36.9557 72.0318C37.2426 71.8954 37.45 71.7022 37.5778 71.4522C37.7085 71.1994 37.7739 70.8983 37.7739 70.5488C37.7739 70.1994 37.7085 69.894 37.5778 69.6326C37.4472 69.3713 37.2383 69.1696 36.9514 69.0275C36.6645 68.8826 36.2852 68.8102 35.8136 68.8102H33.9557V76.6H32.8989ZM37.0068 72.6795L39.1545 76.6H37.9273L35.8136 72.6795H37.0068ZM41.6315 67.8727V76.6H40.5746V67.8727H41.6315ZM43.2731 68.8102V67.8727H49.8186V68.8102H47.0743V76.6H46.0175V68.8102H43.2731ZM51.4496 76.6V67.8727H56.7167V68.8102H52.5065V71.7591H56.444V72.6966H52.5065V75.6625H56.7849V76.6H51.4496ZM63.3942 70.0545C63.3431 69.6227 63.1357 69.2875 62.7721 69.0488C62.4084 68.8102 61.9624 68.6909 61.434 68.6909C61.0477 68.6909 60.7096 68.7534 60.4198 68.8784C60.1329 69.0034 59.9084 69.1753 59.7465 69.394C59.5874 69.6128 59.5079 69.8613 59.5079 70.1397C59.5079 70.3727 59.5633 70.573 59.6741 70.7406C59.7877 70.9054 59.9326 71.0432 60.1087 71.154C60.2849 71.2619 60.4695 71.3514 60.6627 71.4224C60.8559 71.4906 61.0334 71.546 61.1954 71.5886L62.0817 71.8272C62.309 71.8869 62.5619 71.9693 62.8403 72.0744C63.1215 72.1795 63.39 72.323 63.6457 72.5048C63.9042 72.6838 64.1173 72.9139 64.2849 73.1951C64.4525 73.4764 64.5363 73.8216 64.5363 74.2307C64.5363 74.7022 64.4127 75.1284 64.1655 75.5091C63.9212 75.8897 63.5633 76.1923 63.0917 76.4167C62.6229 76.6412 62.0533 76.7534 61.3829 76.7534C60.7579 76.7534 60.2167 76.6525 59.7593 76.4508C59.3048 76.2491 58.9468 75.9679 58.6854 75.6071C58.4269 75.2463 58.2806 74.8272 58.2465 74.35H59.3374C59.3658 74.6795 59.4766 74.9522 59.6698 75.1682C59.8658 75.3812 60.113 75.5403 60.4113 75.6454C60.7124 75.7477 61.0363 75.7988 61.3829 75.7988C61.7863 75.7988 62.1485 75.7335 62.4695 75.6028C62.7905 75.4693 63.0448 75.2846 63.2323 75.0488C63.4198 74.8102 63.5136 74.5318 63.5136 74.2136C63.5136 73.9238 63.4326 73.688 63.2707 73.5062C63.1087 73.3244 62.8957 73.1767 62.6315 73.063C62.3673 72.9494 62.0817 72.85 61.7749 72.7647L60.7011 72.4579C60.0192 72.2619 59.4795 71.9821 59.0817 71.6184C58.684 71.2548 58.4852 70.779 58.4852 70.1909C58.4852 69.7022 58.6173 69.2761 58.8815 68.9125C59.1485 68.546 59.5065 68.2619 59.9553 68.0602C60.407 67.8557 60.9113 67.7534 61.4681 67.7534C62.0306 67.7534 62.5306 67.8542 62.9681 68.0559C63.4056 68.2548 63.7522 68.5275 64.0079 68.8741C64.2664 69.2207 64.4028 69.6142 64.417 70.0545H63.3942Z" fill="white"/>
<path d="M36.8299 15.59L32.2199 24.93L21.9199 26.43L29.3699 33.7L27.6099 43.96L36.8199 39.12L46.0299 43.96L44.2699 33.7L51.7199 26.43L41.4199 24.93L36.8099 15.59H36.8299ZM23.4199 40.6L20.9499 45.61L15.4199 46.41L19.4199 50.31L18.4799 55.82L23.4299 53.22L28.3799 55.82L27.4399 50.31L31.4399 46.41L25.9099 45.61L23.4399 40.6H23.4199ZM50.1199 40.6L47.6499 45.61L42.1199 46.41L46.1199 50.31L45.1799 55.82L50.1299 53.22L55.0799 55.82L54.1399 50.31L58.1399 46.41L52.6099 45.61L50.1399 40.6H50.1199Z" fill="white"/>
</svg>
