<svg width="146" height="88" viewBox="0 0 146 88" fill="none" xmlns="http://www.w3.org/2000/svg">
<path d="M2.57112e-06 1.33339C2.57112e-06 2.13339 0.584001 2.80006 1.679 3.00006C2.55499 3.20006 13.14 5.20006 25.1849 7.53339C45.4059 11.3334 47.0849 11.8001 46.8659 13.0001C46.3549 15.3334 45.1869 16.2001 43.8729 15.0667C42.3399 13.8001 40.2229 13.5334 22.2649 12.3334C13.797 11.8001 5.40198 11.1334 3.50399 10.9334C0.292002 10.6001 2.57112e-06 10.6667 2.57112e-06 11.8667C2.57112e-06 13.5334 -0.0729975 13.5334 24.3819 15.3334C34.3829 16.0667 42.6319 16.7334 42.7049 16.8001C42.8509 16.9334 42.7049 18.0001 42.5589 19.1334L42.1939 21.3334H21.0969H2.57112e-06V23.8667C2.57112e-06 25.6667 0.876 27.8001 2.99299 31.0667C4.67199 33.6001 6.13198 35.8001 6.27798 35.9334C6.49698 36.1334 39.2009 28.9334 41.4639 28.2001C41.9749 28.0001 42.3399 28.4667 42.3399 29.5334C42.3399 30.4667 42.6319 32.0001 43.0699 32.9334C43.7269 34.6001 43.6539 34.6667 36.2809 36.7334C32.1929 37.8667 25.4039 39.7334 21.2429 40.9334L13.651 43.1334L20.6589 47.5334C24.5279 50.0001 27.8129 52.0001 28.0319 52.0001C28.2509 52.0001 32.5579 49.6001 37.5949 46.6667C42.6319 43.7334 47.0118 41.2667 47.3769 41.1334C47.6688 41.0667 49.1288 41.9334 50.5158 43.0667L53.1438 45.2001L46.6469 50.3334C43.0699 53.1334 40.1499 55.6667 40.1499 55.8667C40.1499 56.1334 42.4859 57.1334 45.2599 58.0667L50.3698 59.8L54.1658 53.9334C57.1588 49.4001 58.1808 48.2667 58.9108 48.8001C59.4948 49.2001 60.0058 49.4001 60.0788 49.2667C62.7068 46.1334 63.6558 44.4001 62.9258 44.1334C60.2248 43.3334 54.8228 39.2667 52.7788 36.4667C49.6398 32.1334 47.3038 26.2667 47.3769 22.6001C47.3769 20.8667 48.1798 17.6667 49.1288 15.4667C50.7348 11.9334 51.9028 10.2001 56.9398 3.80006L58.0348 2.40006L55.6258 3.66673C54.3118 4.40006 52.1948 5.93339 50.9538 7.06672L48.6178 9.13339L38.7629 7.20006C21.2429 3.80006 0.948999 5.72205e-05 0.438001 5.72205e-05C0.219002 5.72205e-05 2.57112e-06 0.60006 2.57112e-06 1.33339ZM44.5299 25.8001C44.5299 27.4001 43.5079 27.8667 42.7049 26.6667C41.9019 25.5334 39.4929 25.8667 23.4329 29.4667L7.81098 33.0001L6.64298 31.3334C5.98598 30.4667 4.59899 28.7334 3.50399 27.6001C2.33599 26.4667 1.46 25.1334 1.46 24.7334C1.46 24.2001 7.15398 24.0001 21.3889 24.0001C32.3389 24.0001 41.7559 23.7334 42.3399 23.3334C43.5809 22.6001 44.5299 23.6001 44.5299 25.8001ZM48.8368 35.6667C51.5378 40.0001 51.5378 40.2667 49.5668 39.3334C47.3038 38.2001 45.6979 38.8001 37.2299 43.7334C32.9959 46.1334 29.1999 48.2667 28.6889 48.4667C27.5939 48.8667 21.8999 45.4001 21.8999 44.3334C21.8999 43.9334 26.1339 42.4001 31.4629 40.9334C42.8509 37.8667 45.1139 36.7334 45.7709 34.0001C45.9899 32.8667 46.2819 32.0001 46.3549 32.0001C46.5009 32.0001 47.5958 33.6667 48.8368 35.6667ZM56.9398 44.3334C57.7428 45.2001 57.5238 45.7334 55.6988 47.5334C54.4578 48.7334 52.5598 51.0667 51.4648 52.8001C50.2238 54.8 48.9828 56 48.1798 56C45.3329 56 46.0629 54.5334 50.8078 50.4001C54.6038 47.0667 55.6258 45.8001 55.2608 44.7334C54.8228 43.0667 55.6258 42.9334 56.9398 44.3334Z" fill="#2B252A"/>
<path d="M129.575 2.73339C122.348 4.13339 111.909 6.13339 106.434 7.20006L96.4327 9.13339L94.2427 7.06672C92.0527 5.00006 87.5997 2.26672 87.5997 2.93339C87.5997 3.13339 88.7677 4.73339 90.2277 6.46672C94.6077 11.6667 97.8197 18.4001 97.8197 22.4001C97.8197 26.4001 94.7537 34.0001 91.6147 37.7334C89.8627 39.8667 84.5337 43.4667 82.1977 44.2001C81.6867 44.3334 82.1247 45.4001 83.2197 46.8667C84.5337 48.6001 85.2637 49.0667 86.1397 48.6667C86.9427 48.2001 88.0377 49.3334 90.9577 53.8667C93.0017 57.0667 94.9727 59.6 95.3377 59.5334C97.9657 58.8667 105.12 56.2667 105.12 56C105.12 55.7334 102.127 53.2667 98.4767 50.4001L91.9067 45.1334L94.6807 43.0667C96.1407 41.9334 97.6007 41.0667 97.8927 41.1334C98.1117 41.2001 102.492 43.6667 107.529 46.6667C112.566 49.6001 116.946 52 117.165 52C117.676 52 131.473 43.1334 131.181 42.9334C131.108 42.9334 124.83 41.1334 117.165 39.0667C109.573 36.9334 102.93 35.1334 102.492 35.0001C101.908 34.8667 101.908 33.8001 102.492 31.4001C103.003 29.0667 103.514 28.0667 104.171 28.2667C105.12 28.6667 137.897 36.0001 138.408 36.0001C138.627 36.0001 140.379 33.6667 142.35 30.8001C144.832 27.3334 146 24.9334 146 23.4667V21.3334H124.538H103.149L102.638 19.2001C102.419 18.0667 102.273 17.0001 102.419 16.8667C102.565 16.7334 110.741 16.0667 120.523 15.3334C146.438 13.4667 146 13.4667 146 11.8667C146 10.6001 145.708 10.5334 141.839 10.9334C139.503 11.1334 131.035 11.8001 123.005 12.3334C104.536 13.6001 102.492 13.8667 101.47 15.0001C100.959 15.5334 100.302 16.0001 100.01 16.0001C99.2067 16.0001 97.6737 12.5334 98.3307 11.9334C98.7687 11.5334 144.029 2.66673 145.635 2.66673C145.854 2.66673 146 2.06673 146 1.33339C146 -0.39994 145.562 -0.39994 129.575 2.73339ZM123.662 24.0001C136.656 24.0001 143.08 24.2001 143.08 24.6667C143.08 25.9334 137.24 32.6667 136.145 32.6667C135.561 32.6667 128.699 31.1334 120.888 29.3334C106.361 25.9334 103.368 25.4667 102.565 26.6667C101.689 27.9334 100.74 27.3334 100.74 25.4667C100.74 23.0667 101.324 22.5334 103.003 23.3334C103.733 23.7334 112.639 24.0001 123.662 24.0001ZM100.813 36.4001C101.689 37.2001 106.215 38.8667 112.785 40.6667C118.625 42.3334 123.37 43.9334 123.37 44.3334C123.297 45.3334 117.603 48.8667 116.581 48.4667C116.07 48.2667 111.909 46.0001 107.31 43.4001C100.01 39.2001 98.6227 38.6667 96.5057 39.0001L94.0967 39.4001L96.5057 35.4001C98.6957 31.7334 98.9147 31.5334 99.1337 33.2001C99.2797 34.2001 100.01 35.6001 100.813 36.4001ZM90.0087 44.6667C89.7167 45.6667 90.8117 47.1334 94.4617 50.4667C97.8197 53.6 98.9877 55.0667 98.3307 55.4667C96.5787 56.4667 95.7027 55.9334 93.7317 52.8C92.6367 51.0667 90.7387 48.7334 89.5707 47.5334C87.7457 45.7334 87.5267 45.2001 88.3297 44.3334C89.6437 42.9334 90.4467 43.0667 90.0087 44.6667Z" fill="#2B252A"/>
<path d="M67.6707 10.7332L62.8528 17.9998H72.3427C77.5257 17.9998 81.7597 18.1998 81.7597 18.3998C81.7597 19.3998 72.7807 31.9332 72.2697 31.6665C71.9047 31.4665 69.7147 28.4665 67.3787 24.9998C65.0427 21.5332 62.9988 18.6665 62.7798 18.6665C62.4878 18.6665 54.0198 30.7998 53.4358 32.1332C53.2898 32.3998 61.9038 32.6665 72.5617 32.6665C83.2197 32.6665 91.9797 32.5332 91.9797 32.3998C91.9797 32.1998 90.0817 29.2665 87.6727 25.8665C85.3367 22.4665 80.9567 15.9998 77.9637 11.5332L72.4887 3.39984L67.6707 10.7332ZM74.4597 11.4665C76.6497 14.7332 76.3577 15.3332 72.7077 15.3332C70.8827 15.3332 69.2767 15.0665 69.0577 14.7998C68.6927 14.2665 71.9777 9.33317 72.7077 9.33317C72.8537 9.33317 73.6567 10.3332 74.4597 11.4665ZM64.9698 26.3332C66.8677 29.1998 66.4297 29.9998 62.7798 29.9998C61.2468 29.9998 59.7138 29.6665 59.4948 29.3332C58.9838 28.5998 61.8308 23.9998 62.7798 23.9998C63.1448 23.9998 64.0938 25.0665 64.9698 26.3332ZM84.6067 26.5998C85.4097 27.9998 85.8477 29.3332 85.6287 29.5998C85.3367 29.7998 83.7307 29.9998 81.9787 29.9998C79.5697 29.9998 78.8397 29.7332 78.8397 28.9332C78.8397 27.6665 81.6137 23.9998 82.4897 23.9998C82.8547 23.9998 83.8037 25.1332 84.6067 26.5998Z" fill="#2B252A"/>
<path d="M69.7147 41.8C68.1818 44.2667 65.7728 47.9333 64.4588 49.9333L61.9768 53.4667L63.7288 55.2667C70.0797 61.6 70.4447 62.4 67.9628 64.0667C66.6488 65 66.6488 65.2667 68.9848 73C70.2987 77.4 71.6857 81.8667 71.9777 83L72.4887 85L73.1457 83C73.5107 81.8667 74.8247 77.3333 76.2117 72.8C78.4747 65 78.5477 64.6 77.2337 63.9333C75.0437 62.8667 75.7007 61 79.4967 57.2L83.0737 53.6L77.7447 45.4L72.4157 37.2667L69.7147 41.8ZM76.5767 48.8667C79.0587 53.0667 79.0587 53.2 77.8907 54.7333C77.1607 55.6 75.7737 57.4 74.7517 58.6667C73.4377 60.3333 72.9997 61.4667 73.3647 62.6667C74.4597 66.8 74.5327 68.0667 73.7297 70.2667C72.7077 73.2667 71.9777 72.9333 70.8827 68.9333C70.1527 66.3333 70.2257 65.6 71.1747 64.2C72.7077 62.0667 72.1967 60.2667 68.9848 56.8667C67.5978 55.3333 66.4298 53.6667 66.4298 53.0667C66.4298 52.1333 70.0067 46.0667 71.6857 44.1333C72.7807 43 73.6567 43.8667 76.5767 48.8667Z" fill="#2B252A"/>
<path d="M84.7527 57.6L83.2197 59.0667L85.1177 63.8667C86.8697 68.1334 86.9427 68.9334 86.1397 70.3334C85.6287 71.2667 85.3367 72.0667 85.4827 72.1334C85.6287 72.2667 87.3807 73.6667 89.3516 75.3334L92.8556 78.3334L92.3446 75.4667L91.8336 72.6L97.2356 73.0667C100.156 73.2667 102.711 73.6 102.857 73.7334C103.076 73.8667 100.74 81.8667 98.9146 87C98.3306 88.6667 99.7176 87.2 105.485 79.8C109.938 74.0667 110.303 72.2667 107.894 69.3334C106.507 67.5334 105.85 67.3334 102.565 67.3334C100.448 67.3334 97.2356 67.1334 95.4106 66.9334L92.1256 66.4667L90.8116 62.2667C90.0086 59.4667 89.0596 57.6667 87.9647 57.0667C86.4317 56.1334 86.2127 56.2 84.7527 57.6ZM91.9066 68.9334C92.5636 69.6 92.4906 70 91.6876 70.6667C90.2276 71.7334 89.1326 71 89.5706 69.3334C90.0086 67.8 90.7386 67.6667 91.9066 68.9334Z" fill="#2B252A"/>
<path d="M55.9178 58.1333C55.4068 59 54.5308 61.2 54.0198 63.0667C53.2168 66.4667 53.1438 66.5333 49.8588 66.9333C48.0338 67.1333 44.8218 67.3333 42.7049 67.3333C39.4199 67.3333 38.7629 67.5333 37.3759 69.3333C34.8209 72.4667 35.3319 74.1333 40.9529 81.4C43.7998 85 46.2088 88 46.2818 88C46.4278 88 45.4788 84.8667 44.3108 81C43.0699 77.1333 42.2669 73.8667 42.4129 73.7333C42.5589 73.6 45.1138 73.2667 48.0338 73L53.3628 72.5333L52.8518 75.4L52.3408 78.3333L55.9178 75.3333C57.8888 73.6667 59.5678 72.3333 59.6408 72.2667C59.7868 72.2667 59.4948 71.3333 58.9838 70.2C58.2538 68.5333 58.4728 67.5333 60.0788 63.6667C61.9038 59.4 61.9768 59 60.8088 57.8667C59.2028 56.2667 57.1588 56.3333 55.9178 58.1333ZM55.4798 69.6667C55.4798 71.4667 54.6038 71.8 53.3628 70.4667C52.7788 69.8 52.8518 69.3333 53.4358 68.8C54.8228 67.5333 55.4798 67.8667 55.4798 69.6667Z" fill="#2B252A"/>
</svg>
