<svg width="74" height="78" viewBox="0 0 74 78" fill="none" xmlns="http://www.w3.org/2000/svg">
<path d="M32.6099 -1.1857L-0.185715 31.6099C-1.74 33.1642 -1.74 35.6842 -0.185715 37.2385L32.6099 70.0341C34.1642 71.5884 36.6842 71.5884 38.2385 70.0341L71.0341 37.2385C72.5884 35.6842 72.5884 33.1642 71.0341 31.6099L38.2385 -1.1857C36.6842 -2.73999 34.1642 -2.73999 32.6099 -1.1857Z" fill="#415759"/>
<path d="M35.4283 57.1394C47.9706 57.1394 58.1383 46.9718 58.1383 34.4294C58.1383 21.887 47.9706 11.7194 35.4283 11.7194C22.8859 11.7194 12.7183 21.887 12.7183 34.4294C12.7183 46.9718 22.8859 57.1394 35.4283 57.1394Z" fill="black"/>
<path d="M-0.74494 65.5322H0.516424L3.48233 72.7765H3.58461L6.55052 65.5322H7.81188V74.2595H6.82324V67.6288H6.73802L4.01074 74.2595H3.0562L0.328924 67.6288H0.243697V74.2595H-0.74494V65.5322ZM10.2888 74.2595H9.18084L12.3854 65.5322H13.4763L16.6808 74.2595H15.5729L12.9649 66.9129H12.8968L10.2888 74.2595ZM10.6979 70.8504H15.1638V71.7879H10.6979V70.8504ZM16.5434 66.4697V65.5322H23.0889V66.4697H20.3445V74.2595H19.2877V66.4697H16.5434ZM24.7199 74.2595V65.5322H29.9869V66.4697H25.7767V69.4186H29.7142V70.3561H25.7767V73.322H30.0551V74.2595H24.7199ZM31.8918 74.2595V65.5322H34.8406C35.5225 65.5322 36.0821 65.6487 36.5196 65.8816C36.9571 66.1117 37.281 66.4285 37.4912 66.8319C37.7014 67.2353 37.8066 67.6941 37.8066 68.2083C37.8066 68.7225 37.7014 69.1785 37.4912 69.5762C37.281 69.9739 36.9585 70.2864 36.5239 70.5137C36.0892 70.7382 35.5338 70.8504 34.8577 70.8504H32.4713V69.8958H34.8236C35.2895 69.8958 35.6645 69.8276 35.9486 69.6913C36.2355 69.5549 36.4429 69.3617 36.5708 69.1117C36.7014 68.8589 36.7668 68.5578 36.7668 68.2083C36.7668 67.8589 36.7014 67.5535 36.5708 67.2921C36.4401 67.0308 36.2313 66.8291 35.9443 66.687C35.6574 66.5421 35.2781 66.4697 34.8066 66.4697H32.9486V74.2595H31.8918ZM35.9997 70.339L38.1475 74.2595H36.9202L34.8066 70.339H35.9997ZM40.6244 65.5322V74.2595H39.5676V65.5322H40.6244ZM43.1013 74.2595H41.9933L45.1979 65.5322H46.2888L49.4933 74.2595H48.3854L45.7774 66.9129H45.7093L43.1013 74.2595ZM43.5104 70.8504H47.9763V71.7879H43.5104V70.8504ZM50.8527 74.2595V65.5322H51.9095V73.322H55.9664V74.2595H50.8527ZM62.3754 67.714C62.3243 67.2822 62.1169 66.947 61.7533 66.7083C61.3896 66.4697 60.9436 66.3504 60.4152 66.3504C60.0289 66.3504 59.6908 66.4129 59.401 66.5379C59.1141 66.6629 58.8896 66.8347 58.7277 67.0535C58.5686 67.2722 58.4891 67.5208 58.4891 67.7992C58.4891 68.0322 58.5445 68.2325 58.6553 68.4001C58.7689 68.5649 58.9138 68.7026 59.0899 68.8134C59.2661 68.9214 59.4507 69.0109 59.6439 69.0819C59.8371 69.1501 60.0146 69.2055 60.1766 69.2481L61.0629 69.4867C61.2902 69.5464 61.5431 69.6288 61.8215 69.7339C62.1027 69.839 62.3712 69.9825 62.6269 70.1643C62.8854 70.3433 63.0985 70.5734 63.2661 70.8546C63.4337 71.1359 63.5175 71.4811 63.5175 71.8901C63.5175 72.3617 63.3939 72.7879 63.1468 73.1686C62.9024 73.5492 62.5445 73.8518 62.0729 74.0762C61.6041 74.3007 61.0345 74.4129 60.3641 74.4129C59.7391 74.4129 59.1979 74.312 58.7405 74.1103C58.286 73.9086 57.928 73.6274 57.6666 73.2666C57.4081 72.9058 57.2618 72.4867 57.2277 72.0095H58.3186C58.347 72.339 58.4578 72.6117 58.651 72.8276C58.847 73.0407 59.0942 73.1998 59.3925 73.3049C59.6936 73.4072 60.0175 73.4583 60.3641 73.4583C60.7675 73.4583 61.1297 73.393 61.4507 73.2623C61.7718 73.1288 62.026 72.9441 62.2135 72.7083C62.401 72.4697 62.4948 72.1913 62.4948 71.8731C62.4948 71.5833 62.4138 71.3475 62.2519 71.1657C62.0899 70.9839 61.8769 70.8362 61.6127 70.7225C61.3485 70.6089 61.0629 70.5095 60.7561 70.4242L59.6823 70.1174C59.0004 69.9214 58.4607 69.6416 58.0629 69.2779C57.6652 68.9143 57.4664 68.4384 57.4664 67.8504C57.4664 67.3617 57.5985 66.9356 57.8627 66.572C58.1297 66.2055 58.4877 65.9214 58.9365 65.7197C59.3882 65.5151 59.8925 65.4129 60.4493 65.4129C61.0118 65.4129 61.5118 65.5137 61.9493 65.7154C62.3868 65.9143 62.7334 66.187 62.9891 66.5336C63.2476 66.8802 63.384 67.2737 63.3982 67.714H62.3754Z" fill="white"/>
<path d="M34.6283 13.9394L22.2083 23.2494L27.9783 26.1294L34.6283 21.1394V13.9294V13.9394ZM36.2283 13.9394V21.1494L42.8783 26.1394L48.6483 23.2594L36.2283 13.9494V13.9394ZM37.0483 15.9194L40.2983 18.2694C38.0683 17.8994 37.6583 19.0894 36.9883 20.8294L37.0483 15.9294V15.9194ZM33.6983 16.2694L33.6783 19.2294C31.7183 19.3294 28.6383 20.5094 24.1083 23.1294L33.7083 16.2694H33.6983ZM35.4283 22.5494L28.8583 27.4694V41.3994L35.4283 46.3194L41.9983 41.3994V27.4694L35.4283 22.5494ZM35.7983 24.1194C32.4683 27.1194 30.4183 38.7494 30.1483 41.7794L30.1183 28.3694L35.7983 24.1094V24.1194ZM21.4983 24.6894V44.1894L27.2683 41.3094V27.5694L21.4983 24.6894ZM49.3583 24.6894L43.5883 27.5694V41.3094L49.3583 44.1894V24.6894ZM22.6183 26.7594L26.2083 28.6094C22.0983 32.0494 23.4783 39.4994 22.4883 43.0294L22.6083 26.7594H22.6183ZM27.9783 42.7394L22.2083 45.6194L34.6283 54.9294V47.7194L27.9783 42.7294V42.7394ZM42.8783 42.7394L36.2283 47.7294V54.9394L48.6483 45.6294L42.8783 42.7494V42.7394ZM27.8483 44.2594C26.1083 45.6994 26.3583 46.4194 28.2483 49.0894L24.3183 45.7194L27.8483 44.2694V44.2594Z" fill="white"/>
</svg>
