<svg width="74" height="80" viewBox="0 0 74 80" fill="none" xmlns="http://www.w3.org/2000/svg">
<path d="M33.9563 1.16012L1.16072 33.9557C-0.393567 35.51 -0.393567 38.03 1.16072 39.5843L33.9563 72.3799C35.5106 73.9342 38.0306 73.9342 39.5849 72.3799L72.3805 39.5843C73.9348 38.03 73.9348 35.51 72.3805 33.9557L39.5849 1.16012C38.0306 -0.394162 35.5106 -0.394165 33.9563 1.16012Z" fill="#415759"/>
<path d="M36.7701 59.48C49.3124 59.48 59.4801 49.3124 59.4801 36.77C59.4801 24.2276 49.3124 14.06 36.7701 14.06C24.2277 14.06 14.0601 24.2276 14.0601 36.77C14.0601 49.3124 24.2277 59.48 36.7701 59.48Z" fill="black"/>
<path d="M2.23675 67.8727H3.49811L6.46402 75.117H6.5663L9.5322 67.8727H10.7936V76.6H9.80493V69.9693H9.7197L6.99243 76.6H6.03789L3.31061 69.9693H3.22539V76.6H2.23675V67.8727ZM20.2762 72.2363C20.2762 73.1568 20.11 73.9522 19.7776 74.6227C19.4452 75.2932 18.9892 75.8102 18.4097 76.1738C17.8301 76.5375 17.1682 76.7193 16.4239 76.7193C15.6796 76.7193 15.0176 76.5375 14.4381 76.1738C13.8586 75.8102 13.4026 75.2932 13.0702 74.6227C12.7378 73.9522 12.5716 73.1568 12.5716 72.2363C12.5716 71.3159 12.7378 70.5204 13.0702 69.85C13.4026 69.1795 13.8586 68.6625 14.4381 68.2988C15.0176 67.9352 15.6796 67.7534 16.4239 67.7534C17.1682 67.7534 17.8301 67.9352 18.4097 68.2988C18.9892 68.6625 19.4452 69.1795 19.7776 69.85C20.11 70.5204 20.2762 71.3159 20.2762 72.2363ZM19.2534 72.2363C19.2534 71.4807 19.127 70.8429 18.8742 70.323C18.6242 69.8031 18.2847 69.4096 17.8557 69.1426C17.4296 68.8755 16.9523 68.742 16.4239 68.742C15.8955 68.742 15.4168 68.8755 14.9878 69.1426C14.5617 69.4096 14.2222 69.8031 13.9693 70.323C13.7193 70.8429 13.5943 71.4807 13.5943 72.2363C13.5943 72.992 13.7193 73.6298 13.9693 74.1497C14.2222 74.6696 14.5617 75.063 14.9878 75.3301C15.4168 75.5971 15.8955 75.7307 16.4239 75.7307C16.9523 75.7307 17.4296 75.5971 17.8557 75.3301C18.2847 75.063 18.6242 74.6696 18.8742 74.1497C19.127 73.6298 19.2534 72.992 19.2534 72.2363ZM28.9736 67.8727V76.6H27.9509L23.1952 69.7477H23.11V76.6H22.0532V67.8727H23.0759L27.8486 74.742H27.9338V67.8727H28.9736ZM35.861 70.0545C35.8099 69.6227 35.6025 69.2875 35.2389 69.0488C34.8752 68.8102 34.4292 68.6909 33.9008 68.6909C33.5144 68.6909 33.1764 68.7534 32.8866 68.8784C32.5997 69.0034 32.3752 69.1753 32.2133 69.394C32.0542 69.6128 31.9747 69.8613 31.9747 70.1397C31.9747 70.3727 32.0301 70.573 32.1409 70.7406C32.2545 70.9054 32.3994 71.0432 32.5755 71.154C32.7517 71.2619 32.9363 71.3514 33.1295 71.4224C33.3227 71.4906 33.5002 71.546 33.6622 71.5886L34.5485 71.8272C34.7758 71.8869 35.0287 71.9693 35.3071 72.0744C35.5883 72.1795 35.8568 72.323 36.1125 72.5048C36.371 72.6838 36.5841 72.9139 36.7517 73.1951C36.9193 73.4764 37.0031 73.8216 37.0031 74.2307C37.0031 74.7022 36.8795 75.1284 36.6323 75.5091C36.388 75.8897 36.0301 76.1923 35.5585 76.4167C35.0897 76.6412 34.5201 76.7534 33.8497 76.7534C33.2247 76.7534 32.6835 76.6525 32.2261 76.4508C31.7716 76.2491 31.4136 75.9679 31.1522 75.6071C30.8937 75.2463 30.7474 74.8272 30.7133 74.35H31.8042C31.8326 74.6795 31.9434 74.9522 32.1366 75.1682C32.3326 75.3812 32.5798 75.5403 32.8781 75.6454C33.1792 75.7477 33.5031 75.7988 33.8497 75.7988C34.2531 75.7988 34.6153 75.7335 34.9363 75.6028C35.2573 75.4693 35.5116 75.2846 35.6991 75.0488C35.8866 74.8102 35.9804 74.5318 35.9804 74.2136C35.9804 73.9238 35.8994 73.688 35.7375 73.5062C35.5755 73.3244 35.3625 73.1767 35.0983 73.063C34.8341 72.9494 34.5485 72.85 34.2417 72.7647L33.1679 72.4579C32.486 72.2619 31.9463 71.9821 31.5485 71.6184C31.1508 71.2548 30.9519 70.779 30.9519 70.1909C30.9519 69.7022 31.0841 69.2761 31.3483 68.9125C31.6153 68.546 31.9733 68.2619 32.4221 68.0602C32.8738 67.8557 33.3781 67.7534 33.9349 67.7534C34.4974 67.7534 34.9974 67.8542 35.4349 68.0559C35.8724 68.2548 36.219 68.5275 36.4747 68.8741C36.7332 69.2207 36.8696 69.6142 36.8838 70.0545H35.861ZM38.2634 68.8102V67.8727H44.8088V68.8102H42.0645V76.6H41.0077V68.8102H38.2634ZM46.4399 76.6V67.8727H51.7069V68.8102H47.4967V71.7591H51.4342V72.6966H47.4967V75.6625H51.7751V76.6H46.4399ZM53.6117 76.6V67.8727H56.5606C57.2424 67.8727 57.8021 67.9892 58.2396 68.2221C58.6771 68.4522 59.001 68.769 59.2112 69.1724C59.4214 69.5758 59.5265 70.0346 59.5265 70.5488C59.5265 71.063 59.4214 71.519 59.2112 71.9167C59.001 72.3145 58.6785 72.627 58.2439 72.8542C57.8092 73.0787 57.2538 73.1909 56.5777 73.1909H54.1913V72.2363H56.5436C57.0095 72.2363 57.3845 72.1682 57.6686 72.0318C57.9555 71.8954 58.1629 71.7022 58.2907 71.4522C58.4214 71.1994 58.4867 70.8983 58.4867 70.5488C58.4867 70.1994 58.4214 69.894 58.2907 69.6326C58.16 69.3713 57.9512 69.1696 57.6643 69.0275C57.3774 68.8826 56.9981 68.8102 56.5265 68.8102H54.6686V76.6H53.6117ZM57.7197 72.6795L59.8674 76.6H58.6402L56.5265 72.6795H57.7197ZM66.0603 70.0545C66.0091 69.6227 65.8017 69.2875 65.4381 69.0488C65.0745 68.8102 64.6284 68.6909 64.1 68.6909C63.7137 68.6909 63.3756 68.7534 63.0858 68.8784C62.7989 69.0034 62.5745 69.1753 62.4125 69.394C62.2534 69.6128 62.1739 69.8613 62.1739 70.1397C62.1739 70.3727 62.2293 70.573 62.3401 70.7406C62.4537 70.9054 62.5986 71.0432 62.7747 71.154C62.9509 71.2619 63.1355 71.3514 63.3287 71.4224C63.5219 71.4906 63.6995 71.546 63.8614 71.5886L64.7478 71.8272C64.975 71.8869 65.2279 71.9693 65.5063 72.0744C65.7875 72.1795 66.056 72.323 66.3117 72.5048C66.5702 72.6838 66.7833 72.9139 66.9509 73.1951C67.1185 73.4764 67.2023 73.8216 67.2023 74.2307C67.2023 74.7022 67.0787 75.1284 66.8316 75.5091C66.5872 75.8897 66.2293 76.1923 65.7577 76.4167C65.289 76.6412 64.7193 76.7534 64.0489 76.7534C63.4239 76.7534 62.8827 76.6525 62.4253 76.4508C61.9708 76.2491 61.6128 75.9679 61.3515 75.6071C61.0929 75.2463 60.9466 74.8272 60.9125 74.35H62.0034C62.0318 74.6795 62.1426 74.9522 62.3358 75.1682C62.5318 75.3812 62.779 75.5403 63.0773 75.6454C63.3784 75.7477 63.7023 75.7988 64.0489 75.7988C64.4523 75.7988 64.8145 75.7335 65.1355 75.6028C65.4566 75.4693 65.7108 75.2846 65.8983 75.0488C66.0858 74.8102 66.1796 74.5318 66.1796 74.2136C66.1796 73.9238 66.0986 73.688 65.9367 73.5062C65.7747 73.3244 65.5617 73.1767 65.2975 73.063C65.0333 72.9494 64.7478 72.85 64.4409 72.7647L63.3671 72.4579C62.6853 72.2619 62.1455 71.9821 61.7478 71.6184C61.35 71.2548 61.1512 70.779 61.1512 70.1909C61.1512 69.7022 61.2833 69.2761 61.5475 68.9125C61.8145 68.546 62.1725 68.2619 62.6213 68.0602C63.073 67.8557 63.5773 67.7534 64.1341 67.7534C64.6966 67.7534 65.1966 67.8542 65.6341 68.0559C66.0716 68.2548 66.4182 68.5275 66.6739 68.8741C66.9324 69.2207 67.0688 69.6142 67.083 70.0545H66.0603Z" fill="white"/>
<path d="M36.77 16.18C36.67 16.31 36.57 16.43 36.47 16.56L34.78 29.56C35.3 29.94 36.02 30.17 36.77 30.17C37.52 30.17 38.24 29.94 38.76 29.56L37.07 16.56C36.97 16.43 36.87 16.3 36.77 16.18ZM18.69 21.42C18.92 21.85 19.17 22.32 19.41 22.82C20.27 24.66 21.14 26.86 20.5 28.74C20.07 30.01 18.83 30.68 17.77 31.22C17.4 31.41 17.07 31.56 16.76 31.69C17.02 32.04 17.31 32.46 17.61 32.95C18.36 34.15 19.17 35.59 19.12 37.04C19.05 38.8 17.88 40.59 16.8 42.07C16.68 42.23 16.57 42.36 16.46 42.51C17.7 42.14 18.93 41.83 20.1 41.72C21.59 41.58 23.06 41.79 24.22 42.61C24.34 42.48 24.48 42.35 24.62 42.25C24.62 41.36 24.62 40.29 24.71 39.11C23.65 38.99 22.76 38.99 21.83 39.69L21.19 40.17L20.23 38.89L20.87 38.41C21.9 37.64 22.97 37.46 23.96 37.47C24.03 37.47 24.09 37.47 24.16 37.47C24.4 37.47 24.64 37.5 24.87 37.52C24.96 36.8 25.09 36.07 25.26 35.35C24 34.47 22.14 33.54 20.39 33.49L19.59 33.47L19.63 31.87L20.43 31.89C22.45 31.94 24.33 32.79 25.73 33.71C25.95 33.08 26.22 32.47 26.55 31.88C25.36 30.46 23.78 28.79 22.57 28.13L21.87 27.74L22.64 26.34L23.34 26.73C24.83 27.55 26.33 29.1 27.5 30.5C27.8 30.14 28.13 29.8 28.5 29.5C28.54 29.46 28.59 29.43 28.63 29.4C26.07 26.31 22.4 23.02 18.69 21.43V21.42ZM54.86 21.42C51.15 23.01 47.48 26.29 44.92 29.39C44.96 29.42 45.01 29.46 45.05 29.49C45.42 29.8 45.75 30.13 46.05 30.49C47.22 29.09 48.72 27.55 50.21 26.72L50.91 26.33L51.68 27.73L50.98 28.12C49.77 28.79 48.18 30.45 47 31.87C47.33 32.45 47.6 33.07 47.82 33.7C49.23 32.77 51.1 31.93 53.12 31.88L53.92 31.86L53.96 33.46L53.16 33.48C51.41 33.53 49.55 34.45 48.29 35.34C48.46 36.07 48.59 36.8 48.68 37.51C48.91 37.49 49.14 37.47 49.39 37.46C49.46 37.46 49.52 37.46 49.59 37.46C50.58 37.45 51.65 37.63 52.68 38.4L53.32 38.88L52.36 40.16L51.72 39.68C50.78 38.98 49.9 38.99 48.84 39.1C48.92 40.28 48.93 41.35 48.93 42.24C49.07 42.35 49.21 42.47 49.33 42.6C50.49 41.78 51.96 41.57 53.45 41.71C54.62 41.82 55.85 42.13 57.09 42.5C56.98 42.35 56.87 42.22 56.75 42.06C55.66 40.58 54.49 38.8 54.43 37.03C54.37 35.59 55.19 34.15 55.94 32.94C56.24 32.45 56.54 32.03 56.79 31.68C56.48 31.55 56.14 31.4 55.78 31.21C54.72 30.67 53.48 30 53.05 28.73C52.41 26.86 53.28 24.65 54.14 22.81C54.38 22.3 54.62 21.83 54.86 21.41V21.42ZM34.08 22.62C33.98 22.83 33.87 23.04 33.76 23.25C32.87 25 31.94 26.69 31.03 28.11C31.75 27.88 32.55 27.73 33.42 27.69L34.08 22.61V22.62ZM39.48 22.62L40.14 27.7C41.01 27.74 41.81 27.89 42.53 28.12C41.61 26.69 40.68 25.01 39.8 23.26C39.69 23.05 39.59 22.84 39.48 22.63V22.62ZM33.21 29.31C31.62 29.43 30.45 29.95 29.53 30.72C28.48 31.6 27.74 32.84 27.24 34.25C26.39 36.66 26.25 39.5 26.23 41.61C26.41 41.58 26.6 41.57 26.78 41.57C27.35 41.57 27.9 41.67 28.43 41.85C29.48 42.21 30.45 42.84 31.41 43.49C33.32 44.79 35.16 46.13 36.79 46.13C38.42 46.13 40.26 44.79 42.17 43.49C43.12 42.84 44.09 42.21 45.15 41.85C45.84 41.61 46.6 41.5 47.35 41.61C47.33 39.5 47.19 36.66 46.34 34.25C45.84 32.83 45.11 31.6 44.05 30.72C43.13 29.95 41.96 29.43 40.36 29.31L40.47 30.19L40.19 30.47C39.29 31.37 38.03 31.77 36.79 31.77C35.55 31.77 34.28 31.37 33.39 30.47L33.11 30.19L33.22 29.31H33.21ZM30.76 33.33C30.81 33.33 30.86 33.33 30.91 33.33C31.03 33.33 31.15 33.35 31.28 33.38C32.93 33.77 33.97 35.39 34.78 36.8C35.59 38.22 36.1 39.55 36.1 39.55L36.38 40.3L34.93 40.85C35.07 40.98 35.21 41.12 35.35 41.26C33.93 42.68 29.67 41.26 28.25 39.84C28.25 38.42 28.25 37 29.67 37C30.8 37 33.71 39.68 34.85 40.78L34.6 40.13C34.6 40.13 34.13 38.9 33.39 37.61C32.65 36.32 31.56 35.1 30.91 34.95C30.89 34.95 30.25 35.11 29.73 35.46C29.21 35.8 28.8 36.18 28.8 36.18L28.21 36.72L27.13 35.54L27.72 35C27.72 35 28.21 34.55 28.85 34.12C29.38 33.77 29.99 33.34 30.76 33.33ZM42.8 33.33C43.56 33.34 44.18 33.77 44.71 34.12C45.35 34.55 45.84 35 45.84 35L46.43 35.54L45.35 36.72L44.76 36.18C44.76 36.18 44.35 35.8 43.83 35.46C43.31 35.12 42.67 34.95 42.65 34.95C42 35.1 40.91 36.33 40.17 37.61C39.43 38.9 38.96 40.13 38.96 40.13L38.71 40.78C39.85 39.68 42.76 37 43.89 37C45.31 37 45.31 38.42 45.31 39.84C43.89 41.26 39.63 42.68 38.21 41.26C38.21 41.26 38.39 41.09 38.63 40.85L37.18 40.3L37.46 39.55C37.46 39.55 37.97 38.22 38.78 36.8C39.59 35.38 40.63 33.77 42.28 33.38C42.4 33.35 42.52 33.33 42.65 33.33C42.7 33.33 42.75 33.33 42.8 33.33ZM35.36 42.15V44.1H33.94L35.36 42.15ZM38.2 42.15L39.62 44.1H38.2V42.15ZM26.81 43.16C26.46 43.16 26.12 43.24 25.77 43.41C25.38 43.59 25.08 44.05 24.9 44.71C24.72 45.37 24.7 46.19 24.8 46.83C25.36 50.57 28.12 54.45 31.47 56.18C34.57 57.78 38.99 57.78 42.1 56.18C45.45 54.45 48.21 50.57 48.77 46.83C48.87 46.2 48.85 45.38 48.67 44.71C48.49 44.05 48.18 43.59 47.8 43.41C47.1 43.07 46.45 43.1 45.66 43.37C44.87 43.64 43.99 44.19 43.06 44.82C41.21 46.08 39.2 47.74 36.78 47.74C34.36 47.74 32.35 46.08 30.5 44.82C29.58 44.19 28.69 43.64 27.9 43.37C27.51 43.23 27.15 43.16 26.8 43.16H26.81ZM27.47 45.65L28.53 46.18L29.69 49.07L31.11 47.46C31.63 47.71 32.12 47.94 32.57 48.14L33.59 49.79L34.16 48.8C35.18 49.17 36.01 49.35 36.8 49.35C37.59 49.35 38.42 49.17 39.44 48.8L40.01 49.79L41.03 48.14C41.48 47.94 41.96 47.71 42.49 47.46L43.91 49.07L45.07 46.18L46.13 45.65V46.94C46.13 47.92 45.71 49.06 44.93 50.22C44.44 50.96 43.84 51.62 43.16 52.19L42.49 50.84L40.57 53.71C40.14 53.88 39.7 54.03 39.26 54.14L38.71 52.25L37.48 54.43C37.03 54.46 36.58 54.46 36.13 54.43L34.9 52.25L34.35 54.14C33.9 54.02 33.47 53.88 33.04 53.71L31.12 50.84L30.45 52.19C29.77 51.62 29.18 50.96 28.68 50.22C27.9 49.05 27.48 47.91 27.48 46.94V45.65H27.47Z" fill="white"/>
</svg>
