<svg width="77" height="80" viewBox="0 0 77 80" fill="none" xmlns="http://www.w3.org/2000/svg">
<path d="M35.6031 1.16342L2.80745 33.959C1.25316 35.5133 1.25316 38.0333 2.80745 39.5876L35.6031 72.3832C37.1573 73.9375 39.6773 73.9375 41.2316 72.3832L74.0272 39.5876C75.5815 38.0333 75.5815 35.5133 74.0272 33.959L41.2316 1.16342C39.6773 -0.390866 37.1573 -0.390869 35.6031 1.16342Z" fill="#415759"/>
<path d="M38.42 59.48C50.9623 59.48 61.13 49.3124 61.13 36.77C61.13 24.2276 50.9623 14.06 38.42 14.06C25.8776 14.06 15.71 24.2276 15.71 36.77C15.71 49.3124 25.8776 59.48 38.42 59.48Z" fill="black"/>
<path d="M0.579545 68.8103V67.8728H7.125V68.8103H4.38068V76.6H3.32386V68.8103H0.579545ZM8.75604 76.6V67.8728H11.7049C12.3867 67.8728 12.9464 67.9892 13.3839 68.2222C13.8214 68.4523 14.1452 68.7691 14.3555 69.1725C14.5657 69.5759 14.6708 70.0347 14.6708 70.5489C14.6708 71.0631 14.5657 71.5191 14.3555 71.9168C14.1452 72.3145 13.8228 72.627 13.3881 72.8543C12.9535 73.0787 12.3981 73.1909 11.7219 73.1909H9.33558V72.2364H11.6879C12.1538 72.2364 12.5288 72.1682 12.8129 72.0319C13.0998 71.8955 13.3072 71.7023 13.435 71.4523C13.5657 71.1995 13.631 70.8983 13.631 70.5489C13.631 70.1995 13.5657 69.8941 13.435 69.6327C13.3043 69.3713 13.0955 69.1696 12.8086 69.0276C12.5217 68.8827 12.1424 68.8103 11.6708 68.8103H9.81286V76.6H8.75604ZM12.864 72.6796L15.0117 76.6H13.7844L11.6708 72.6796H12.864ZM16.4318 76.6V67.8728H21.6989V68.8103H17.4886V71.7591H21.4261V72.6966H17.4886V75.6625H21.767V76.6H16.4318ZM23.9616 76.6H22.8537L26.0582 67.8728H27.1491L30.3537 76.6H29.2457L26.6378 69.2534H26.5696L23.9616 76.6ZM24.3707 73.1909H28.8366V74.1284H24.3707V73.1909ZM36.4858 70.0546C36.4347 69.6228 36.2273 69.2875 35.8636 69.0489C35.5 68.8103 35.054 68.6909 34.5256 68.6909C34.1392 68.6909 33.8011 68.7534 33.5114 68.8784C33.2244 69.0034 33 69.1753 32.8381 69.3941C32.679 69.6128 32.5994 69.8614 32.5994 70.1398C32.5994 70.3728 32.6548 70.573 32.7656 70.7407C32.8793 70.9054 33.0241 71.0432 33.2003 71.154C33.3764 71.262 33.5611 71.3515 33.7543 71.4225C33.9474 71.4907 34.125 71.5461 34.2869 71.5887L35.1733 71.8273C35.4006 71.887 35.6534 71.9694 35.9318 72.0745C36.2131 72.1796 36.4815 72.323 36.7372 72.5049C36.9957 72.6838 37.2088 72.914 37.3764 73.1952C37.544 73.4765 37.6278 73.8216 37.6278 74.2307C37.6278 74.7023 37.5043 75.1284 37.2571 75.5091C37.0128 75.8898 36.6548 76.1924 36.1832 76.4168C35.7145 76.6412 35.1449 76.7534 34.4744 76.7534C33.8494 76.7534 33.3082 76.6526 32.8509 76.4509C32.3963 76.2492 32.0384 75.9679 31.777 75.6071C31.5185 75.2463 31.3722 74.8273 31.3381 74.35H32.429C32.4574 74.6796 32.5682 74.9523 32.7614 75.1682C32.9574 75.3813 33.2045 75.5404 33.5028 75.6455C33.804 75.7478 34.1278 75.7989 34.4744 75.7989C34.8778 75.7989 35.2401 75.7336 35.5611 75.6029C35.8821 75.4694 36.1364 75.2847 36.3239 75.0489C36.5114 74.8103 36.6051 74.5319 36.6051 74.2137C36.6051 73.9239 36.5241 73.6881 36.3622 73.5063C36.2003 73.3245 35.9872 73.1767 35.723 73.0631C35.4588 72.9495 35.1733 72.85 34.8665 72.7648L33.7926 72.458C33.1108 72.262 32.571 71.9821 32.1733 71.6185C31.7756 71.2549 31.5767 70.779 31.5767 70.1909C31.5767 69.7023 31.7088 69.2762 31.973 68.9125C32.2401 68.5461 32.598 68.262 33.0469 68.0603C33.4986 67.8557 34.0028 67.7534 34.5597 67.7534C35.1222 67.7534 35.6222 67.8543 36.0597 68.056C36.4972 68.2549 36.8438 68.5276 37.0994 68.8742C37.358 69.2208 37.4943 69.6142 37.5085 70.0546H36.4858ZM45.0927 67.8728H46.1495V73.6512C46.1495 74.2478 46.0089 74.7804 45.7276 75.2492C45.4492 75.7151 45.0558 76.083 44.5472 76.3529C44.0387 76.6199 43.4421 76.7534 42.7575 76.7534C42.0728 76.7534 41.4762 76.6199 40.9677 76.3529C40.4592 76.083 40.0643 75.7151 39.783 75.2492C39.5046 74.7804 39.3654 74.2478 39.3654 73.6512V67.8728H40.4222V73.5659C40.4222 73.9921 40.516 74.3713 40.7035 74.7037C40.891 75.0333 41.158 75.2932 41.5046 75.4836C41.854 75.6711 42.2717 75.7648 42.7575 75.7648C43.2433 75.7648 43.6609 75.6711 44.0103 75.4836C44.3597 75.2932 44.6268 75.0333 44.8114 74.7037C44.9989 74.3713 45.0927 73.9921 45.0927 73.5659V67.8728ZM48.2599 76.6V67.8728H51.2088C51.8906 67.8728 52.4503 67.9892 52.8878 68.2222C53.3253 68.4523 53.6491 68.7691 53.8594 69.1725C54.0696 69.5759 54.1747 70.0347 54.1747 70.5489C54.1747 71.0631 54.0696 71.5191 53.8594 71.9168C53.6491 72.3145 53.3267 72.627 52.892 72.8543C52.4574 73.0787 51.902 73.1909 51.2259 73.1909H48.8395V72.2364H51.1918C51.6577 72.2364 52.0327 72.1682 52.3168 72.0319C52.6037 71.8955 52.8111 71.7023 52.9389 71.4523C53.0696 71.1995 53.1349 70.8983 53.1349 70.5489C53.1349 70.1995 53.0696 69.8941 52.9389 69.6327C52.8082 69.3713 52.5994 69.1696 52.3125 69.0276C52.0256 68.8827 51.6463 68.8103 51.1747 68.8103H49.3168V76.6H48.2599ZM52.3679 72.6796L54.5156 76.6H53.2884L51.1747 72.6796H52.3679ZM55.9357 76.6V67.8728H61.2028V68.8103H56.9925V71.7591H60.93V72.6966H56.9925V75.6625H61.271V76.6H55.9357ZM67.8803 70.0546C67.8292 69.6228 67.6218 69.2875 67.2582 69.0489C66.8945 68.8103 66.4485 68.6909 65.9201 68.6909C65.5337 68.6909 65.1957 68.7534 64.9059 68.8784C64.619 69.0034 64.3945 69.1753 64.2326 69.3941C64.0735 69.6128 63.994 69.8614 63.994 70.1398C63.994 70.3728 64.0494 70.573 64.1602 70.7407C64.2738 70.9054 64.4187 71.0432 64.5948 71.154C64.771 71.262 64.9556 71.3515 65.1488 71.4225C65.342 71.4907 65.5195 71.5461 65.6815 71.5887L66.5678 71.8273C66.7951 71.887 67.0479 71.9694 67.3263 72.0745C67.6076 72.1796 67.8761 72.323 68.1317 72.5049C68.3903 72.6838 68.6033 72.914 68.771 73.1952C68.9386 73.4765 69.0224 73.8216 69.0224 74.2307C69.0224 74.7023 68.8988 75.1284 68.6516 75.5091C68.4073 75.8898 68.0494 76.1924 67.5778 76.4168C67.109 76.6412 66.5394 76.7534 65.869 76.7534C65.244 76.7534 64.7028 76.6526 64.2454 76.4509C63.7908 76.2492 63.4329 75.9679 63.1715 75.6071C62.913 75.2463 62.7667 74.8273 62.7326 74.35H63.8235C63.8519 74.6796 63.9627 74.9523 64.1559 75.1682C64.3519 75.3813 64.5991 75.5404 64.8974 75.6455C65.1985 75.7478 65.5224 75.7989 65.869 75.7989C66.2724 75.7989 66.6346 75.7336 66.9556 75.6029C67.2766 75.4694 67.5309 75.2847 67.7184 75.0489C67.9059 74.8103 67.9996 74.5319 67.9996 74.2137C67.9996 73.9239 67.9187 73.6881 67.7567 73.5063C67.5948 73.3245 67.3817 73.1767 67.1175 73.0631C66.8533 72.9495 66.5678 72.85 66.261 72.7648L65.1871 72.458C64.5053 72.262 63.9656 71.9821 63.5678 71.6185C63.1701 71.2549 62.9712 70.779 62.9712 70.1909C62.9712 69.7023 63.1033 69.2762 63.3675 68.9125C63.6346 68.5461 63.9925 68.262 64.4414 68.0603C64.8931 67.8557 65.3974 67.7534 65.9542 67.7534C66.5167 67.7534 67.0167 67.8543 67.4542 68.056C67.8917 68.2549 68.2383 68.5276 68.494 68.8742C68.7525 69.2208 68.8888 69.6142 68.9031 70.0546H67.8803Z" fill="white"/>
<path d="M39.1699 22.49C36.0099 22.49 32.0499 23.48 28.1499 25.51C24.2499 27.54 21.1599 30.2 19.3499 32.8C17.5399 35.39 17.0399 37.8 17.9399 39.53C18.8299 41.24 21.0899 42.23 24.2599 42.23C27.4299 42.23 31.3799 41.24 35.2799 39.21C39.1799 37.18 42.2699 34.51 44.0799 31.92C45.8999 29.33 46.3799 26.92 45.4899 25.19C44.5899 23.48 42.3399 22.48 39.1699 22.48V22.49ZM47.3199 28.73C47.0099 30.09 46.3399 31.48 45.3899 32.84C43.3799 35.71 40.1099 38.5 36.0099 40.63C31.9099 42.77 27.7499 43.84 24.2499 43.84C22.5999 43.84 21.0699 43.59 19.7799 43.07L20.7199 44.88C21.6099 46.6 23.8699 47.59 27.0399 47.59C30.2099 47.59 34.1599 46.6 38.0599 44.56C41.9599 42.54 45.0499 39.87 46.8599 37.27C48.6699 34.68 49.1699 32.27 48.2699 30.55L47.3199 28.73ZM49.8799 30.22C50.8699 32.59 50.0799 35.47 48.1799 38.18C46.4999 40.58 43.9399 42.92 40.7599 44.87C41.7399 44.98 42.7699 45.03 43.8199 45.03C48.2099 45.03 52.1899 44.09 54.9899 42.63C57.7999 41.17 59.3499 39.25 59.3499 37.32C59.3499 35.39 57.8099 33.47 54.9899 32.01C53.5599 31.26 51.8199 30.65 49.8799 30.24V30.22ZM59.3499 41.29C58.4399 42.35 57.1999 43.28 55.7399 44.04C52.6299 45.65 48.4499 46.62 43.8199 46.62C41.9399 46.62 40.1299 46.46 38.4299 46.16C36.3699 47.2 34.2999 47.97 32.3199 48.48C32.4299 48.54 32.5299 48.6 32.6499 48.66C35.4499 50.12 39.4299 51.06 43.8199 51.06C48.2099 51.06 52.1899 50.12 54.9899 48.66C57.7999 47.2 59.3499 45.28 59.3499 43.35V41.3V41.29Z" fill="white"/>
</svg>
