<svg width="24" height="24" viewBox="0 0 24 24" fill="none" xmlns="http://www.w3.org/2000/svg">
<path fill-rule="evenodd" clip-rule="evenodd" d="M12.0011 0C8.7421 0 8.33309 0.0142508 7.05308 0.0724998C5.77557 0.131001 4.90355 0.333249 4.14055 0.630004C3.35129 0.936493 2.68177 1.34649 2.01477 2.01375C1.34727 2.68074 0.937263 3.35025 0.629757 4.13925C0.332254 4.9025 0.129751 5.77474 0.0722504 7.05174C0.0150005 8.33174 0 8.74099 0 12C0 15.259 0.0144999 15.6668 0.0725007 16.9468C0.131251 18.2242 0.333504 19.0962 0.630006 19.8592C0.936756 20.6485 1.34676 21.318 2.01403 21.985C2.68078 22.6525 3.35029 23.0634 4.13904 23.37C4.90255 23.6667 5.77481 23.8689 7.05208 23.9274C8.33209 23.9858 8.74085 24 11.9996 24C15.2589 24 15.6667 23.9858 16.9467 23.9274C18.2242 23.8689 19.0972 23.6667 19.8607 23.37C20.6497 23.0634 21.3183 22.6525 21.985 21.985C22.6525 21.318 23.0625 20.6485 23.37 19.8595C23.665 19.0962 23.8675 18.224 23.9276 16.947C23.9851 15.6669 24 15.259 24 12C24 8.74099 23.9851 8.33199 23.9276 7.05199C23.8675 5.7745 23.665 4.9025 23.37 4.1395C23.0625 3.35025 22.6525 2.68074 21.985 2.01375C21.3174 1.34626 20.65 0.936254 19.86 0.630004C19.095 0.333249 18.2224 0.131001 16.945 0.0724998C15.6649 0.0142508 15.2575 0 11.9974 0H12.0011ZM10.9246 2.16246C11.2441 2.16197 11.6006 2.16246 12.0011 2.16246C15.2052 2.16246 15.5849 2.17396 16.8502 2.23147C18.0202 2.28496 18.6551 2.48047 19.0781 2.64472C19.6382 2.86222 20.0375 3.12222 20.4572 3.54222C20.8771 3.96222 21.1372 4.36221 21.3553 4.92221C21.5195 5.34471 21.7153 5.97971 21.7684 7.14971C21.8259 8.41471 21.8385 8.79471 21.8385 11.9972C21.8385 15.1996 21.8259 15.5798 21.7684 16.8447C21.715 18.0146 21.5195 18.6497 21.3553 19.0721C21.1377 19.6322 20.8771 20.0309 20.4572 20.4507C20.0372 20.8707 19.6384 21.1307 19.0781 21.3483C18.6557 21.5132 18.0202 21.7083 16.8502 21.7617C15.5851 21.8192 15.2052 21.8317 12.0011 21.8317C8.7968 21.8317 8.41704 21.8192 7.15204 21.7617C5.98202 21.7077 5.34701 21.5122 4.92376 21.348C4.36375 21.1304 3.96374 20.8704 3.54374 20.4504C3.12373 20.0305 2.86373 19.6314 2.64573 19.0711C2.48148 18.6487 2.28573 18.0137 2.23248 16.8437C2.17497 15.5788 2.16347 15.1987 2.16347 11.9942C2.16347 8.78971 2.17497 8.41171 2.23248 7.1467C2.28597 5.97672 2.48148 5.34172 2.64573 4.91871C2.86324 4.35872 3.12373 3.95872 3.54374 3.53872C3.96374 3.11872 4.36375 2.85872 4.92376 2.64071C5.34676 2.47571 5.98202 2.28071 7.15204 2.22697C8.25904 2.17696 8.68804 2.16197 10.9246 2.15947V2.16246ZM18.4066 4.15497C17.6117 4.15497 16.9666 4.79922 16.9666 5.59446C16.9666 6.38946 17.6117 7.03446 18.4066 7.03446C19.2017 7.03446 19.8466 6.38946 19.8466 5.59446C19.8466 4.79946 19.2017 4.15497 18.4066 4.15497ZM12.0012 5.83746C8.59788 5.83746 5.83858 8.59671 5.83858 12C5.83858 15.4033 8.59788 18.1612 12.0012 18.1612C15.4044 18.1612 18.1628 15.4033 18.1628 12C18.1628 8.59671 15.4044 5.83746 12.0012 5.83746ZM12.0011 7.99997C14.2101 7.99997 16.0011 9.79071 16.0011 12C16.0011 14.209 14.2101 15.9999 12.0011 15.9999C9.79184 15.9999 8.00106 14.209 8.00106 12C8.00106 9.79071 9.79184 7.99997 12.0011 7.99997Z" fill="white"/>
</svg>
